<svg id="Layer_1" data-name="Layer 1" xmlns="http://www.w3.org/2000/svg" width="2000" height="459.126" viewBox="0 0 2000 459.126">
  <title>wood</title>
  <g id="z3JBAa">
    <g>
      <path d="M1998.749,412.488a1195.965,1195.965,0,0,0-164.125-3.873c-46.165,1.96-92.361,3.675-138.451,6.839q-88.773,6.094-177.386,14.444c-52.64,4.883-105.121,11.477-157.749,16.5-41.641,3.977-83.4,6.758-125.105,10.008-54.37,4.236-108.717,8.4-162.291,19.514-50.338,10.447-96.891,29.472-139.793,57.869-28.1,18.6-56.206,37.362-87.516,50.38-28.409,11.812-57.221,22.674-85.463,34.864-24.233,10.459-47.636,22.845-71.895,33.235-41.593,17.814-85.083,20-129.361,13.514-55.883-8.182-108.141-27.956-159.6-50.137-61.288-26.417-122.263-53.555-185.171-76.05-61.6-22.025-124.186-40.284-188.711-51.5-9.427-1.638-18.92-2.9-28.382-4.33v-8.755C28.843,480.65,60.178,485.2,90.98,492.132c67.578,15.2,132.1,39.938,196.022,66.1,46.179,18.9,91.742,39.3,137.791,58.527,38.821,16.207,78.5,29.969,120.045,37.51,29.792,5.408,59.732,9.267,90.017,4.4,29.235-4.7,56.513-15.418,82.964-28.254,40.05-19.437,80.11-38.746,122.414-53.029,20.858-7.043,39.246-19.053,57.421-31.247,33.9-22.743,68.076-44.875,106.758-59.081,38.291-14.062,77.661-23.834,118.094-28.14,49.455-5.267,99.126-8.477,148.665-13,49.753-4.537,99.468-9.49,149.182-14.442,50.542-5.036,101-10.966,151.608-15.275,56.208-4.785,112.527-8.286,168.813-12.126,20.551-1.4,41.145-2.176,61.764-3.771-12.758-.924-25.511-1.926-38.275-2.756-25.753-1.675-51.517-3.178-77.263-4.947-4.74-.326-9.395-1.743-14.129-2.348-5.135-.655-10.683-2.361-15.407-1.132-13.121,3.416-25.549-.713-38.272-1.734-28.2-2.264-56.383-5.332-84.63-6.169-54.386-1.611-108.641,2.306-162.893,5.883q-55.464,3.657-111.037,5.614c-123.647,4.545-240.006-24.684-351.762-75.835-31.734-14.525-64.335-27.173-96.69-40.31-18.88-7.666-35.718-18.636-52.284-30.216-51.363-35.909-107.713-60.3-169.357-71.746-46.6-8.657-91.434-.258-132.477,21.773-52.02,27.923-102.825,58.212-153.235,88.985-19.6,11.963-36.549,28.215-54.953,42.188-45.465,34.522-97.192,52.8-153.617,58.9a628.564,628.564,0,0,1-94.181,2.771c-1.447-.061-2.885-.33-4.327-.5v-7.5c18.738-.042,37.477.008,56.214-.142,80.621-.643,152.43-25.057,213.725-78.561,28.051-24.485,59.908-43.5,92.324-61.553,33.436-18.623,66.318-38.355,100.5-55.481,34.556-17.31,71.84-24.991,110.75-21.838,32.2,2.609,62.8,12.112,92.98,23.022,36.395,13.155,70.74,30.242,101.856,53.481,19.814,14.8,41.618,25.393,64.811,34.247,34.142,13.034,67.363,28.491,100.914,43.058,60.888,26.437,123.625,46.867,189.143,58.193a629.27,629.27,0,0,0,136.249,8.694c51.362-2.351,102.671-5.849,154.028-8.348,36.173-1.761,72.38-3.389,108.586-3.8a654.182,654.182,0,0,1,121.2,9.709c3.914.69,8.192-1.024,12.3-1.048,6.815-.04,13.662.076,20.444.694,8.873.81,17.668,2.57,26.547,3.223,26.153,1.924,52.341,3.37,78.5,5.249a843.158,843.158,0,0,0,118.55-.05c31.969-2.2,63.848-5.69,95.769-8.584,1.857-.168,3.733-.117,5.6-.169v8.755c-13.232,1.3-26.46,2.651-39.7,3.891-15.958,1.5-31.924,2.9-49.319,4.471l89.017,5.395Z"/>
      <path d="M-2.251,132.348c11.58,5.171,23.448,9.788,34.689,15.613,42.091,21.808,86.708,30.884,133.942,28.172,73.378-4.213,144.036-19.472,211.5-49.4,38.554-17.1,77.558-33.307,116.963-48.334,31.058-11.843,63.69-18.691,97.109-17.8,25.544.68,51.128,3.008,76.506,6.131,61.353,7.548,122.5,16.816,183.918,23.756,35.734,4.038,71.8,5.333,107.759,7.115,41.987,2.08,84.016,2.824,125.552,10.654a525.852,525.852,0,0,1,180.541,69.671c31.684,19.56,63.123,39.653,97.806,53.767a710.775,710.775,0,0,0,168.77,45.756c50.718,7.186,101.424,7.156,151.662-2.884,25.409-5.077,50.54-12.163,75.216-20.138,33.054-10.681,56.832-34.41,79.209-59.859,16.486-18.749,33.258-37.341,51.087-54.791,21.527-21.069,48.908-30.181,78.3-33.681,10.115-1.2,20.315-1.7,30.476-2.514v8.754c-15.891,1.884-31.859,3.273-47.656,5.758-28.831,4.535-50.646,21.449-69.881,41.97-16.084,17.16-31.472,34.977-46.995,52.657-23.881,27.2-53.567,44.859-87.973,55.6-49.5,15.455-100.116,23.506-151.872,22.511-65.158-1.253-128.464-13.854-190.367-34-44.055-14.341-84.717-35.577-123.587-60.388-50.334-32.127-103.572-57.465-161.745-71.991a568.152,568.152,0,0,0-135.3-17.083C925.4,107.077,867.808,101.881,810.4,94.1c-57.533-7.8-115.113-15.243-172.686-22.748C580.274,63.866,525.3,74.01,472.238,95.7c-35.986,14.709-71.536,30.483-107.274,45.8-43.492,18.636-89.247,29.041-135.61,37.172a467.046,467.046,0,0,1-87.622,7.321c-40.726-.589-78.007-13.183-113.838-31.446-9.789-4.99-20.083-8.987-30.145-13.44Z"/>
      <path d="M1998.749,83.574c-13.254-.433-26.517-1.423-39.759-1.2-43.944.75-80.948,19.093-113.663,46.894-23.16,19.68-45.18,40.7-68.229,60.513-36.546,31.42-78.312,52.5-126.037,60.854-27.076,4.742-54.4,4.694-81.585,1.532-53.832-6.263-105.687-20.549-155.914-40.69-26.149-10.486-48.26-27.759-70.956-43.955-25.944-18.513-52.085-36.646-82.21-48.031-27.2-10.279-55.618-14.08-84.364-15.6-32.847-1.734-65.77-2.121-98.594-4.15-41.557-2.569-83.072-5.915-124.559-9.458-40.863-3.49-81.686-7.472-122.5-11.548-61.549-6.148-122.774-14.4-182.764-30.047-43.842-11.432-87.471-10.767-131.583-.5-46.6,10.844-92.163,24.042-133.911,48.067-23.259,13.384-45.935,27.83-69.562,40.515-34.881,18.727-72.475,25.577-111.808,20.881C158,152.551,115.22,147.431,72.66,140.948c-26.17-3.987-51.048-13.225-74.911-24.858V106.085a276.156,276.156,0,0,0,78.788,26.971c26.416,4.64,53.036,8.219,79.656,11.549,19.6,2.453,39.323,4.29,59.046,5.453,36.684,2.163,70.3-8.662,102.034-26.088,15.131-8.309,30.1-16.964,44.776-26.044,48.982-30.3,102.577-48.093,158.651-59.388,28.064-5.653,56.352-10.341,84.909-6.054,22.782,3.42,45.428,8.283,67.776,13.925C706.6,54.793,740.4,59.212,774.26,63.376q53.918,6.63,107.977,12.1,51.89,5.221,103.9,9.195,59.767,4.631,119.611,8.233c19.322,1.17,38.722,1,58.064,1.9,42.035,1.975,83.748,6.97,121.587,26.672,22.037,11.474,42.751,25.738,63.154,40.039,28.2,19.765,56.488,39.172,89.437,50.251,45.419,15.272,91.379,28.6,139.377,32.757,78.87,6.835,147.372-16.528,205.027-71.207,23.864-22.631,47.536-45.483,74.446-64.676,36.982-26.376,78.367-36.524,123.2-34.714,6.237.252,12.47.594,18.7.894Z"/>
      <path d="M-2.251,523.794c83.259,10.047,159.519,40.792,231.169,82.4C276.246,633.682,326.1,652.8,378.334,667.75c35.524,10.165,70.188,23.371,105.144,35.484,36.272,12.569,73.015,22.533,111.513,25.895,42.106,3.677,82.469-3.356,120.782-19.786,33.777-14.486,66.846-30.874,99.263-48.225,46.5-24.89,94.922-45.353,143.218-66.262,35.484-15.362,70.179-32.546,105.638-47.969,53.83-23.414,110.363-37.124,168.649-43,45.772-4.615,91.752-7.158,137.53-11.725,49.292-4.918,98.506-10.719,147.661-16.881,47.081-5.9,93.994-13.149,141.072-19.086,42.541-5.365,85.138-10.5,127.832-14.4,63.306-5.788,126.773-8.1,190.338-4.544,7.264.406,14.517,1,21.775,1.5v8.755c-9.922-.794-19.839-2.193-29.767-2.273-34.76-.282-69.578-1.333-104.271.209-40.935,1.821-81.856,5.149-122.613,9.442-47.59,5.013-95.02,11.6-142.477,17.83-40.647,5.335-81.186,11.507-121.861,16.6-33.033,4.138-66.161,7.634-99.313,10.692-54.512,5.028-109.159,8.7-163.6,14.37-58.683,6.114-113.95,24.736-167.514,49.029-56.228,25.5-113.1,49.607-169,75.807-36.314,17.022-71.237,36.991-107.051,55.108-33.648,17.021-68.2,31.98-105.425,39.417-41.558,8.3-83.036,5.891-123.789-4.512-26.528-6.771-52.44-15.99-78.555-24.337-36.616-11.7-72.865-24.668-109.82-35.162-42.542-12.08-82.346-29.575-120.578-51.669C172.335,582.933,108.433,554.946,39.569,539.6c-13.779-3.071-27.872-4.735-41.82-7.048Z"/>
      <path d="M-2.251,263.664C22.5,274.72,47.935,272.51,73.8,268.591c26.945-4.084,54.078-7,81.18-9.954,44.692-4.875,87.379-16.2,127.472-37.028,56.08-29.137,114.419-52.58,175.687-68.542,56.168-14.634,113.125-22.129,171.206-19.413,55.632,2.6,109.713,13.885,162.789,30.3,57.328,17.732,112.492,40.945,166.674,66.551,36.973,17.473,74.892,32.169,115.014,40.637,51.633,10.9,100.305,29.808,147.508,53.125,25.77,12.73,52.6,23.015,81.23,27.623,26.252,4.225,52.674,3.756,79.132,3.036,34.129-.928,68.269-2.141,102.4-2.04,26,.077,51.983,2.462,77.991,3.023,49.78,1.074,98.835-5.641,147.509-15.357,89.975-17.96,175.647-49.164,259.823-84.917,9.722-4.129,19.555-8,29.336-11.982v8.754c-80.941,35.2-162.934,67.465-249.012,88.119-55.16,13.236-110.894,23.219-167.793,23.325-34.305.064-68.606-2.816-102.923-3.212-25.988-.3-51.993,1.584-78,1.861-28.077.3-56.223.975-84.227-.558-31.323-1.715-60.526-12.583-88.864-25.584-35.9-16.47-71.361-34.069-109.7-44.457-28.494-7.721-57.18-14.73-85.683-22.42-34.942-9.427-66.947-26.053-99.584-41.149-68.309-31.6-138.518-57.652-212.262-73.806Q594.2,126.816,469.035,159.1c-58.658,15.014-115.35,35.425-168.868,63.77C252.341,248.2,201.66,262.479,148,267.768c-31.056,3.061-61.951,7.719-92.952,11.372-18.176,2.142-36.154.949-53.654-4.932a20.312,20.312,0,0,0-3.646-.539Z"/>
      <path d="M-2.251,186.125q13.636,4.258,27.272,8.518c27.829,8.721,56.508,10.843,85.276,8.731,35.461-2.6,70.935-5.872,106.157-10.666,43.789-5.961,84.8-21.834,125.569-38.344,41.61-16.852,83.265-33.688,125.482-48.92C510.574,89.906,555.1,85.765,600.967,90.466,677,98.26,752.6,108.884,828.069,120.718c51.393,8.059,102.908,15.385,154.192,24.081,42.11,7.141,81.748,22.6,120.2,40.681,45.715,21.5,90.81,44.311,136.254,66.387,57.369,27.869,117.09,48.6,180.227,58.859,50.625,8.225,101.46,9.559,152.568,5.683,56.178-4.259,111.639-12.729,166.136-27.025a471.517,471.517,0,0,0,184.9-95.33c20-16.712,41.1-32.022,66.542-39.8a92.248,92.248,0,0,1,9.661-1.9v7.5c-31.184,9.149-56.014,29.13-80.692,48.776-66.562,52.988-142.777,83.326-225.589,99.147-44.814,8.562-89.826,15.437-135.388,18.259-100.485,6.223-197.121-9.967-288.857-51.79-44.272-20.184-87.582-42.476-131.337-63.794-47.937-23.355-96.6-45.079-149.122-55.858-29.716-6.1-59.908-9.907-89.915-14.557-47.91-7.426-95.777-15.18-143.789-21.89s-96.143-12.567-144.283-18.287c-23.778-2.825-47.688-4.421-71.664-1.831-34.625,3.741-67.65,13.7-99.816,26.473-39.415,15.646-78.483,32.166-117.764,48.151-43.453,17.682-88.736,28.482-135.249,33.424-31.01,3.294-62.23,4.8-93.39,6.462-32.91,1.761-63.781-7.532-94.145-18.918Z"/>
      <path d="M-2.251,64.814q8.134,3.669,16.268,7.336c42.416,19.043,85.523,35.879,132.016,42.23,50.966,6.961,99.912-.992,146.049-22.7,31.751-14.941,62.1-32.885,92.9-49.816,27.551-15.147,55-30.438,85.764-38.322A298.991,298.991,0,0,1,583.609-3.11c48.893,6.262,97.5,14.75,146.26,22.061,47.337,7.1,94.64,14.486,142.1,20.683,40.24,5.256,80.629,9.512,121.041,13.258,40.278,3.733,80.7,3.98,121.123,2.138,22.878-1.042,45.779-1.573,68.664-2.486,42.363-1.691,82.322-12.912,121.15-29.539,36.818-15.765,71.225-34.995,101.341-61.765,10.149-9.023,22.072-16.05,33.184-23.989h26.263c-25.794,6.3-45.468,22.7-64.808,39.522-29.33,25.512-63.779,41.991-99.138,56.987a348.451,348.451,0,0,1-129.855,27.522c-36.631.79-73.282,3.89-109.86,3.078-40.317-.895-80.728-3.627-120.8-8.175C876.385,48.935,812.69,39.91,749.024,30.86c-32.946-4.683-65.627-11.206-98.48-16.584-43.395-7.1-86.867-12.635-131.091-9.738-37.07,2.428-71.371,13.1-103.72,30.961-34.78,19.2-69.381,38.756-104.592,57.139-45.536,23.774-94.112,35.37-145.689,32.178-39.4-2.439-77.208-12.3-113.711-26.917C33.432,90.567,15.727,81.727-2.251,73.569Z"/>
      <path d="M516.759-62.749c5.256,4.279,10.1,9.238,15.839,12.718,23.746,14.4,50.116,20.777,77.319,24.709,39.542,5.715,78.941,12.471,118.547,17.677Q793.155.857,858.116,7.26a1789.12,1789.12,0,0,0,200.281,8.5c72.383-.914,144.233-7.041,215.009-23.411,38.312-8.862,71.1-27.66,100.736-52.759a13.734,13.734,0,0,0,1.8-2.338H1389.7c-4.047,3.77-7.969,7.685-12.159,11.289C1340.9-19.947,1298.173-2.119,1250.813,6.232c-46.8,8.253-93.761,14.994-141.265,16.162-46.181,1.136-92.431,1.854-138.6.66A1770.6,1770.6,0,0,1,776.871,7.418C714.43-1.117,652.113-10.611,589.846-20.347c-22.279-3.484-43.88-10.267-62.784-23.063-7.921-5.361-14.416-12.829-21.559-19.339Z"/>
      <path d="M-2.251-17.727C11.481-8.773,25.264.1,38.929,9.156,51.424,17.434,64,25.614,76.177,34.343,107.56,56.84,143.025,68.054,181,70.584c23.389,1.559,47.148,1.746,70.449-.489,35.34-3.39,65.741-20.068,93.762-41.113C376.212,5.7,402.517-22.45,427.8-51.62c3.111-3.59,5.954-7.414,8.922-11.129h11.255c-6.124,7.522-12.018,15.247-18.412,22.533C401.329-8.044,371.3,22.108,335.591,46.276c-40.9,27.681-85.98,37.316-134.673,34.4-23.361-1.4-46.46-3.677-69.053-9.969C106.449,63.624,84.065,50.729,62.6,35.69,41.3,20.767,19.391,6.713-2.251-7.722Z"/>
      <path d="M.251-62.749C13.6-52.911,26.167-41.7,40.461-33.511c33.041,18.936,66.008,37.9,97.776,58.954,12.861,8.525,27.022,14.68,42.907,15.7,12.469.8,24.408-1.528,34.639-8.354C245.552,12.927,278.2-1.076,310.6-15.753c24.714-11.2,45.784-27.8,64.843-47h12.506C371.6-49.043,356.292-33.761,338.606-22.081c-17.2,11.358-36.47,19.872-55.512,28.052-15.953,6.852-31.258,14.519-45.635,24.173-4.14,2.781-8.5,5.231-12.744,7.861-25.3,15.682-51.13,15.354-77.26,2.387-6.878-3.413-13.546-7.287-20.139-11.236C98.788,12.069,70.126-4.809,41.913-22.4,26.773-31.847,12.444-42.589-2.251-52.744c0-2.919-.113-5.845.113-8.746C-2.1-61.969-.583-62.332.251-62.749Z"/>
      <path d="M66.534-62.749c17.06,15.842,33.385,32.578,51.341,47.33C149.8,10.815,185.409,14.247,223.23-1.856c24.943-10.62,46.784-26.124,68.006-42.634,7.709-6,15.285-12.168,22.921-18.259h13.757C294.906-36.237,262.891-8.3,222.714,7.558c-41.957,16.56-80.2,9.852-114.127-19.058C89.618-27.664,72.164-45.608,54.027-62.749Z"/>
      <path d="M1998.749,297.431c-3.856,1.536-7.824,2.839-11.55,4.644q-40.1,19.434-80.1,39.091a100.63,100.63,0,0,0-19.487,12.453c7.466-.882,14.916-1.928,22.4-2.617,27.752-2.556,55.517-4.983,83.273-7.5a54.354,54.354,0,0,0,5.462-1.047v8.754c-27.543,2.523-55.107,4.848-82.621,7.655-13.434,1.37-26.76,3.774-40.175,5.371-2.274.27-4.752-1.18-7.136-1.835.671-2.231.753-4.939,2.109-6.616,8.335-10.31,19.888-16.3,31.441-21.989,14.344-7.068,29.1-13.305,43.515-20.227,9.732-4.671,19.071-10.161,28.814-14.8,7.84-3.736,16.023-6.751,24.053-10.086Z"/>
      <path d="M1769.885-62.749c70,44.62,144.077,79.955,225.385,98.791a29.859,29.859,0,0,1,3.479,1.259v7.5c-11.5-2.582-23.165-4.611-34.485-7.837C1889.832,15.749,1821.577-18.7,1756.854-60.6a11.642,11.642,0,0,1-1.977-2.149Z"/>
      <path d="M559.325,631.574c-46.4-.41-89.652-12.032-129.22-36.578-66.863-41.478-138.857-71.627-212.837-97.7-30.951-10.908-62.757-17.774-94.614-24.869a86.663,86.663,0,0,1-20.491-7.257c-14.625-7.491-15.951-19.39-3.623-30.332A93.836,93.836,0,0,1,139.255,413.9c16.15-3.892,32.578-6.826,49.021-9.258,26-3.847,48.975-15.7,72.525-26.131,19.827-8.785,37.367-21.011,53.115-35.793C327.332,330.129,342.7,321.1,359.9,314.59c15.171-5.744,29.979-12.545,42.387-23.445a53.834,53.834,0,0,0,6.109-6.215c10.665-13,20.742-26.52,31.966-39.013,16.406-18.259,37.555-28.718,61.412-33.5,33.026-6.616,65-1.066,96.473,9.264,33.774,11.086,64.924,27.828,96.178,44.379,89.758,47.533,184.838,80.365,283.784,102.448,15.835,3.535,31.976,5.918,47.541,10.356a81.259,81.259,0,0,1,26.021,12.765c12.791,9.6,16.88,23.369,12.777,39.014a19.132,19.132,0,0,1-14.828,14.529c-4.849,1.147-9.78,2-14.713,2.733-13.33,1.974-24.989,7.966-35.73,15.579a159.771,159.771,0,0,1-71.916,28.146c-22.656,3.12-41.374,13.4-54.473,32.818-17.359,25.732-41.725,40.713-71.553,48.749-61.233,16.5-122.133,34.22-183.289,51.006A204.428,204.428,0,0,1,559.325,631.574ZM534.2,218.157a141.376,141.376,0,0,0-49.806,8.248c-28.178,9.962-44.867,33-62.247,54.806-8.343,10.47-16.913,20.019-28.515,26.475-9.068,5.045-18.248,10.229-27.969,13.688-18.645,6.635-34.473,17.3-48.905,30.48-32.011,29.229-70.893,45.565-111.634,57.516-18.456,5.414-38,7.044-56.986,10.75a100.065,100.065,0,0,0-41.111,18.755c-11.484,8.622-10.746,14.473,2.626,20.037a97.437,97.437,0,0,0,18.355,5.934c34.317,6.764,68.005,15.452,101.005,27.359,70.6,25.473,139.357,54.62,203.522,94,58.57,35.95,121.309,46.818,188.119,28.485C679.4,598.573,737.862,581.4,796.69,565.582c28.972-7.79,52.723-22,69.625-47.151,13.877-20.653,33.979-31.093,58.175-34.892,20.426-3.207,40.449-7.788,57.982-19.76,19.187-13.1,38.869-24.992,63.09-26.323,6.916-.38,10.406-5.428,11.45-12.088,1.737-11.088-2.153-20.011-10.519-27.186-8.842-7.583-19.61-10.7-30.657-13.127-24.778-5.443-49.715-10.247-74.318-16.391C862.389,348.9,785.85,321.85,712.8,285.357c-27.723-13.85-54.883-28.862-82.882-42.112C598.862,228.547,566.221,218.878,534.2,218.157Z"/>
      <path d="M1617.449-54.759c57.794.972,104.26,8.033,147.563,29.244,27.754,13.6,48.067,34.159,55.449,65.3,5.915,24.951,1.825,48.719-11.233,70.341-26.576,44-64.75,73.925-114.043,88.705-22.193,6.654-45.125,4.527-67.537.312-27.379-5.149-54.541-11.446-81.8-17.244-24.8-5.275-49.905-9.45-74.33-16.108-28.695-7.822-55.614-20.052-77.559-41.083A88.238,88.238,0,0,1,1373.1,93.983c-4.878-11.924-1.377-23.027,2.485-33.975,10.881-30.845,33.172-51.911,60.478-68.18,35.91-21.394,75.272-33.275,116.282-39.468C1577.2-51.392,1602.348-53.155,1617.449-54.759Zm-1.553,8.1c-21.464,2.584-43.039,4.479-64.369,7.9-38.636,6.2-75.824,17.173-109.772,37.321-23.318,13.84-43.587,30.9-54.728,56.417-11.505,26.354-11.551,35.164,9.2,59.384,14.7,17.152,34.639,27.009,55.211,35.361,25.178,10.222,51.56,15.811,78.223,20.722,32.5,5.986,64.683,13.671,97.14,19.9,20.105,3.86,40.917,6.468,60.812,1.214,52.5-13.863,92.5-45.035,117.771-93.186,16.8-32.021,10.243-69.063-14.124-94.182-12.537-12.924-27.793-21.787-44.408-28.312C1704.8-40.628,1661.114-47.365,1615.9-46.658Z"/>
      <path d="M709.533,565.547c-42.495-2.972-83.187,10.413-124.047,23.821C567.6,595.237,549,599.329,530.441,602.66c-28.4,5.1-52.537-4.593-72.576-24.741q-13.641-13.715-26.221-28.477c-17.751-20.829-40.018-34.6-65.247-44.622-17.723-7.038-35.1-15.123-52.03-23.9-7.2-3.73-13.482-9.839-19.111-15.866-20.719-22.184-20.129-53,.638-75.537,10.107-10.97,22.887-17.869,35.729-24.776,7.143-3.842,14.277-7.705,21.491-11.412,24.752-12.721,47.042-28.676,68.011-47.139,36.784-32.388,80.808-49.5,129.085-56.3,44.067-6.212,81.449,8.431,114.838,36.126,10.257,8.507,20.765,16.717,31.3,24.882,13.864,10.746,29.119,19.013,44.834,26.887,46.247,23.171,84.574,55.371,108.574,102.227,9.832,19.2,12.459,39.607,5.024,60.472C848.843,517.14,836.732,528.8,822.5,538.3a152.8,152.8,0,0,1-76.012,25.546C734.648,564.628,722.782,564.953,709.533,565.547Zm-1.711-9.322c8.954,0,17.915.22,26.862-.04,31.315-.911,60.373-9.264,86.141-27.436,29.1-20.519,37.606-49.284,22.462-81.541-22.309-47.517-61.059-78.527-106.6-102.2-10.869-5.649-22.115-10.908-32.045-17.956-19.679-13.968-38.376-29.311-57.823-43.617C625.963,268.1,603,257.687,576.548,257.563c-55.966-.262-105.389,18.538-148.136,53.924-19.62,16.24-38.9,32.535-61.617,44.354-14.754,7.677-29.675,15.17-43.726,24.009-9,5.662-17.763,12.622-24.494,20.768-13.965,16.9-13.847,38.305.408,54.945a94.791,94.791,0,0,0,26.2,21.63c15.669,8.44,32.465,14.886,49.062,21.477,24.251,9.631,45.3,23.617,62.5,43.318q10.882,12.469,21.926,24.8c20.142,22.422,44.948,33.077,74.953,26.955a501.48,501.48,0,0,0,58.938-15.787C630.057,565.388,667.694,554.541,707.822,556.225Z"/>
      <path d="M1631.02-4.776c24.222.142,47.863,2.535,70.72,10.939,10.277,3.779,16.711,10.474,18.664,21.337,3.762,20.924,7.733,41.954,5.531,63.244A108.488,108.488,0,0,1,1717.9,122.5c-11.1,25.49-32.133,36.044-59.073,33.43-39.725-3.854-79.477-1.934-119.223-2.415-20.626-.25-41.168-2.051-60.974-8.536-26.116-8.551-44.921-25.726-57.34-49.871-8.62-16.76-5.622-34.206,7.513-47.75,13.757-14.187,31.4-21.66,49.683-27.693C1506.271,10.49,1535.126,6.208,1564,2.4,1586.266-.533,1608.674-2.422,1631.02-4.776Zm6.184,9.5a694.208,694.208,0,0,0-143.747,19.737c-19.066,4.7-37.45,11.475-53.148,23.789-16.5,12.947-19.773,29.459-8.961,47.429,10.2,16.96,24.051,30.143,42.578,38.037,18.734,7.982,38.533,10.445,58.54,10.827,29.564.565,59.149-.026,88.718.4,15.59.222,31.157,1.934,46.75,2.265,15.937.339,28.381-6.559,37.42-19.863,9.9-14.574,13.651-30.874,12.521-48.008-1.106-16.774-3.6-33.473-5.931-50.142-1.028-7.35-5.779-11.924-12.872-14.651C1679.114,6.867,1658.448,4.219,1637.2,4.722Z"/>
      <path d="M570.95,566.347c-26.313,1.121-48.894-8.717-69.24-24.334-15.033-11.537-29.7-23.558-44.3-35.643-20.142-16.669-42.425-29.079-67.582-36.6-16.328-4.88-32.317-10.8-46.575-20.665-24.133-16.7-18-40.636-2.384-55.077,9.906-9.163,21.916-12.774,34.935-12.711,23.289.113,45.8-2.872,65.938-15.464,10.572-6.611,20.757-13.895,30.76-21.353,20.388-15.2,40.9-30.038,64.574-40.016,24.18-10.191,47.8-11.036,71.678,1.017,20.174,10.184,39.535,21.1,54.85,38.384,12.414,14.013,28.924,22.154,46.284,28.636,22.107,8.254,43.917,17.253,61.3,33.907A117.119,117.119,0,0,1,788.136,426.3c18.32,27.874,14.013,57.074-11.337,78.767-19.943,17.065-43.323,28.042-68.123,35.654a641.873,641.873,0,0,1-134.605,25.612C573.038,566.423,571.991,566.347,570.95,566.347Zm1.1-8.731a41.634,41.634,0,0,0,4.371-.019c48.488-5.171,96.389-13.295,142.5-29.716,19.934-7.1,38.41-17.066,54.248-31.363,19.1-17.239,23.227-39.3,9.77-61.271-6.184-10.094-14.615-19.246-23.521-27.14-14.658-12.992-32.823-20.221-51.07-26.846-19.4-7.044-37.567-16.307-51.521-31.853-14.543-16.2-32.878-26.441-51.915-36.061-21.046-10.636-41.943-10.077-63.283-1.309-24.142,9.92-45.232,24.754-65.464,40.816-28.092,22.3-58.226,38.349-95.593,36.7-11.188-.493-22.822.948-31.7,9.079-19.128,17.524-17.418,33.782,2.3,44.938a204.869,204.869,0,0,0,39.911,17.27c26.266,8.144,49.868,20.551,70.881,38.206,12.749,10.711,25.645,21.264,38.8,31.473C521.722,546.783,544.216,559.342,572.05,557.616Z"/>
      <path d="M1559.665,116.6c-19.1-1.468-37.642-3.81-55.334-10.444a75.12,75.12,0,0,1-18.981-10.436c-9.84-7.515-11.06-18.634-3.879-28.7,7.4-10.377,18.218-16.229,29.571-21.129,19.39-8.37,40.005-11.375,60.822-12.029a318.116,318.116,0,0,1,100.964,13.393,63.542,63.542,0,0,1,12.576,5.335c10.569,5.851,14.011,12.9,12.032,23.523a25.056,25.056,0,0,1-19.925,19.947,11.529,11.529,0,0,1-3.1.345c-24.368-2.419-46.418,7.486-69.389,12.706C1590.108,112.5,1574.8,114.161,1559.665,116.6Zm-2.1-9.865.309,1.925c18.542-3.53,37.327-6.125,55.561-10.849,18.925-4.9,37.346-11.52,57.392-9.433,2.745.286,5.807-.684,8.468-1.722,6.844-2.67,9.529-8.67,10.116-15.3.5-5.7-3.761-9.052-8.415-11.32a90.5,90.5,0,0,0-12.715-5.076c-24.814-7.709-50.388-11.1-76.22-12.342-27.493-1.324-54.677,1.04-80.016,12.7-8.293,3.815-15.965,9.739-22.665,16.034-6.051,5.686-4.989,12.638,1.621,17.784a57.271,57.271,0,0,0,14.017,7.952C1521.852,103.72,1539.509,106.408,1557.566,106.734Z"/>
      <path d="M614.867,542.314c-43.282-1.045-82.462-15.415-118.477-38.294-19.089-12.127-36.993-26.227-54.771-40.273-11.34-8.958-19.493-20.536-20.048-35.93-.474-13.147,4.731-23.519,15.622-30.771,16.748-11.153,35.792-16.813,55.162-20.625,24.469-4.815,47.909-11.59,69.767-24.078,9.4-5.37,20.109-9,30.671-11.622,12.007-2.977,23.217.945,30.443,11.157,12.487,17.646,29.974,27.816,49.3,35.685,15.59,6.347,31.682,11.675,46.675,19.2a135.6,135.6,0,0,1,31.691,21.656c14.306,13.4,13.673,30.558.042,44.693a137.77,137.77,0,0,1-15.911,14q-21.384,16.223-43.2,31.873c-20.364,14.606-43.346,21.652-68.249,22.832C620.679,541.956,617.774,542.147,614.867,542.314Zm.709-8.65c27.425-.221,52.533-7.527,74.662-24.174,11.643-8.758,23.579-17.129,35.11-26.029,7.063-5.452,14.215-11.012,20.249-17.522,9.928-10.713,9.657-21.25-.923-31.247-6.734-6.363-14.173-12.63-22.42-16.609-17-8.2-34.75-14.832-52.184-22.129-21.181-8.864-40.757-19.849-54.161-39.49-3.733-5.469-9.563-7.7-16.268-7.723-12.153-.034-22.769,4.937-32.848,10.742-21.349,12.3-44.154,19.941-68.3,24.523-18.792,3.566-37.41,8.4-53.924,18.688-15.094,9.406-18.734,24.6-9.7,39.887a46.413,46.413,0,0,0,8.113,10.229,349.851,349.851,0,0,0,69.4,50.733C544.477,521.292,578.47,532.916,615.576,533.664Z"/>
      <path d="M595.4,512.986c-16.091-.651-30.028-6.508-43.609-13.6-21.924-11.453-43.942-22.732-65.7-34.5a120.349,120.349,0,0,1-21.213-14.148c-12.612-10.835-12.132-24.661,1-34.982,18.166-14.275,39.227-20.458,62.16-20.765,16.422-.22,31.732-3.972,47.028-10.578,17.963-7.758,36.957-8.436,54.309,3.35,7.568,5.14,14.889,10.678,22.04,16.387A126.887,126.887,0,0,0,701.345,428.8a262.88,262.88,0,0,1,25.538,8.052c5.173,1.828,5.892,4.836,2.156,8.915a72.322,72.322,0,0,1-10.666,9.572c-29.239,21.3-60.454,39.091-94.6,51.235C614.7,509.8,604.875,510.907,595.4,512.986ZM719,445.013q-.31-1.156-.622-2.311c-4.351-1.3-8.667-2.738-13.058-3.882-16.535-4.309-32.978-8.891-47.083-19.088-8.932-6.459-17.786-13.051-26.366-19.967-18.128-14.612-37.279-15.042-57.776-5.51-6.89,3.2-14.334,5.952-21.8,7.029-13.758,1.987-27.8,1.994-41.571,3.916a77.518,77.518,0,0,0-41.251,19.217c-6.941,6.17-7.025,11.762-.355,18.145a69.917,69.917,0,0,0,14.912,11.152c26.346,14.162,52.777,28.179,79.441,41.73,17.2,8.74,35.3,10.141,53.911,4.32,20.992-6.567,40.3-16.71,59.092-27.836C690.909,463.385,704.847,454.015,719,445.013Z"/>
      <path d="M606.33,405.582c6.307.946,12.615,1.254,18.548,2.91,14.534,4.058,21.345,17.7,14.939,31.291-3.278,6.956-8.86,12.9-13.807,18.966-2.327,2.855-5.636,4.9-8.461,7.361-18.157,15.8-39.094,16.843-61.069,11.1a219.22,219.22,0,0,1-24.75-8.328c-11.676-4.6-19.2-13.66-24.179-24.832-4.278-9.591-1.063-15.208,9.275-16.817,5.746-.895,11.577-1.281,17.285-2.35,3.21-.6,7.02-1.3,9.225-3.378,9.47-8.908,21.6-9.953,33.33-12.008C586.472,407.778,596.417,406.858,606.33,405.582Zm-92.456,30.723c4.551,12.061,11.109,20.832,22.086,24.876,10.489,3.863,21.253,7.43,32.2,9.5,23.827,4.491,53.3-11.441,63.5-33.332,4.139-8.88.521-17.53-8.8-20.4a42.394,42.394,0,0,0-10.409-1.842c-18.286-.847-36.066,2.4-53.616,7.159a11.915,11.915,0,0,0-4.807,2.59c-6.108,5.629-13.538,7.949-21.508,9.032C526.6,434.684,520.665,435.424,513.874,436.305Z"/>
    </g>
  </g>
</svg>
