<svg id="Logos" xmlns="http://www.w3.org/2000/svg" width="1100" height="200" viewBox="0 0 1100 200">
  <defs>
    <style>
      .cls-1, .cls-2, .cls-3, .cls-5 {
        fill: none;
        stroke: #000;
      }

      .cls-1 {
        stroke-miterlimit: 10;
      }

      .cls-1, .cls-3 {
        stroke-width: 5px;
      }

      .cls-2, .cls-3, .cls-5 {
        stroke-linecap: round;
        stroke-linejoin: round;
      }

      .cls-2 {
        stroke-width: 6px;
      }

      .cls-4 {
        font-size: 109.895px;
        font-family: BrushScriptMT, Brush Script MT;
        font-style: italic;
      }

      .cls-5 {
        stroke-width: 4px;
      }
    </style>
  </defs>
  <title>backseat</title>
  <polygon class="cls-1" points="714.251 58.787 717.117 157.182 864.232 152.405 867.098 48.278 714.251 58.787"/>
  <g>
    <path d="M62.888,39.727a18.049,18.049,0,0,0-1.128-2.888c-.894-1.5-2.087-2.826-2.927-4.35-.919-1.665-1.248-3.48.255-5.065,1.309-1.381,3.128-1.5,5.217-.3a10.46,10.46,0,0,1,5.5,8.021c1.534,12.372,2.97,24.755,4.459,37.132,1.306,10.847,2.646,21.689,3.946,32.537q2.489,20.757,4.942,41.52c.672,5.635,1.9,11.064,6.209,15.6a8.22,8.22,0,0,0-4.964,6.639,83.12,83.12,0,0,0-.276,8.834,16.166,16.166,0,0,1-1.286-1.493A39.619,39.619,0,0,1,76.781,156.9q-1.116-17.824-2.385-35.639c-.924-13.065-1.848-26.131-2.9-39.186C70.258,66.718,68.9,51.369,67.548,36.021c-.221-2.507-1.089-4.9-3.227-6.365a3.9,3.9,0,0,0-3.353-.419c-1.355.731-.8,2.237-.067,3.329.818,1.218,1.846,2.294,2.688,3.5,1.683,2.405,3.138,4.858,1.557,7.959-.2.4.178,1.165.412,1.708,1.409,3.272,1.077,4.546-1.817,6.575.909,1.784,1.936,3.53,2.709,5.381,1.187,2.84.969,3.44-1.408,5.438.653,1.194,1.4,2.373,1.967,3.63,1.323,2.91.763,4.02-2.5,4.858.744.889,1.486,1.683,2.123,2.553,1.951,2.669,1.436,4.077-1.879,4.89,1.122,1.632,2.312,3.167,3.262,4.839a7.358,7.358,0,0,1,.391,2.539,8.554,8.554,0,0,1-2.553.023c-1.534-.463-2.979-1.213-4.483-1.787-.742-.284-1.532-.442-2.3-.657l-.3.534c.649.531,1.264,1.115,1.955,1.585,1.967,1.336,4.048,2.518,5.926,3.966a6.368,6.368,0,0,1,2.608,5.688c-.138,2.013-1.054,2.646-2.935,1.9-1.231-.488-2.369-1.206-3.56-1.8-.6-.3-1.231-.552-1.848-.825l-.558.539a8.506,8.506,0,0,0,1.683,2.017,47.281,47.281,0,0,0,5.535,3.009c1.893.867,2.245,2.233,1.8,4.28l-8.142-4.3-.614.687a10.956,10.956,0,0,0,1.964,2.129,43.909,43.909,0,0,0,5.36,2.891c1.826.827,2.177,2.143,1.788,4.213l-8.671-4.592-.557.666a17.1,17.1,0,0,0,1.744,1.913c1.894,1.551,4.018,2.858,5.734,4.579,1.588,1.592,3.319,3.442,1.461,6.058-.191.27.194,1.015.409,1.5,1.239,2.778.609,3.991-2.59,4.563.72.925,1.461,1.731,2.036,2.643,1.459,2.315,2.634,4.679.873,7.424-.217.339,0,1.03.148,1.514.377,1.2.955,2.346,1.234,3.563.478,2.078-.749,3.254-2.73,2.452a52.414,52.414,0,0,1-5.512-3c-.277-.153-.564-.285-.846-.428l-.322.437c.869.648,1.7,1.365,2.613,1.935,8.467,5.262,9.632,14.678,8.092,21.965-.389,1.84-.607,3.273.362,5.059a9.181,9.181,0,0,1,.734,4.855,3.613,3.613,0,0,1-1.793,2.7,4.414,4.414,0,0,1-3.469-.645c-2.385-1.711-2.7-4.275-2.058-6.994.14-.6.381-1.17.516-1.577-3.269-1.705-6.621-3.053-9.5-5.07-2.824-1.978-5.171-4.637-7.681-6.955-1.579,2.817.373,9.309,4.027,11.511a1.814,1.814,0,0,0,1.516.045c.286-.146.408-.841.394-1.284a5.1,5.1,0,0,0-.45-1.37c3.229-.355,6.187,3.408,4.941,6.2-.621,1.394-1.975,2.158-3.263,1.512-2.2-1.1-4.629-2.263-6.166-4.074-4.234-4.987-5.213-10.9-3.41-17.184,1.34-4.671,5.032-6.867,9.849-6.033A18.882,18.882,0,0,1,68,150.411c.473.5.927,1.017,1.389,1.526l.622-.361a39.713,39.713,0,0,0-3.084-5.325,19.975,19.975,0,0,0-3.884-3.172c-1.154-.865-2.252-1.364-3.8-.446a2.687,2.687,0,0,1-3.689-1.045,2.932,2.932,0,0,1-.025-2.478c.671-1.276,1.937-1.48,3.286-.923a4.272,4.272,0,0,0,.745.174c.158-.162.306-.245.339-.36.256-.892-.855-2.345.745-2.589.633-.1,1.465.885,2.155,1.44a21.007,21.007,0,0,0,2.387,2.033,5.429,5.429,0,0,0,2.5.548,2.207,2.207,0,0,0,.438-1.617,3.519,3.519,0,0,0-1.537-1.9,15.977,15.977,0,0,1-7.357-5.727,6.456,6.456,0,0,1-1.07-3.09c-.121-1.915,1.478-3,3.039-1.926a44.162,44.162,0,0,1,5.2,4.768,8.739,8.739,0,0,1,.96,1.345l.581-.136c-.163-.758-.092-1.712-.532-2.241a46.25,46.25,0,0,0-5.364-5.8c-1.9-1.621-3.929-3.093-4.384-5.67a57.1,57.1,0,0,1-.4-6.438l8.855,4.485.462-.678c-.92-.857-1.8-1.759-2.769-2.562-1.614-1.341-3.416-2.483-4.887-3.96-1.614-1.622-2.879-3.531-1.357-5.984a1.135,1.135,0,0,0-.038-.951c-.883-1.623-1.354-3.164-.151-4.924.25-.366-.6-1.359-.647-2.083-.074-1.043-.254-2.472.312-3.047.476-.483,2.066-.249,2.962.135,2.021.866,3.917,2.022,5.865,3.059l.609-.581a8.489,8.489,0,0,0-1.536-2.331c-1.831-1.393-3.88-2.5-5.725-3.877a9.853,9.853,0,0,1-3.021-3.034c-1.165-2.294.373-4.128,2.89-3.63,1.413.28,2.774.822,4.7,1.412C62,80.412,60.892,78.517,58.4,78.094a3.51,3.51,0,0,1-3.2-2.914c-.28-1.706.907-2.812,2.5-2.174,1.129.452,2.026,1.455,3.126,2.021a34.009,34.009,0,0,0,3.587,1.386l.524-.793a8.9,8.9,0,0,0-1.452-2.033c-2.25-1.774-4.563-3.474-6.914-5.114-1.719-1.2-1.854-1.374-1.361-3.643,2.09.965,4.141,2,6.268,2.84a6.236,6.236,0,0,0,2.306-.033,12.456,12.456,0,0,0-.319-2.384c-.531-1.6-1.643-2.3-3.415-2.542a27.182,27.182,0,0,1-14.362-6.922,8.382,8.382,0,0,1-2.035-2.882c-.787-1.806.2-3.315,2.114-2.937A22.664,22.664,0,0,1,52.837,52.4c2.99,1.764,5.616,4.138,8.452,6.177a7.748,7.748,0,0,0,2.1.725c.119-.76.537-1.631.3-2.26-.915-2.459-1.779-4.751-5.156-5.208a26.02,26.02,0,0,1-12.117-5.527A12.078,12.078,0,0,1,43.5,43.34c-.532-.835-.98-2.418-.555-2.994A3.749,3.749,0,0,1,46,39.327a12.844,12.844,0,0,1,4.938,1.627c3.192,1.992,6.182,4.308,9.268,6.473.641.45,1.341.816,2.014,1.221.316-.573,1.02-1.3.868-1.688a4.05,4.05,0,0,0-1.721-2.249,15.973,15.973,0,0,1-6.865-5.028A6.533,6.533,0,0,1,53.1,37.147c-.173-.914-.119-2.392.435-2.792a3.349,3.349,0,0,1,3.02-.146,19.17,19.17,0,0,1,3.729,3.318,24.931,24.931,0,0,1,1.9,2.461Zm6.471,123.005c1.305-3.519-.993-7.422-6.6-10.671-4.553-2.636-9.243-2.573-11.87.561,1.861,1.24,3.6,2.616,5.524,3.635C60.641,158.5,64.97,160.552,69.359,162.732ZM58.031,48.5a22.949,22.949,0,0,0-10.34-6.733c-.457-.149-1.053.127-1.585.206l-.127.684C49.318,45.868,53.523,47.453,58.031,48.5Zm.447,10.636c-2.756-3.762-9.319-7.1-11.834-5.9C50.071,56.532,54.179,58.011,58.478,59.132Zm2.12,56.315c-.75,3.086,3.163,6.2,6.673,5.56C66.425,117.445,63,117.289,60.6,115.447Zm.626,11.605-.56.561c.262,2.041,1.982,3.587,4.917,3.794ZM59.66,40.386c-.891-1.886-1.921-3.6-4.571-4.432C55.931,38.769,57.717,39.673,59.66,40.386ZM70.97,169.072l-.757.064a8.244,8.244,0,0,0-.652,2.5c.03.586.726,1.137,1.126,1.7.383-.561,1.083-1.126,1.076-1.681A9.234,9.234,0,0,0,70.97,169.072Z"/>
    <path d="M50.258,61.02a35.143,35.143,0,0,1,2.458,3.662,3.153,3.153,0,0,1-1.657,1.27c-1.229.161-2.884-1.564-2.611-2.663C48.6,62.661,49.308,62.169,50.258,61.02Z"/>
  </g>
  <circle class="cls-2" cx="989.37" cy="116.379" r="22.834"/>
  <circle class="cls-2" cx="989.479" cy="87.69" r="22.834"/>
  <path class="cls-3" d="M23.575,18.011c-9.726,2.187,1.91,157.687,0,165.752s1023.118-2.016,1040.313,0,2.866-156.266,3.821-165.339C1042.871,8.342,38.859,14.574,23.575,18.011Z"/>
  <text class="cls-4" transform="translate(113.369 123.87)">BACKSEAT</text>
  <path class="cls-5" d="M114.327,145.718c25.793,6.687,360.145-6.687,447.077-3.821s57.318,14.329,70.692,7.642"/>
  <path class="cls-5" d="M113.372,161.958c6.687-5.732,54.452,4.777,68.781.955S514.6,147.629,527.969,152.405s69.736,6.687,83.11,4.777"/>
  <g>
    <path d="M743.737,73.368h6.832l7.512,23.152h-5.472l-1.587-5.149h-8.386L741.05,96.52h-4.922Zm.033,14.279h6.119l-3.043-10Z"/>
    <path d="M760.835,79.585h4.695v3.238a5.561,5.561,0,0,1,5.472-3.5V83.7c-3.464-.032-5.472,1.1-5.472,4.339V96.52h-4.695Z"/>
    <path d="M773.853,74.729a2.674,2.674,0,1,1,2.655,2.557A2.566,2.566,0,0,1,773.853,74.729Zm.356,4.856h4.662V96.52h-4.662Z"/>
    <path d="M737.941,112.228h5.246v19.038h9.422v4.112H737.941Z"/>
    <path d="M754.3,127.121v-.259a8.406,8.406,0,0,1,8.71-8.806c4.371,0,8.257,2.557,8.257,8.612v1.295H759.055c.129,2.817,1.651,4.436,4.209,4.436,2.17,0,3.238-.939,3.529-2.364h4.436c-.55,3.659-3.464,5.7-8.1,5.7C758.019,135.734,754.3,132.528,754.3,127.121Zm12.4-2.039c-.162-2.559-1.457-3.789-3.691-3.789-2.105,0-3.529,1.393-3.886,3.789Z"/>
    <path d="M774.339,118.444h4.694v2.687a5.85,5.85,0,0,1,5.5-3.075c3.335,0,5.7,2.006,5.7,6.54v10.782h-4.694v-10.1c0-2.3-.907-3.4-2.98-3.4-2.006,0-3.529,1.23-3.529,3.724v9.778h-4.694Z"/>
    <path d="M794.254,118.444h4.694v2.687a5.85,5.85,0,0,1,5.5-3.075c3.335,0,5.7,2.006,5.7,6.54v10.782h-4.694v-10.1c0-2.3-.907-3.4-2.979-3.4-2.007,0-3.53,1.23-3.53,3.724v9.778h-4.694Z"/>
    <path d="M813.132,127.089v-.259c0-5.31,3.853-8.774,8.936-8.774s8.9,3.4,8.9,8.677v.259c0,5.343-3.853,8.742-8.937,8.742C816.985,135.734,813.132,132.367,813.132,127.089Zm13.081-.065V126.8c0-3.238-1.522-5.181-4.145-5.181-2.589,0-4.144,1.878-4.144,5.116v.259c0,3.237,1.49,5.181,4.144,5.181C824.691,132.173,826.213,130.229,826.213,127.024Z"/>
    <path d="M837.1,126.733l-5.407-8.289h5.374l3.173,5.083,3.109-5.083H848.2l-5.407,7.933,5.958,9h-5.407l-3.562-5.7-3.659,5.7H831.3Z"/>
  </g>
  <g>
    <path d="M1033.523,139.757l1.386,1.914-.971,0-1.446-1.986,0-.971,8.575-.029,0,1.043Z"/>
    <path d="M1038.946,136.667l0-1.008a1.585,1.585,0,0,0,1.35-1.779c0-1.367-1.135-2.167-3.414-2.184a2.513,2.513,0,0,1,1.147,2.215,2.7,2.7,0,0,1-2.8,2.828,2.739,2.739,0,0,1-2.876-2.953c-.007-2.027,1.357-3.086,3.828-3.095l.54,0c2.841-.009,4.417,1.161,4.424,3.212A2.522,2.522,0,0,1,1038.946,136.667Zm-3.6-4.87a1.944,1.944,0,0,0-2.177,1.987,2.025,2.025,0,0,0,4.042-.026A1.825,1.825,0,0,0,1035.345,131.8Z"/>
    <path d="M1040.8,129.712l-3.6-3.394a3.678,3.678,0,0,0-2.487-1.227,1.406,1.406,0,0,0-1.529,1.54c0,1,.569,1.642,1.913,1.805l0,.971a2.687,2.687,0,0,1-2.756-2.773,2.337,2.337,0,0,1,2.4-2.6,4.659,4.659,0,0,1,3.124,1.716l2.311,2.355-.014-4.137.852,0,.018,5.744Z"/>
    <path d="M1038.576,122.736a2.281,2.281,0,0,1-2.223-1.611,1.872,1.872,0,0,1-1.8,1.3,2.671,2.671,0,0,1-.042-5.265,1.949,1.949,0,0,1,1.815,1.313,2.264,2.264,0,0,1,2.2-1.65,2.689,2.689,0,0,1,2.576,2.941A2.717,2.717,0,0,1,1038.576,122.736Zm-4.045-4.52a1.586,1.586,0,0,0,.035,3.154,1.464,1.464,0,0,0,1.41-1.624A1.387,1.387,0,0,0,1034.531,118.216Zm3.969-.325a1.678,1.678,0,0,0-1.7,1.864,1.736,1.736,0,1,0,3.454.013A1.71,1.71,0,0,0,1038.5,117.891Z"/>
    <path d="M1033.239,111.776l.014,4.354-.839,0-.018-5.649h.143l8.442,3.186,0,1.068Z"/>
    <path d="M1032.383,106.833l-.005-1.367,8.566-2.93,0,1.031-2.468.848.012,3.538,2.474.819,0,.984Zm5.28.834-.011-2.974-4.408,1.5Z"/>
    <path d="M1038.326,101.713l0-1.007c1.019-.136,1.881-.547,1.876-2.274a1.747,1.747,0,0,0-1.626-1.949c-.971,0-1.378.448-1.636,2.08-.27,1.8-.831,2.869-2.353,2.874a2.49,2.49,0,0,1-2.336-2.75c-.006-1.715.83-2.786,2.353-2.958l0,.935c-1.079.207-1.521.832-1.517,2.02s.594,1.785,1.4,1.782c.84,0,1.271-.316,1.529-2.068.293-1.908.865-2.917,2.484-2.922a2.7,2.7,0,0,1,2.541,2.953C1041.046,100.72,1039.789,101.552,1038.326,101.713Z"/>
    <path d="M1032.339,93.705l-.007-2.267c-.01-2.95,1.808-4.347,4.194-4.355h.109c2.375-.008,4.262,1.353,4.272,4.351l.007,2.242Zm7.717-2.245c-.008-2.206-1.33-3.3-3.429-3.3h-.1c-1.978.006-3.367.97-3.359,3.333l0,1.163,6.885-.023Z"/>
    <path d="M1040.771,86.489l-.864,0a2.637,2.637,0,0,0,.236-1.14c0-.852-.484-1.39-1.635-1.386l-6.2.02,0-1.043,6.248-.021a2.2,2.2,0,0,1,2.442,2.367A2.432,2.432,0,0,1,1040.771,86.489Z"/>
    <path d="M1032.3,80.853l0-1.043,4.125-.014-4.149-3.716,0-1.163,4.186,3.8,4.4-4.021,0,1.26-4.172,3.839,4.185-.014,0,1.044Z"/>
    <path d="M1040.61,74.285l-3.6-3.394a3.676,3.676,0,0,0-2.488-1.227A1.405,1.405,0,0,0,1033,71.2c0,1,.569,1.642,1.913,1.805l0,.971a2.687,2.687,0,0,1-2.756-2.773,2.338,2.338,0,0,1,2.4-2.6,4.665,4.665,0,0,1,3.124,1.717l2.31,2.355-.014-4.138.852,0,.019,5.744Z"/>
  </g>
</svg>
