<svg xmlns="http://www.w3.org/2000/svg" viewBox="0 0 1100 200">
  <defs>
    <style>
      .cls-1 {
        fill: #fff;
        stroke-miterlimit: 10;
      }

      .cls-1, .cls-2, .cls-3, .cls-5 {
        stroke: #000;
      }

      .cls-1, .cls-3 {
        stroke-width: 5px;
      }

      .cls-2, .cls-3, .cls-5 {
        fill: none;
        stroke-linecap: round;
        stroke-linejoin: round;
      }

      .cls-2 {
        stroke-width: 6px;
      }

      .cls-4 {
        font-size: 109.895px;
        font-family: BrushScriptMT, Brush Script MT;
        font-style: italic;
      }

      .cls-5 {
        stroke-width: 4px;
      }

      .cls-6 {
        font-size: 32.382px;
        font-family: Graphik-Semibold, Graphik;
        font-weight: 700;
      }

      .cls-7 {
        letter-spacing: -0.01em;
      }

      .cls-8 {
        letter-spacing: 0em;
      }

      .cls-9 {
        letter-spacing: -0.04em;
      }

      .cls-10 {
        letter-spacing: 0em;
      }

      .cls-11 {
        font-size: 12px;
        font-family: Graphik-Regular, Graphik;
      }

      .cls-12 {
        letter-spacing: -0.01em;
      }

      .cls-13 {
        letter-spacing: -0.01em;
      }

      .cls-14 {
        letter-spacing: -0.03em;
      }

      .cls-15 {
        letter-spacing: 0em;
      }

      .cls-16 {
        letter-spacing: -0.015em;
      }

      .cls-17 {
        letter-spacing: -0.045em;
      }
    </style>
  </defs>
  <title>backseat</title>
  <g id="Frame">
    <path d="M1082.616,3A14.4,14.4,0,0,1,1097,17.384V182.616A14.4,14.4,0,0,1,1082.616,197H17.384A14.4,14.4,0,0,1,3,182.616V17.384A14.4,14.4,0,0,1,17.384,3H1082.616m0-3H17.384A17.384,17.384,0,0,0,0,17.384V182.616A17.384,17.384,0,0,0,17.384,200H1082.616A17.384,17.384,0,0,0,1100,182.616V17.384A17.384,17.384,0,0,0,1082.616,0Z"/>
  </g>
  <g id="Logos">
    <polygon class="cls-1" points="714.251 58.787 717.117 157.182 864.232 152.405 867.098 48.278 714.251 58.787"/>
    <g>
      <path d="M62.888,39.727a18.049,18.049,0,0,0-1.128-2.888c-.894-1.5-2.087-2.826-2.927-4.35-.919-1.665-1.248-3.48.255-5.065,1.309-1.381,3.128-1.5,5.217-.3a10.46,10.46,0,0,1,5.5,8.021c1.534,12.372,2.97,24.755,4.459,37.132,1.306,10.847,2.646,21.689,3.946,32.537q2.489,20.757,4.942,41.52c.672,5.635,1.9,11.064,6.209,15.6a8.22,8.22,0,0,0-4.964,6.639,83.12,83.12,0,0,0-.276,8.834,16.166,16.166,0,0,1-1.286-1.493A39.619,39.619,0,0,1,76.781,156.9q-1.116-17.824-2.385-35.639c-.924-13.065-1.848-26.131-2.9-39.186C70.258,66.718,68.9,51.369,67.548,36.021c-.221-2.507-1.089-4.9-3.227-6.365a3.9,3.9,0,0,0-3.353-.419c-1.355.731-.8,2.237-.067,3.329.818,1.218,1.846,2.294,2.688,3.5,1.683,2.405,3.138,4.858,1.557,7.959-.2.4.178,1.165.412,1.708,1.409,3.272,1.077,4.546-1.817,6.575.909,1.784,1.936,3.53,2.709,5.381,1.187,2.84.969,3.44-1.408,5.438.653,1.194,1.4,2.373,1.967,3.63,1.323,2.91.763,4.02-2.5,4.858.744.889,1.486,1.683,2.123,2.553,1.951,2.669,1.436,4.077-1.879,4.89,1.122,1.632,2.312,3.167,3.262,4.839a7.358,7.358,0,0,1,.391,2.539,8.554,8.554,0,0,1-2.553.023c-1.534-.463-2.979-1.213-4.483-1.787-.742-.284-1.532-.442-2.3-.657l-.3.534c.649.531,1.264,1.115,1.955,1.585,1.967,1.336,4.048,2.518,5.926,3.966a6.368,6.368,0,0,1,2.608,5.688c-.138,2.013-1.054,2.646-2.935,1.9-1.231-.488-2.369-1.206-3.56-1.8-.6-.3-1.231-.552-1.848-.825l-.558.539a8.506,8.506,0,0,0,1.683,2.017,47.281,47.281,0,0,0,5.535,3.009c1.893.867,2.245,2.233,1.8,4.28l-8.142-4.3-.614.687a10.956,10.956,0,0,0,1.964,2.129,43.909,43.909,0,0,0,5.36,2.891c1.826.827,2.177,2.143,1.788,4.213l-8.671-4.592-.557.666a17.1,17.1,0,0,0,1.744,1.913c1.894,1.551,4.018,2.858,5.734,4.579,1.588,1.592,3.319,3.442,1.461,6.058-.191.27.194,1.015.409,1.5,1.239,2.778.609,3.991-2.59,4.563.72.925,1.461,1.731,2.036,2.643,1.459,2.315,2.634,4.679.873,7.424-.217.339,0,1.03.148,1.514.377,1.2.955,2.346,1.234,3.563.478,2.078-.749,3.254-2.73,2.452a52.414,52.414,0,0,1-5.512-3c-.277-.153-.564-.285-.846-.428l-.322.437c.869.648,1.7,1.365,2.613,1.935,8.467,5.262,9.632,14.678,8.092,21.965-.389,1.84-.607,3.273.362,5.059a9.181,9.181,0,0,1,.734,4.855,3.613,3.613,0,0,1-1.793,2.7,4.414,4.414,0,0,1-3.469-.645c-2.385-1.711-2.7-4.275-2.058-6.994.14-.6.381-1.17.516-1.577-3.269-1.705-6.621-3.053-9.5-5.07-2.824-1.978-5.171-4.637-7.681-6.955-1.579,2.817.373,9.309,4.027,11.511a1.814,1.814,0,0,0,1.516.045c.286-.146.408-.841.394-1.284a5.1,5.1,0,0,0-.45-1.37c3.229-.355,6.187,3.408,4.941,6.2-.621,1.394-1.975,2.158-3.263,1.512-2.2-1.1-4.629-2.263-6.166-4.074-4.234-4.987-5.213-10.9-3.41-17.184,1.34-4.671,5.032-6.867,9.849-6.033A18.882,18.882,0,0,1,68,150.411c.473.5.927,1.017,1.389,1.526l.622-.361a39.713,39.713,0,0,0-3.084-5.325,19.975,19.975,0,0,0-3.884-3.172c-1.154-.865-2.252-1.364-3.8-.446a2.687,2.687,0,0,1-3.689-1.045,2.932,2.932,0,0,1-.025-2.478c.671-1.276,1.937-1.48,3.286-.923a4.272,4.272,0,0,0,.745.174c.158-.162.306-.245.339-.36.256-.892-.855-2.345.745-2.589.633-.1,1.465.885,2.155,1.44a21.007,21.007,0,0,0,2.387,2.033,5.429,5.429,0,0,0,2.5.548,2.207,2.207,0,0,0,.438-1.617,3.519,3.519,0,0,0-1.537-1.9,15.977,15.977,0,0,1-7.357-5.727,6.456,6.456,0,0,1-1.07-3.09c-.121-1.915,1.478-3,3.039-1.926a44.162,44.162,0,0,1,5.2,4.768,8.739,8.739,0,0,1,.96,1.345l.581-.136c-.163-.758-.092-1.712-.532-2.241a46.25,46.25,0,0,0-5.364-5.8c-1.9-1.621-3.929-3.093-4.384-5.67a57.1,57.1,0,0,1-.4-6.438l8.855,4.485.462-.678c-.92-.857-1.8-1.759-2.769-2.562-1.614-1.341-3.416-2.483-4.887-3.96-1.614-1.622-2.879-3.531-1.357-5.984a1.135,1.135,0,0,0-.038-.951c-.883-1.623-1.354-3.164-.151-4.924.25-.366-.6-1.359-.647-2.083-.074-1.043-.254-2.472.312-3.047.476-.483,2.066-.249,2.962.135,2.021.866,3.917,2.022,5.865,3.059l.609-.581a8.489,8.489,0,0,0-1.536-2.331c-1.831-1.393-3.88-2.5-5.725-3.877a9.853,9.853,0,0,1-3.021-3.034c-1.165-2.294.373-4.128,2.89-3.63,1.413.28,2.774.822,4.7,1.412C62,80.412,60.892,78.517,58.4,78.094a3.51,3.51,0,0,1-3.2-2.914c-.28-1.706.907-2.812,2.5-2.174,1.129.452,2.026,1.455,3.126,2.021a34.009,34.009,0,0,0,3.587,1.386l.524-.793a8.9,8.9,0,0,0-1.452-2.033c-2.25-1.774-4.563-3.474-6.914-5.114-1.719-1.2-1.854-1.374-1.361-3.643,2.09.965,4.141,2,6.268,2.84a6.236,6.236,0,0,0,2.306-.033,12.456,12.456,0,0,0-.319-2.384c-.531-1.6-1.643-2.3-3.415-2.542a27.182,27.182,0,0,1-14.362-6.922,8.382,8.382,0,0,1-2.035-2.882c-.787-1.806.2-3.315,2.114-2.937A22.664,22.664,0,0,1,52.837,52.4c2.99,1.764,5.616,4.138,8.452,6.177a7.748,7.748,0,0,0,2.1.725c.119-.76.537-1.631.3-2.26-.915-2.459-1.779-4.751-5.156-5.208a26.02,26.02,0,0,1-12.117-5.527A12.078,12.078,0,0,1,43.5,43.34c-.532-.835-.98-2.418-.555-2.994A3.749,3.749,0,0,1,46,39.327a12.844,12.844,0,0,1,4.938,1.627c3.192,1.992,6.182,4.308,9.268,6.473.641.45,1.341.816,2.014,1.221.316-.573,1.02-1.3.868-1.688a4.05,4.05,0,0,0-1.721-2.249,15.973,15.973,0,0,1-6.865-5.028A6.533,6.533,0,0,1,53.1,37.147c-.173-.914-.119-2.392.435-2.792a3.349,3.349,0,0,1,3.02-.146,19.17,19.17,0,0,1,3.729,3.318,24.931,24.931,0,0,1,1.9,2.461Zm6.471,123.005c1.305-3.519-.993-7.422-6.6-10.671-4.553-2.636-9.243-2.573-11.87.561,1.861,1.24,3.6,2.616,5.524,3.635C60.641,158.5,64.97,160.552,69.359,162.732ZM58.031,48.5a22.949,22.949,0,0,0-10.34-6.733c-.457-.149-1.053.127-1.585.206l-.127.684C49.318,45.868,53.523,47.453,58.031,48.5Zm.447,10.636c-2.756-3.762-9.319-7.1-11.834-5.9C50.071,56.532,54.179,58.011,58.478,59.132Zm2.12,56.315c-.75,3.086,3.163,6.2,6.673,5.56C66.425,117.445,63,117.289,60.6,115.447Zm.626,11.605-.56.561c.262,2.041,1.982,3.587,4.917,3.794ZM59.66,40.386c-.891-1.886-1.921-3.6-4.571-4.432C55.931,38.769,57.717,39.673,59.66,40.386ZM70.97,169.072l-.757.064a8.244,8.244,0,0,0-.652,2.5c.03.586.726,1.137,1.126,1.7.383-.561,1.083-1.126,1.076-1.681A9.234,9.234,0,0,0,70.97,169.072Z"/>
      <path d="M50.258,61.02a35.143,35.143,0,0,1,2.458,3.662,3.153,3.153,0,0,1-1.657,1.27c-1.229.161-2.884-1.564-2.611-2.663C48.6,62.661,49.308,62.169,50.258,61.02Z"/>
    </g>
    <circle class="cls-2" cx="989.37" cy="116.379" r="22.834"/>
    <circle class="cls-2" cx="989.479" cy="87.69" r="22.834"/>
    <path class="cls-3" d="M23.575,18.011c-9.726,2.187,1.91,157.687,0,165.752s1023.118-2.016,1040.313,0,2.866-156.266,3.821-165.339C1042.871,8.342,38.859,14.574,23.575,18.011Z"/>
    <text class="cls-4" transform="translate(113.369 123.87)">BACKSEAT</text>
    <path class="cls-5" d="M114.327,145.718c25.793,6.687,360.145-6.687,447.077-3.821s57.318,14.329,70.692,7.642"/>
    <path class="cls-5" d="M113.372,161.958c6.687-5.732,54.452,4.777,68.781.955S514.6,147.629,527.969,152.405s69.736,6.687,83.11,4.777"/>
    <text class="cls-6" transform="translate(735.448 96.519)">Ari<tspan class="cls-7"><tspan x="0" y="38.859">L</tspan><tspan class="cls-8" x="17.811" y="38.859">enn</tspan><tspan class="cls-9" x="76.648" y="38.859">o</tspan><tspan class="cls-10" x="95.3" y="38.859">x</tspan></tspan></text>
    <text class="cls-11" transform="matrix(-0.003, -1, 1, -0.003, 1041.087, 141.991)"><tspan class="cls-12">1</tspan><tspan x="4.668" y="0">9</tspan><tspan class="cls-13" x="12.108" y="0">2</tspan><tspan class="cls-14" x="18.636" y="0">8</tspan><tspan class="cls-15" x="25.56" y="0">7</tspan><tspan class="cls-16" x="31.86" y="0">A</tspan><tspan x="39.768" y="0">S</tspan><tspan class="cls-17" x="47.292" y="0">D</tspan><tspan x="55.104" y="0">JK2</tspan></text>
  </g>
</svg>
