<svg id="Logos" xmlns="http://www.w3.org/2000/svg" width="1100" height="200" viewBox="0 0 1100 200">
  <defs>
    <style>
      .cls-1, .cls-2, .cls-3 {
        fill: none;
        stroke: #000;
        stroke-width: 3px;
      }

      .cls-1, .cls-2 {
        stroke-miterlimit: 10;
      }

      .cls-2, .cls-3 {
        stroke-linecap: round;
      }

      .cls-3 {
        stroke-linejoin: round;
      }
    </style>
  </defs>
  <title>dreams</title>
  <path class="cls-1" d="M17.712,31.835c.846-9.532,10.258-9.421,25.969-7.972s646.331-4.77,658.556-6.287,366.936-2.41,370.815.489,11.126,153.646,5.328,158.719S33.3,186.93,26.778,181.132,16.619,44.156,17.712,31.835Z"/>
  <g>
    <path d="M702.629,52.715q4.984,0,6.766,1.566a5.886,5.886,0,0,1,2.065,3.7q0,.288.5,4.488T713.17,73.3q.711,6.624,1.638,14.957t1.922,17.021q1,8.691,1.923,17.022t1.639,14.886q.711,6.553,1.14,10.541t.426,4.13c.094.192-.167.452-.783.784a12.881,12.881,0,0,1-6.837.071,2.3,2.3,0,0,1-.926-.713c0-.093-.121-1.139-.356-3.134s-.5-4.176-.783-6.551-.548-4.559-.784-6.553-.356-3.134-.356-3.418c-.1-.663-.428-1-1-1H695.792c-.762,0-1.188.284-1.282.854,0,.192-.143,1.282-.428,3.277s-.569,4.179-.854,6.551-.547,4.583-.784,6.624-.356,3.112-.356,3.205a1.827,1.827,0,0,1-.926.855,9.409,9.409,0,0,1-3.632.427,10.444,10.444,0,0,1-3.561-.356c-.476-.238-.665-.5-.57-.784q0-.14.427-4.131t1.211-10.54q.783-6.55,1.71-14.886t1.923-17.092q.995-8.76,1.994-17.093T692.373,73.3q.711-6.622,1.211-10.683t.5-4.344a6.217,6.217,0,0,1,1.994-3.989Q697.786,52.715,702.629,52.715Zm6.267,71.078q1.139,0,.855-1.425,0-.139-.428-3.489t-1.068-8.618q-.641-5.268-1.424-11.68t-1.567-12.535q-.785-6.123-1.353-11.253t-.854-7.834q-.144-1.138-.286-1a2.465,2.465,0,0,0-.285,1q-.287,2.707-.925,7.834t-1.354,11.253q-.714,6.126-1.566,12.535t-1.5,11.68q-.64,5.271-1.069,8.689t-.427,3.561q0,1.281.855,1.282Z"/>
    <path d="M757.754,148.862q0,3.563-1.425,3.562h-24.5c-.854,0-1.282-.378-1.282-1.14V54.139c0-.285.356-.592,1.068-.926a8.406,8.406,0,0,1,3.348-.5,8.5,8.5,0,0,1,3.276.5q1.139.5,1.14,1.211v89.738c0,.666.235,1,.712,1h16.238Q757.751,145.159,757.754,148.862Z"/>
    <path d="M877.114,52.715q4.986,0,6.767,1.566a5.886,5.886,0,0,1,2.065,3.7q0,.288.5,4.488T887.655,73.3q.713,6.624,1.639,14.957t1.923,17.021q.995,8.691,1.923,17.022t1.637,14.886q.712,6.553,1.14,10.541t.428,4.13c.093.192-.167.452-.784.784a12.881,12.881,0,0,1-6.837.071A2.3,2.3,0,0,1,887.8,152q0-.14-.357-3.134t-.783-6.551q-.427-3.56-.783-6.553t-.356-3.418c-.1-.663-.427-1-1-1H870.277q-1.14,0-1.282.854c0,.192-.141,1.282-.427,3.277s-.57,4.179-.854,6.551-.548,4.583-.784,6.624-.356,3.112-.356,3.205a1.827,1.827,0,0,1-.926.855,9.416,9.416,0,0,1-3.632.427,10.444,10.444,0,0,1-3.561-.356q-.714-.357-.57-.784,0-.14.427-4.131t1.211-10.54q.781-6.55,1.709-14.886t1.923-17.092q.995-8.76,1.994-17.093t1.71-14.957q.711-6.622,1.21-10.683t.5-4.344a6.217,6.217,0,0,1,1.994-3.989Q872.272,52.715,877.114,52.715Zm6.268,71.078q1.14,0,.855-1.425,0-.139-.427-3.489t-1.069-8.618q-.642-5.268-1.425-11.68T879.75,86.046q-.784-6.123-1.354-11.253t-.854-7.834q-.144-1.138-.285-1a2.42,2.42,0,0,0-.284,1q-.288,2.707-.926,7.834t-1.354,11.253q-.714,6.126-1.567,12.535t-1.5,11.68q-.642,5.271-1.069,8.689t-.427,3.561q0,1.281.854,1.282Z"/>
    <path d="M935.23,52.715q4.273,0,3.846,1.566-.287,1-1,3.775T936.37,64.68q-1,3.844-2.208,8.4t-2.492,9.259q-2.851,10.969-6.268,24.072a5.046,5.046,0,0,0-.285,1.852v43.445c0,.284-.381.594-1.139.926a7.586,7.586,0,0,1-2.992.5,7.475,7.475,0,0,1-3.062-.5q-1.068-.5-1.069-1.211V107.555a4.394,4.394,0,0,0-.142-.712q-3.707-13.248-6.694-24.216-1.283-4.7-2.565-9.33t-2.35-8.475q-1.068-3.846-1.781-6.695t-1-3.846q-.426-1.566,3.847-1.566,4.13-.285,4.415,1l9.829,35.895q.282.714.569.142L925.829,71.8q2.138-7.833,4.985-17.948Q931.1,52.432,935.23,52.715Z"/>
    <path d="M975.967,73.8a7.6,7.6,0,0,1-3.205-.569c-.808-.379-1.211-.713-1.211-1v-6.98a4.939,4.939,0,0,0-1.069-3.275,4.3,4.3,0,0,0-3.489-1.283h-7.407a3.953,3.953,0,0,0-3.419,1.567,6.36,6.36,0,0,0-1.139,3.846V78.069a14.111,14.111,0,0,0,1.852,7.194,32.711,32.711,0,0,0,4.7,6.2q2.848,2.991,6.125,5.982a57.761,57.761,0,0,1,6.125,6.552,33.868,33.868,0,0,1,4.7,7.906,25.075,25.075,0,0,1,1.852,9.9v18.375q0,6.41-3.134,9.33t-9.259,2.92h-9.259q-6.126,0-9.258-2.778t-3.134-9.044v-6.981q0-.426,1-1.068a6.663,6.663,0,0,1,3.419-.641q4.274,0,4.273,1.709V140.6a4.737,4.737,0,0,0,1.139,3.275,4.528,4.528,0,0,0,3.562,1.282h7.264a3.95,3.95,0,0,0,3.418-1.566,6.36,6.36,0,0,0,1.14-3.847V121.371a14.108,14.108,0,0,0-1.852-6.908,41.236,41.236,0,0,0-4.7-6.694q-2.852-3.347-6.054-6.553t-6.053-6.552a40.781,40.781,0,0,1-4.7-6.7,14.085,14.085,0,0,1-1.851-6.908V65.677q0-6.411,3.134-9.33t9.258-2.92h9.259q6.123,0,9.259,2.777t3.134,9.045v6.98Q980.383,73.8,975.967,73.8Z"/>
    <path d="M760.1,53.427l18.208,99.709,29.88-99.709s25.424,101.618,27.323,99.709,21.754-99.709,21.754-99.709Z"/>
  </g>
  <line class="cls-2" x1="1028.922" y1="59.995" x2="1049.164" y2="59.995"/>
  <line class="cls-2" x1="1028.922" y1="69.053" x2="1053.229" y2="69.053"/>
  <line class="cls-2" x1="1028.922" y1="78.111" x2="1049.164" y2="78.111"/>
  <line class="cls-2" x1="1028.922" y1="87.168" x2="1045.632" y2="87.168"/>
  <line class="cls-2" x1="1028.922" y1="105.284" x2="1045.632" y2="105.284"/>
  <line class="cls-2" x1="1028.922" y1="114.342" x2="1045.632" y2="114.342"/>
  <line class="cls-2" x1="1028.922" y1="123.4" x2="1048.152" y2="123.4"/>
  <line class="cls-2" x1="1028.922" y1="132.458" x2="1045.632" y2="132.458"/>
  <line class="cls-2" x1="1028.922" y1="141.516" x2="1048.152" y2="141.516"/>
  <line class="cls-2" x1="1028.922" y1="96.226" x2="1041.075" y2="96.226"/>
  <path class="cls-3" d="M327.807,82.9a40.326,40.326,0,0,0-25.387,8.953,44.913,44.913,0,0,0-76.24,27.163,22.536,22.536,0,0,0-18.5-4.165,44.459,44.459,0,1,0-78.169-18.01,36.16,36.16,0,0,0-32.554,10.325,27.176,27.176,0,1,0-10.105,29.062,36.233,36.233,0,0,0,72.269-3.77c0-1.033-.054-2.054-.139-3.066a44.5,44.5,0,0,0,33.041-2.078A22.557,22.557,0,0,0,232.5,147.2a44.913,44.913,0,0,0,70.355,8.087A40.5,40.5,0,1,0,327.807,82.9Z"/>
  <path class="cls-3" d="M470.169,60.421a27.047,27.047,0,0,0-16.1,5.288,36.233,36.233,0,0,0-72.269,3.77c0,1.033.054,2.054.139,3.065a44.5,44.5,0,0,0-33.041,2.079,22.557,22.557,0,0,0-40.484-19.89,44.913,44.913,0,0,0-70.355-8.087,40.463,40.463,0,0,0-48.816-.824,44.443,44.443,0,0,1,18.437,69.029,22.653,22.653,0,0,1,4.763-.509,22.41,22.41,0,0,1,11.552,3.2q1.26-.351,2.487-.78A44.913,44.913,0,0,1,302.42,91.853a40.464,40.464,0,0,1,12.015-6.683c.117-.744.218-1.493.3-2.249a22.837,22.837,0,0,0,2.189,1.469,40.5,40.5,0,0,1,34.752,71.725A44.45,44.45,0,0,0,411.406,105.1,36.172,36.172,0,0,0,443.96,94.771a27.174,27.174,0,1,0,26.209-34.35Z"/>
  <path d="M383.53,65.479h6.721a1,1,0,0,1,.991.993V90.2a1,1,0,0,1-.991.991H383.6a1,1,0,0,1-.991-.991V78.812L379.931,84.1a1.541,1.541,0,0,1-.661.678,1.831,1.831,0,0,1-.882.24h-2.5a1.573,1.573,0,0,1-1.029-.331,1.738,1.738,0,0,1-.514-.587l-2.681-5.289V90.2a1,1,0,0,1-.992.991h-6.647a1,1,0,0,1-.992-.991V66.472a1,1,0,0,1,.992-.993h6.721a1.726,1.726,0,0,1,1.579.993l4.811,8.814,4.812-8.814A1.725,1.725,0,0,1,383.53,65.479Z"/>
  <path d="M418.952,77.553a6.3,6.3,0,0,1,2.553,5.479q0,3.654-3.71,5.924t-9.842,2.27q-6.135,0-9.531-2.239t-3.4-5.512q0-.8.845-.8H403.4a1.742,1.742,0,0,1,1.249.452,5.287,5.287,0,0,0,3.562.937q3.49,0,3.49-1.028,0-.639-1.1-1.011a24.839,24.839,0,0,0-4.37-.727q-10.395-1.206-10.394-7.7a6.839,6.839,0,0,1,3.342-5.906q3.34-2.251,8.943-2.253a15.442,15.442,0,0,1,9.053,2.423q3.451,2.421,3.453,5.118a.752.752,0,0,1-.239.582.912.912,0,0,1-.643.219h-7.9a1.672,1.672,0,0,1-1.139-.416,3.946,3.946,0,0,0-2.645-.764q-2.46,0-2.46.994,0,.531.955.834a24.588,24.588,0,0,0,3.819.62Q416.4,75.726,418.952,77.553Z"/>
  <path d="M458.121,65.479h25.342a1,1,0,0,1,.992.993v5.912a1,1,0,0,1-.992.992h-7.9V90.2a1,1,0,0,1-.991.991h-7.566a1,1,0,0,1-.991-.991V73.376h-7.9a1,1,0,0,1-.992-.992V66.472a1,1,0,0,1,.992-.993Z"/>
  <path d="M515.671,76.15v4.369a9.685,9.685,0,0,1-6.646,9.669,24.227,24.227,0,0,1-14.031,0,9.938,9.938,0,0,1-4.811-3.51,10.158,10.158,0,0,1-1.836-6.231V76.221q0-5.407,3.8-8.092a19.44,19.44,0,0,1,19.723,0Q515.67,70.814,515.671,76.15Zm-17.408-.594v5.556a2.576,2.576,0,0,0,1.01,2.188,4.43,4.43,0,0,0,2.736.763,4.358,4.358,0,0,0,2.737-.781,2.625,2.625,0,0,0,1.009-2.2V75.591a2.626,2.626,0,0,0-1.009-2.2,4.364,4.364,0,0,0-2.737-.782,4.437,4.437,0,0,0-2.736.764A2.577,2.577,0,0,0,498.263,75.556Z"/>
  <path d="M537.891,65.479h6.831a1,1,0,0,1,.991.993V90.2a1,1,0,0,1-.991.991h-5.913a1.778,1.778,0,0,1-1.469-.771l-8.007-10.21V90.2a1,1,0,0,1-.991.991H521.51a1,1,0,0,1-.991-.991V66.472a1,1,0,0,1,.991-.993h5.95a1.713,1.713,0,0,1,1.433.735L536.9,77.269v-10.8a1,1,0,0,1,.992-.993Z"/>
  <path d="M576.087,73.009h-6.648v10.65h6.648a1,1,0,0,1,.992.992V90.2a1,1,0,0,1-.992.991H552.8a1,1,0,0,1-.992-.991V84.651a1,1,0,0,1,.992-.992h6.72V73.009H552.8a1,1,0,0,1-.992-.992V66.472a1,1,0,0,1,.992-.993h23.284a1,1,0,0,1,.992.993v5.545a1,1,0,0,1-.992.992Z"/>
  <path d="M582.992,65.479h25.342a1,1,0,0,1,.991.993v5.912a1,1,0,0,1-.991.992h-7.9V90.2a1,1,0,0,1-.993.991H591.88a1,1,0,0,1-.992-.991V73.376h-7.9a1,1,0,0,1-.992-.992V66.472a1,1,0,0,1,.992-.993Z"/>
  <path d="M624.126,84.026H638.78a1,1,0,0,1,.991.993V90.2a1,1,0,0,1-.991.991H615.568a1,1,0,0,1-.991-.991V66.472a1,1,0,0,1,.991-.993h22.845a1,1,0,0,1,.991.993v5.177a1,1,0,0,1-.991.993H624.126v2.313h12.267a1,1,0,0,1,.992.991v4.776a1,1,0,0,1-.992.991H624.126Z"/>
  <path d="M240.052,91.106a45,45,0,0,1,9.909-7.08H249V72.642h3.342a4.192,4.192,0,0,1,2.736.826,2.844,2.844,0,0,1,1.01,2.332v5.068a3.734,3.734,0,0,1-.045.508,44.684,44.684,0,0,1,9.778-2.213v-2.7a10.484,10.484,0,0,0-1.837-6.317,9.937,9.937,0,0,0-4.811-3.6,20.819,20.819,0,0,0-7.014-1.066H240.442a1,1,0,0,0-.991.993V90.2a.949.949,0,0,0,.294.7A1.016,1.016,0,0,0,240.052,91.106Z"/>
  <path d="M296.344,86.828,293.55,81.6q3.856-2.241,3.856-7.236a7.932,7.932,0,0,0-2.938-6.5,12.274,12.274,0,0,0-7.97-2.388H272.211a1,1,0,0,0-.991.993V78.883A44.671,44.671,0,0,1,296.344,86.828ZM281.136,72.311h4.591a1.443,1.443,0,0,1,1.267.606,2.414,2.414,0,0,1,.422,1.414,2.029,2.029,0,0,1-.44,1.34,1.532,1.532,0,0,1-1.249.533h-4.591Z"/>
  <path d="M303.3,91.171a40.361,40.361,0,0,1,15.026-7.145h-6.38V81.713h12.267a1,1,0,0,0,.992-.991V75.946a1,1,0,0,0-.992-.991H311.949V72.642h14.287a1,1,0,0,0,.992-.993V66.472a1,1,0,0,0-.992-.993H303.392a1,1,0,0,0-.992.993V90.2a.978.978,0,0,0,.9.974Z"/>
  <path d="M346.3,87.369h4.217l.919,2.57a1.687,1.687,0,0,0,1.652,1.249h6.941a.777.777,0,0,0,.57-.238.675.675,0,0,0,.239-.46,1.127,1.127,0,0,0-.037-.33L352.79,66.691a1.54,1.54,0,0,0-1.653-1.212h-10.21a1.539,1.539,0,0,0-1.653,1.212L333.6,83.319A40.217,40.217,0,0,1,346.3,87.369Zm-.263-14.8,2.607,7.639h-5.215Z"/>
</svg>
