<svg id="Logos" xmlns="http://www.w3.org/2000/svg" viewBox="0 0 1100 200">
  <title>lose</title>
  <g>
    <path d="M906.365,99.072q.046-.537-3.228-2.053a77.3,77.3,0,0,1-9.242-6.7q.147,1.077.293,2.25a84.675,84.675,0,0,1,2.446,15.99l8.166.244q6.161-.586,7.09-2.787Q912.331,101.861,906.365,99.072Z"/>
    <path d="M408.671,124.464a91.788,91.788,0,0,0,13.28-54.139c-.886-14-7.391-24.526-20.873-29.818a46.144,46.144,0,0,0-31.4-1.2c-13.389,4.173-22.2,12.729-23.621,26.933-.835,8.349-1.034,17.129.624,25.28,3.153,15.5,6.176,31.514,20.644,41.618.5.349.836,1.918.54,2.217-.6.6-1.968,1.247-2.514.949a40.775,40.775,0,0,1-6.46-4.335,32.505,32.505,0,0,1-3.675-4.3c-3.131,3.372-3.027,6.771-.974,9.63,1.9,2.649,4.836,4.537,7.137,6.93a20.769,20.769,0,0,1,2.369,3.82c-1.561-.121-3.516.312-4.609-.465-3.4-2.422-6.478-5.3-9.874-8.168-3.36,1.7-3.2,5.066-1.767,7.7,1.979,3.639,4.361,7.543,7.6,9.927,15.7,11.542,32.7,12.154,50.2,4.45,6.315-2.78,11.5-7.055,14.258-13.634,1.358-3.242,1.834-6.475-1.463-8.385-3.935,3.167-7.463,6.175-11.215,8.873-.692.5-2.286-.262-3.464-.441.477-1.062.7-2.393,1.478-3.135,2.516-2.389,5.671-4.222,7.765-6.905,2.359-3.023,2.8-6.668-.618-10.124a38.548,38.548,0,0,1-3.532,4.054,36.864,36.864,0,0,1-5.96,4.357c-.72.406-2.071-.306-3.134-.506.459-1.074.673-2.376,1.422-3.181C403.383,129.725,406.8,127.572,408.671,124.464ZM388.873,80.7c5.133-2.645,10.521-4.451,16.423-3.3,6.049,1.182,8.961,4.017,8.589,8.164-.38,4.247-4.263,6.846-11.327,6.818a20.722,20.722,0,0,1-14.229-6.342C386.434,84.012,386.246,82.057,388.873,80.7Zm-6.27,26.255c1.281-.164,3.886.857,3.914,1.465.293,6.238.18,12.494.18,18.746l-1.27.081-.987-7.9-1.476-.037-1.185,8.091-1.614-.028q0-3.488,0-6.976c0-3.509-.2-7.035.1-10.518C380.353,108.789,381.675,107.076,382.6,106.957Zm-24.43-15.548c-1.924-1.678-4.251-3.985-4.463-6.212-.189-1.985,1.773-4.92,3.635-6.208,4.813-3.33,17.338-1.779,21.712,2.064,1.957,1.719,1.378,3.3-.066,4.893-4.228,4.657-9.723,6.237-16.573,6.538C361.464,92.273,359.322,92.411,358.173,91.409Zm6.4,29.124-1.208-1.094c0-6.069-.11-12.141.137-18.2.031-.765,2-2.112,2.959-2.014,1.27.129,3.412,1.354,3.462,2.208a97.284,97.284,0,0,1-.1,16.1C369.693,118.712,366.406,119.544,364.574,120.533Zm1.894,33.07c11.756,5.218,22.6,5.408,33.967.012C392.669,164.266,376,164.38,366.468,153.6Zm34.052-12.988a21.491,21.491,0,0,1-33.139.557C378.3,145.99,389.051,145.818,400.52,140.615Zm-3.527-23.854c.084-2.489.019-4.982.024-7.473,0-2.345-.332-4.759.139-7,.257-1.229,2.136-3.2,2.833-3.03,1.438.358,3.561,1.844,3.663,3.017.415,4.8.2,9.657.168,14.493-.015,2.5-1.546,3.095-3.785,3.149C397.686,119.97,396.92,118.94,396.993,116.761Z"/>
    <path d="M1077.027,19.005c-13.269,0-855.034-4.147-896.5-1.659S12.965,12.125,13,20.664c.83,186.6,9.123,154.254,20.733,160.889s1015.923,4.976,1031.681,4.976,9.951-3.318,12.439-46.443S1090.3,19.005,1077.027,19.005ZM95.068,153.276a19.963,19.963,0,0,0-.5,3.752,5.237,5.237,0,0,0,.334,1.5c.222.776-.057,1.167-.834,1.167H73.391a.768.768,0,0,1-.833-.5,2.92,2.92,0,0,1-.334-1.334v-1.668a6.929,6.929,0,0,1,.084-1.167,6.689,6.689,0,0,1,.416-1.334l-.166.167L82.9,113.34a8.026,8.026,0,0,0,.166-1.834q0-2.833-3.5-3.168c-.667,0-.891-.334-.667-1L83.563,85.66c0-.443.276-.667.833-.667a5.7,5.7,0,0,0,4.586-2.084q1.751-2.084,3.752-9.422a36.738,36.738,0,0,0,1.5-8.17q0-3-3.5-3h-4.5L60.885,159.029c-.224.443-.5.667-.834.667H39.375q-1.169,0-.834-1L69.556,39.638q.333-.666.834-.667H96.9q11.005,0,16.675,3.168t5.669,11.672a31.129,31.129,0,0,1-.417,4.919,52.183,52.183,0,0,1-1.25,5.586L113.911,78.49a39.921,39.921,0,0,1-1.834,5.252A28.684,28.684,0,0,1,109.159,89a21.67,21.67,0,0,1-4.252,4.5,17.368,17.368,0,0,1-5.67,3q6.336,2.5,6.337,11.338a49.956,49.956,0,0,1-2,12.34L96.9,146.023Q95.566,150.861,95.068,153.276ZM152.1,137.352l-6.5,21.677c-.224.443-.5.667-.834.667H102.238q-1.168,0-.833-1l35.85-119.058c.222-.444.5-.667.834-.667H180.61q1.165,0,.834,1l-6.67,21.677c-.224.446-.5.667-.834.667H152.763l-6.67,22.678H165.77q1.164,0,.833,1l-6.67,21.677c-.224.445-.5.667-.833.667H138.923l-8.338,28.014h20.677Q152.427,136.352,152.1,137.352ZM239.805,159.7H220.3q-1.168,0-.834-1l26.847-89.211L208.123,159.2a.985.985,0,0,1-.834.5H186.612q-1.168,0-.834-1l16.008-90.211-27.347,90.544c-.224.443-.5.667-.834.667H154.1q-1.168,0-.834-1L189.113,39.638q.333-.666.834-.667H222.8q1.166,0,.834,1l-16.841,86.376,35.183-86.876a.768.768,0,0,1,.834-.5h32.849q1.166,0,.834,1L240.638,159.029C240.415,159.472,240.138,159.7,239.805,159.7ZM309.669,39.971l-35.85,119.058c-.224.443-.5.667-.834.667H252.308q-1.168,0-.833-1l35.85-119.058c.222-.444.5-.667.834-.667h20.677Q310,38.971,309.669,39.971ZM739.225,76.285l11.688-.44L743.675,89.39,738.3,98.045l-13.545,1.321-.245-.343.049-.684q5.183-4.449,10.465-14.621l.391-.343Q737.906,77.558,739.225,76.285Zm-170.9,0,11.687-.44L572.771,89.39l-5.379,8.655-13.545,1.321-.245-.343.049-.684q5.183-4.449,10.465-14.621l.391-.343Q567,77.558,568.321,76.285ZM416.3,126a3.8,3.8,0,0,1,1.3,2.238c.619,4.291,2.916,7.442,5.571,10.813,1.58,2,1.775,6.6.556,8.994-2.38,4.672-5.492,9.49-9.527,12.711-17.427,13.907-46.286,12.976-63.176-1.5-4.579-3.925-8.165-8.636-8.28-14.882a10.236,10.236,0,0,1,2.6-6.993A12.225,12.225,0,0,0,349.151,130c.436-2.292,2.133-4.345,3.492-6.925-5.63-10.934-9.795-22.981-10.895-35.744a100.985,100.985,0,0,1,.522-24c2.054-13.174,10.237-22.084,22.627-26.869a50.5,50.5,0,0,1,34.414-1.032c16.622,5.313,25.953,17.676,26.869,35.1.92,17.494-2.8,33.989-10.3,49.708C414.888,122.319,413.947,124.166,416.3,126ZM491.988,111.3l-.1,6.015-.245,6.161h-2.934l-.342.049-.391-.342a21.067,21.067,0,0,0-6.015,2.054v-.294l-.391-.342-.343-5.086.294-1.76-.391-.294.195-2v-.392l-.342-.342.293-1.027q-.2-2.934-.391-5.721l-1.711-16.528q-.734-5.135-1.663-9.584-1.075-7.042-3.667-10.416V71.15l3.814.392q7.53-.1,7.579,2.249A105.392,105.392,0,0,1,491.6,104.5l.391,1.027-.342.049.44,1.271-.195,1.761v.342l.342.342Zm-1.565-22.689.049-.636,8.754-1.858,2.053.244.294.392.391-.294.978.1.342.342.342.049.343-.244.293.293-.049.342-8.753,2.152-2.4-.587Zm169.829,18.973-2.641.586-1.906.147A66.346,66.346,0,0,0,625.338,120.1l-4.939,4.255-8.851-.93q-.636-.048-.538-1.124l.391-.245c.061-.979.105-1.9.136-2.764q-8.121,9.078-29.915,24.476-9.487,4.988-10.465,8.166l-.684-.1-9.634-2.738.1-.636-.146-2.1q4.888-10.318,5.721-17.848A17.323,17.323,0,0,0,563.92,117.9l-4.01-1.419v.294l-.978-.44.1-.978q.048-.537,10.9-2.934a13.523,13.523,0,0,1,7.824,6.993,29.441,29.441,0,0,1,.391,8.948,30.974,30.974,0,0,1-4.4,12.225q6.112-3.325,14.719-12.176,14.816-13.985,16.87-20.44l.1-.342q-.342-1.369-2.983-1.663l-1.662-.2-2.1.1-.245-.343-.342-.049a299.627,299.627,0,0,0-40.391,6.259q-33.2,11.883-41.272,11.052-2.934-.342-3.863-2.152l-.391-.1.391-3.375.881-1.907c.016-.049.038-.1.055-.15-.1.1-.193.2-.3.3a10.816,10.816,0,0,1-9.145,2.1q-6.894-.732-10.22-10.024a13.716,13.716,0,0,1-.391-5.819q.537-4.743,5.33-8.411l.342.1q5.477,3.033,5.282,5.33l-2.69,5.575q-.489,4.792,4.3,7.971,2.788-1.272,2.1-6.651-2.005-8.7-6.895-12.714-4.6-1.857-4.5-2.543.05-.537,9.487-2.347l.685.049q9.389,5.673,10.9,13.105l.391,2.788h-.342a13.7,13.7,0,0,1-.265,4.32c.273-.343.555-.691.852-1.045q.636-2.541,14.621-14.816,17.505-15.257,18.729-15.159l12.42-.734-.1,1.077q-3.327.489-22.1,14.327Q526.8,104.5,522.551,110.417l-.049.685q.195,1.026,1.858,1.222a39.546,39.546,0,0,0,14.572-1.516l.294.342.342.049q37.848-7.578,53.154-9.682l11.589.2,1.712.146,3.4.835c-.427-1.168-1.179-2.853-2.278-5.089l-3.472.343-.489-1.81.391-.244.049-.392-.049-3.08.049-.294.783-.635.293.391q5.624.636,22.347-3.765,14.621-5.135,16.186-7.531l3.472,5.868-.049.685a72.029,72.029,0,0,1-31.2,9.633l-.049.733,2.25,4.3.684.1q17.6-6.357,21.565-5.917l3.325,3.765v.342q-.344.538-10.22,2.3l-13.79,4.059a31.818,31.818,0,0,0,1.663,6.65q11.295-6.747,31.2-9.633l5.525-.782Q661.084,103.523,660.252,107.581ZM789.4,111.3l-.1,6.015-.245,6.161H786.12l-.342.049-.391-.342a21.091,21.091,0,0,0-6.015,2.054v-.294l-.391-.342-.11-1.638q-8.683,8.33-26.345,20.807-9.487,4.988-10.464,8.166l-.685-.1-9.633-2.738.1-.636-.146-2.1q4.888-10.318,5.721-17.848a17.323,17.323,0,0,0-2.592-10.611l-4.01-1.419v.294l-.978-.44.1-.978q.047-.537,10.9-2.934a13.52,13.52,0,0,1,7.824,6.993,29.441,29.441,0,0,1,.391,8.948,30.974,30.974,0,0,1-4.4,12.225q6.112-3.325,14.719-12.176,14.817-13.985,16.87-20.44l.1-.342q-.342-1.369-2.983-1.663l-1.662-.2-2.1.1-.244-.343-.343-.049a299.653,299.653,0,0,0-40.391,6.259q-33.2,11.883-41.271,11.052-2.934-.342-3.864-2.152l-.391-.1.391-3.375.881-1.907a25.726,25.726,0,0,1,4.988-8.069q.635-2.541,14.621-14.816,17.5-15.257,18.728-15.159l12.421-.734-.1,1.077q-3.325.489-22.1,14.327-15.209,12.617-19.462,18.533l-.049.685q.195,1.026,1.859,1.222a39.541,39.541,0,0,0,14.571-1.516l.294.342.342.049q37.85-7.578,53.154-9.682l11.589.2,1.712.146.756.186-1.1-10.6q-.734-5.135-1.663-9.584-1.074-7.042-3.667-10.416V71.15l3.814.392q7.53-.1,7.579,2.249a105.392,105.392,0,0,1,6.357,30.709l.391,1.027-.342.049.44,1.271-.2,1.761v.342l.342.342Zm121.321,1.516-10.172-.1-3.716.49a171.914,171.914,0,0,1-.245,19.853l-3.813-1.027h-4.842l.05-7.922a93.214,93.214,0,0,0-.459-15.742A66.287,66.287,0,0,0,857.514,120.1l-4.939,4.255-8.851-.93q-.636-.048-.538-1.124l.391-.245q.781-12.615-1.711-12.861l-.727-.6A66,66,0,0,0,812.673,120.1l-4.939,4.255-8.851-.93q-.636-.048-.538-1.124l.391-.245q.781-12.615-1.711-12.861l-2.837-2.347.049-.391q.049-.487,2.886-1.369l.048-.685q.148-1.026-2.689-6.8l-3.472.343-.489-1.81.391-.244.049-.392-.049-3.08.049-.294.783-.635.293.391q5.623.636,22.347-3.765Q829,82.985,830.57,80.588l3.472,5.868-.049.685a72.029,72.029,0,0,1-31.2,9.633l-.049.733,2.25,4.3.684.1q17.6-6.357,21.565-5.917l3.325,3.765v.342q-.344.538-10.22,2.3l-13.79,4.059a31.818,31.818,0,0,0,1.663,6.65q11.3-6.747,31.2-9.633l2.337-.331a49.14,49.14,0,0,0-2.435-5.537l-3.472.343-.489-1.81.391-.244.049-.392-.049-3.08.049-.294.782-.635.294.391q5.622.636,22.347-3.765,14.62-5.135,16.186-7.531l3.472,5.868-.049.685a72.029,72.029,0,0,1-31.2,9.633l-.049.733,2.249,4.3.685.1q17.6-6.357,21.564-5.917l3.326,3.765v.342q-.343.538-10.22,2.3l-13.79,4.059a31.872,31.872,0,0,0,1.662,6.65q11.3-6.747,31.2-9.633l2.521-.357a114.54,114.54,0,0,0-6.531-23.163v-.245a76.606,76.606,0,0,0-3.129-7.041l.048-.685q.393-3.276,10.318-3.325,3.276.342,4.206,5.623l.44.049q7.872,13.155,29.242,27.09a15.065,15.065,0,0,1,4.6,5.282Q925.386,111.738,910.717,112.813Zm89.505.032c10.732-9.331,24.555-19.314,29.473-13.88,3.342,3.694-.6,11.091-6,16.175-1.28,1.2-2.636,2.468-4.018,3.756-4.5,4.2-11.344,10.573-14.522,14.26,1.441-.563,2.925-1.161,4.407-1.759,11.109-4.476,16.545-6.5,18.71-3.657,1.641,2.156-.266,5.229-2.347,7.951-3.168,4.143-6.988,8.246-10.057,11.542-1.707,1.833-3.69,3.962-4.931,5.486a2,2,0,0,1-.2,3.82,8.388,8.388,0,0,1-2.014.3,2.8,2.8,0,0,1-2.6-1.29c-1.344-2.278,1.044-4.843,6.815-11.041,3.167-3.4,6.757-7.258,9.807-11.247a17.745,17.745,0,0,0,1.857-2.829c-2.635.278-9.091,2.88-13.546,4.675-1.609.649-3.221,1.3-4.778,1.9-1.763.686-5.048,1.964-6.421-.224-1.646-2.622.909-5.735,17.091-20.817,1.377-1.283,2.728-2.543,4-3.743,5.155-4.853,6.54-9.729,5.772-10.578-.7-.774-6.81-.631-23.882,14.214-13.238,11.512-15.545,10.657-16.785,10.2a2.713,2.713,0,0,1-1.76-2.227c-.819-5.532,16.231-25.714,31.452-37.233,11.568-8.754,14.17-14.526,13.884-16.557a.813.813,0,0,0-.6-.748c-1.646-.635-6.42.352-12.813,5.68-3.21,2.675-7.807,5.933-10.677,3.317-4.842-4.414,4.175-22.618,8.42-28.792a2,2,0,0,1,3.3,2.266c-4.768,6.936-10.42,20.72-9.061,23.477.416-.038,1.934-.4,5.462-3.342,6.487-5.406,12.928-7.836,16.813-6.338a4.821,4.821,0,0,1,3.117,3.922c.7,4.954-4.927,12.355-15.431,20.3-14.55,11.011-26.554,26.1-29.309,31.739C990.619,120.553,994,118.255,1000.222,112.845Zm55.947,43.094h-10v-1h10Zm0-3.012h-10v-2.013h10Zm0-4.025h-10v-2.013h10Zm0-4.025h-10v-2.013h10Zm0-4.025h-10v-2.013h10Zm0-4.025h-10v-2.013h10Zm0-4.025h-10V130.79h10Zm0-4.025h-10v-2.012h10Zm0-4.025h-10V122.74h10Zm0-4.024h-10v-2.013h10Zm0-4.025h-10V114.69h10Zm0-4.025h-10v-2.013h10Zm0-4.025h-10V106.64h10Zm0-4.025h-10v-2.013h10Zm0-4.025h-10V98.59h10Zm0-4.025h-10V94.565h10Zm0-4.025h-10V90.541h10Zm0-4.025h-10V86.516h10Zm0-4.025h-10V82.491h10Zm0-4.024h-10V78.466h10Zm0-4.025h-10V74.441h10Zm0-4.025h-10V70.416h10Zm0-4.025h-10V66.391h10Zm0-4.025h-10V62.366h10Zm0-4.025h-10V58.341h10Zm0-4.025h-10v-1h10Z"/>
  </g>
</svg>
