<svg id="Logos" xmlns="http://www.w3.org/2000/svg" width="1100" height="200" viewBox="0 0 1100 200">
  <title>morning</title>
  <path d="M478.3,152.311a86.224,86.224,0,0,1,16.634-24.785l-59.782-111.6c-45.764-.154-90.332-.239-132.263-.246Z"/>
  <path d="M822.523,18.745c-49.508-.585-103.337-1.1-158.9-1.538L607.91,117.6a86.584,86.584,0,0,1,22.576,24.456Z"/>
  <path d="M610.455,16.818c-34.612-.235-69.568-.437-104.275-.6l8.912,95.71a86.112,86.112,0,0,1,73.349-5.016Z"/>
  <g>
    <path d="M123.671,93.457l-.522,19.835q0,2.988.095,4.46A28.057,28.057,0,0,0,126.518,114l1.518-8.4a7.273,7.273,0,0,0,.143-1.518,21.163,21.163,0,0,0-.95-5.647Q125.9,93.885,123.671,93.457Z"/>
    <path d="M106.8,122.947q-.119-3.44-.4-6.453t-.735-6.666a51.656,51.656,0,0,0-1.187-6.5,47.166,47.166,0,0,0-1.708-5.338,10.3,10.3,0,0,0-2.42-3.843,4.267,4.267,0,0,0-2.871-1.353,3.065,3.065,0,0,0-2.349,1,8.045,8.045,0,0,0-1.566,2.823,39.968,39.968,0,0,0-1.138,3.914,35.4,35.4,0,0,0-.759,4.817q-.262,2.728-.451,4.959-.142,2.183-.237,4.84-.1,4.412-.143,6.879v.427a107.021,107.021,0,0,0,1,14.022q1,7.521,2.064,12.313a31.65,31.65,0,0,0,2.871,8.138q1.8,3.345,4.033,3.346,1.944,0,3.274-3.655a39.594,39.594,0,0,0,1.9-9.11q.948-9.679.972-13.595t0-5.717Q106.92,126.388,106.8,122.947Z"/>
    <path d="M471.9,174.284,190.6,15.88c-100.9.425-169.314,1.54-172.079,3.536-5.648,4.078-.752,153.606,5.385,162.524,2.749,4,214.042,5.405,447.037,5.3,0-.035,0-.07,0-.105A86.838,86.838,0,0,1,471.9,174.284ZM79.305,163.731q-1.235,1.709-2.372,1.708-2.373,0-2.373-3.843l-.379-40.9v-4.934q-.666,3.75-2.99,13.12A143.535,143.535,0,0,0,68.2,143.232v.618c-.064.254-.159.853-.285,1.8s-.261,1.733-.4,2.349a16.389,16.389,0,0,1-.641,2.064,3.1,3.1,0,0,1-2.989,2.278q-3.465,0-3.464-9.063,0-8.967-4.365-25.1-2.184-8.065-2.8-10.913-.191,7.782-.19,11.719l.807,39.953a5.169,5.169,0,0,1-1.471,3.654q-2.516,0-3.393-1.613a9.163,9.163,0,0,1-.878-4.366l.475-15.753-.332-37.628q0-6.31.142-12.574l2.7-1.518q2.894.191,6.6,15.468,2.989,12.481,4.84,22.42t2.041,10.8q.663-3.132,2.467-11.2t2.7-12.526a169.558,169.558,0,0,0,3.274-23.2v-.57a2.983,2.983,0,0,1,1.186-1.993,3.4,3.4,0,0,1,2.088-.76,2.263,2.263,0,0,1,1.779.783,2.516,2.516,0,0,1,.688,1.685q0,11.627.878,34.828t.878,34.829A6.708,6.708,0,0,1,79.305,163.731Zm32.076-30.178-.854,12.29v.427a26.217,26.217,0,0,0-.617,5.835,17.143,17.143,0,0,1-1.091,6.05,14.5,14.5,0,0,1-3.322,5.173,6.773,6.773,0,0,1-4.887,2.254,7.419,7.419,0,0,1-4.84-1.8,14.152,14.152,0,0,1-3.606-4.626,37.186,37.186,0,0,1-2.515-6.738,68.613,68.613,0,0,1-1.685-7.64q-.594-3.723-.972-7.852-.57-6.31-.546-9.8t-.024-5.978q-.046-2.493-.094-4.485v-4.792q.045-2.8.166-5.029t.426-4.817a39.674,39.674,0,0,1,.784-4.555A24.434,24.434,0,0,1,88.985,93.6a12.966,12.966,0,0,1,1.9-3.179,7.055,7.055,0,0,1,5.456-2.752,11.478,11.478,0,0,1,5.267,1.114,9.278,9.278,0,0,1,3.678,3.583q1.494,2.469,2.61,4.792a23.89,23.89,0,0,1,1.755,6.478q.64,4.152,1.02,6.714a69.58,69.58,0,0,1,.522,7.45q.189,6.5.19,10.154ZM139,159.508q0,3.273-.759,3.82a2.723,2.723,0,0,1-1.613.545q-1.8,0-3.512-2.609v-.332q-.474-8.826-6.073-26.715-2.562-8.162-3.559-12.1v38.292a4.189,4.189,0,0,1-.522,2.279,2.09,2.09,0,0,1-1.9.806,2.6,2.6,0,0,1-2.064-.783,2.807,2.807,0,0,1-.688-1.922v-.759l.379-56.988V91.085a2.235,2.235,0,0,1,.475-1.613A4.035,4.035,0,0,1,121.654,89a9.523,9.523,0,0,1,4.081.973,10.627,10.627,0,0,1,3.488,2.586,19.19,19.19,0,0,1,2.372,3.8,20.363,20.363,0,0,1,1.9,8.778A30.6,30.6,0,0,1,131.121,116q-.285.664-1.139,2.8t-1,2.515q.048,7.212,3.654,18.743,1.233,3.889,3.511,10.652T139,159.271Zm33.4-68a6.524,6.524,0,0,0-.569,2.847l-.617,35.919v29.7a5.817,5.817,0,0,1-.807,2.9,2.327,2.327,0,0,1-1.993,1.424q-2.04,0-7.972-20t-11.72-43.013v31.886q0,4.65.688,13.855t.689,13.856a1.731,1.731,0,0,1-1.092,1.5,5.784,5.784,0,0,1-2.776.593q-1.684,0-1.684-1.519l.474-6.974q0-5.03-.617-16.324t-.616-13.807V111.963l.664-17.841v-.617q0-4.84,2.135-4.84,1.945,0,5.22,9.016,5.978,16.37,14.33,54.046l.094.474.38-33.88V89.566a2.919,2.919,0,0,1,3.179-2.42q2.609,0,2.61,3.8Zm22.3,69.325-2.42,1.66-6.6.237q-8.4,0-8.4-2.894,0-2.323,2.942-2.325l2.04.142q1.425,0,1.424-2.277,0-7.5-.9-22.468t-.9-22.468l.19-9.917a53.148,53.148,0,0,0-.238-5.409,7.3,7.3,0,0,1-2.277.427,2.034,2.034,0,0,1-2.278-2.324,2.478,2.478,0,0,1,1.471-2.065,10.68,10.68,0,0,1,3.654-1.258,39.122,39.122,0,0,1,6.05-.711,4.126,4.126,0,0,1,2.823.783,2.432,2.432,0,0,1,.854,1.85,2.828,2.828,0,0,1-.641,1.851,2.019,2.019,0,0,1-1.636.783l-1.709-.048a2.055,2.055,0,0,0-1.4.4,2.121,2.121,0,0,0-.45,1.589q0,9.492,1.186,28.423t1.186,28.422v3.749a14.071,14.071,0,0,1,1.993-.142q4.032,0,4.034,3.417Zm33.167-69.325a6.538,6.538,0,0,0-.569,2.847l-.617,35.919v29.7a5.806,5.806,0,0,1-.807,2.9,2.327,2.327,0,0,1-1.993,1.424q-2.04,0-7.971-20t-11.721-43.013v31.886q0,4.65.688,13.855t.689,13.856a1.729,1.729,0,0,1-1.092,1.5,5.78,5.78,0,0,1-2.775.593q-1.686,0-1.685-1.519l.475-6.974q0-5.03-.618-16.324t-.616-13.807V111.963l.664-17.841v-.617q0-4.84,2.135-4.84,1.945,0,5.22,9.016,5.979,16.37,14.33,54.046l.095.474.379-33.88V89.566a2.919,2.919,0,0,1,3.179-2.42q2.609,0,2.61,3.8Zm33.049,73.31a3.12,3.12,0,0,1-3.2-2.04v-.094q-.57.237-2.135,1.09a12.06,12.06,0,0,1-5.836,1.614,10.956,10.956,0,0,1-4.176-.854,13.205,13.205,0,0,1-6.833-5.932,27.849,27.849,0,0,1-3.369-8.446q-.807-4.032-1.091-6.358-.333-2.371-.522-5.409-.238-3.844-.237-9.253l-.048-7.165a102,102,0,0,1,.617-13.476q.617-4.08,1.258-6.69a30.526,30.526,0,0,1,1.494-4.626,25.2,25.2,0,0,1,2.088-3.915,12.077,12.077,0,0,1,2.847-3.179A12.281,12.281,0,0,1,249.7,87.36q4.459.025,4.461,2.776a2.03,2.03,0,0,1-.76,1.661,2.771,2.771,0,0,1-1.8.617l-2.8-.475q-3.654.048-5.741,4.413a32.673,32.673,0,0,0-2.847,9.11q-.617,4.318-.9,6.976a51.577,51.577,0,0,0-.475,5.931q-.189,4.6-.142,9.2l-.048,6.027a72.632,72.632,0,0,0,.831,13.238,41.751,41.751,0,0,0,1.732,6.264,13.206,13.206,0,0,0,2.087,3.89q4.033,3.086,7.07,3.464,4.319,0,7.165-4.081-.141-8.636-1.566-11.1l-3.8.379q-3.322,0-3.322-2.752,0-2.372,6.263-3.084a23.918,23.918,0,0,1,2.705-.142,3.019,3.019,0,0,1,2.515,1.518,7.055,7.055,0,0,1,1.044,4.057,56.389,56.389,0,0,0,.973,8.28,57.5,57.5,0,0,1,.972,7.735Q263.316,164.822,260.92,164.822Z"/>
  </g>
  <path d="M915.31,75.328q1.479-.77,2.386-4.018a20.13,20.13,0,0,0,.909-4.973,24.815,24.815,0,0,0-.093-2.54,9.79,9.79,0,0,0-.4-1.8,2.811,2.811,0,0,0-2.833-2.125l-.215.894q0,2.587.123,7.467T915.31,75.328Z"/>
  <path d="M936.726,79.1q-.261-3.4-.755-7.913t-.676-6.543Q932.43,80.5,931.6,87q1.078.708,5.574,1.016a18.912,18.912,0,0,1-.185-3.218Q936.988,82.5,936.726,79.1Z"/>
  <path d="M829.722,157.263a12.206,12.206,0,0,0,1.416,5.85,5.213,5.213,0,0,0,4.927,2.956,7.709,7.709,0,0,0,2.494-.524,5.705,5.705,0,0,0,2.125-1.17,47.081,47.081,0,0,1-7.636-19.428A22.47,22.47,0,0,0,829.722,157.263Z"/>
  <path d="M834.926,138.664a32.572,32.572,0,0,0,3.11-4.772,10.028,10.028,0,0,0,1.509-4.172,7.038,7.038,0,0,0-1.017-3.264q-1.015-1.863-2.017-1.863t-1.677,1.54v3.356l.092,8.467Z"/>
  <path d="M1081.547,25.381c-1.616-2.067-73.972-4-180.243-5.59l-265.132,133.2a85.823,85.823,0,0,1,7.041,33.91c229.542-.774,435.644-2.772,438.334-4.964C1087.627,176.986,1087.741,33.309,1081.547,25.381ZM988.532,57.808h7.513q2.556,0,2.555,1.324a1.431,1.431,0,0,1-.553,1.077,1.849,1.849,0,0,1-1.263.494h-3.233q.246,2.584.246,5.85l-.338,12.039.307,13.395v1.878l-.031,1.755h.832l1.817-.062q2.586,0,2.586,1.57a1.779,1.779,0,0,1-.631,1.37,2.118,2.118,0,0,1-1.462.571h-2.772a31.9,31.9,0,0,1-3.664-.124,6.4,6.4,0,0,1-.77.061q-2.247,0-2.247-1.416a1.893,1.893,0,0,1,.369-1.108,1.113,1.113,0,0,1,.739-.555h1.786l.123-.831L990.01,81.7l.338-14.041q0-3.6-.307-6.774h-1.2l-1.448.062a2.559,2.559,0,0,1-1.447-.355,1.5,1.5,0,0,1-.523-1.339Q985.422,57.808,988.532,57.808ZM851.046,168.24a5.49,5.49,0,0,1-2.326.416,10.581,10.581,0,0,1-6.1-2.371,11.9,11.9,0,0,1-6.543,2.4,7.959,7.959,0,0,1-5.066-1.616,11.353,11.353,0,0,1-4.218-8.345,31.872,31.872,0,0,1,.17-3.51q.168-1.524.323-2.6a14.585,14.585,0,0,1,.692-2.633q.54-1.554.785-2.233.246-.707,1.109-2.525,1.109-2.279,2.525-5.08l-.431-8.652v-5.235a4.713,4.713,0,0,1,1.109-3.433,4.211,4.211,0,0,1,3.14-1.124,6.485,6.485,0,0,1,4.095,1.693,5.025,5.025,0,0,1,2.064,3.973,17.411,17.411,0,0,1-1.279,6.82,22.711,22.711,0,0,1-3.833,5.988,8.349,8.349,0,0,1-.585.894,4.387,4.387,0,0,0-1.016,2.124q0,2.742,2.325,9.853t3.987,8.868a27.779,27.779,0,0,0,1.971-11.146v-.277q-.462,0-.585-.185c-.082-.123-.139-.205-.17-.246a1.967,1.967,0,0,1-.153-.323c-.072-.175-.119-.282-.139-.324v-1.6a23.635,23.635,0,0,0,7.144-.8q1.785.369,1.786,1.663,0,1.725-3.3,1.724l-.185-.03h-1.57q0,10.068-2.587,13.486a5.548,5.548,0,0,0,4,1.94l2.556-.185,1.17.955A1.668,1.668,0,0,1,851.046,168.24ZM874,124.516a2.089,2.089,0,0,1-1.355.446l-2.248-.123a5.039,5.039,0,0,0-.646.031,66.057,66.057,0,0,1,.43,7.759l-.123,8.129.555,14.5.523,11.331q0,3.081-1.817,3.079a1.62,1.62,0,0,1-1.539-.985,4.808,4.808,0,0,1-.493-2.186l.493-10.069q0-3.263-.432-9.822t-.43-9.823l.092-5.511q0-4.527-.584-5.881l-3.418.339a2.3,2.3,0,0,1-1.432-.478,1.474,1.474,0,0,1-.632-1.231q0-.755,1.509-1.279a16.608,16.608,0,0,1,3.7-.8,58.066,58.066,0,0,1,6.374-.431,2.18,2.18,0,0,1,1.4.508,1.575,1.575,0,0,1,.631,1.278A1.478,1.478,0,0,1,874,124.516Zm16.335,44.217a2.371,2.371,0,0,1-1.479.508q-.816,0-1.308-1.2a12.126,12.126,0,0,1-.662-3.555q-.169-2.357-.231-4.08-.03-.739,0-1.694,0-1.293.031-2.956.06-2.925.062-3.387v-.247l.092-1.816-.37-.585v-.061a4.978,4.978,0,0,1-1.139.123l-4.065-.585v7.235l.37,10.377a2.8,2.8,0,0,1-.461,1.586,1.5,1.5,0,0,1-1.325.692q-1.261,0-1.74-2.294a32.26,32.26,0,0,1-.476-6.265l.184-9.608a26.944,26.944,0,0,0-.093-3.294v-.308q.246-3.3.246-3.695l-.43-14.225a1.878,1.878,0,0,1,.523-1.309,1.654,1.654,0,0,1,1.263-.57q2,0,2,3.757l-.246,15.734a14.26,14.26,0,0,0,3.448.308h2.279a6.852,6.852,0,0,0,.154-2.032q0-1.755-.415-7.713t-.416-8.976a1.5,1.5,0,0,1,.554-1.185,1.647,1.647,0,0,1,1.047-.478,2.835,2.835,0,0,1,.8.093,6.785,6.785,0,0,1,.678.246,5.569,5.569,0,0,0,.585.216q0,8.192.6,23.94T891,167.7A1.378,1.378,0,0,1,890.335,168.733Zm14.733.908a4.025,4.025,0,0,1-1.878.431h-5.327a2.286,2.286,0,0,1-1.509-.57,1.835,1.835,0,0,1-.708-1.37v-1.663l-.4-10.653.431-18.413-.338-5.327q0-4.466,2.647-4.465a18.98,18.98,0,0,1,4.619.785q2.925.785,2.925,2.016,0,1.294-1.848,1.971a24.8,24.8,0,0,0-4.772-1.2q.092,1.355.093,2.709l-.278,9.053c0,.042.062.369.185.985l2.248-.092q3.048,0,3.048,1.724a1.561,1.561,0,0,1-.554,1.185,1.992,1.992,0,0,1-1.4.508,14.845,14.845,0,0,1-1.832-.123h-1.6q.185,2.4.185,4.773l-.278,11.423a19.235,19.235,0,0,0,.123,3.542l4.65-.154q2.4,0,2.4,1.539A1.452,1.452,0,0,1,905.068,169.641Zm-1.3-93.513q0,3.42.6,10.254t.6,10.284l-.155.4a3.139,3.139,0,0,1,.123.969,1.421,1.421,0,0,1-.585,1.094,2.309,2.309,0,0,1-1.539.492q-1.818,0-1.816-4.033,0-6-.632-22.693t-1.277-17.675q.029-3.262,4.465-3.479.677-.03,1.832-.031a3.305,3.305,0,0,1,1.816.431,1.96,1.96,0,0,1,.662,1.756q0,1.324-1.755,1.323l-1.54-.061q-1.755,0-1.755.709,0,2.925.462,8.575t.492,8.359a10.39,10.39,0,0,0,1.079-.246,10.226,10.226,0,0,1,2.371-.431,1.6,1.6,0,0,1,1.277.6,2.021,2.021,0,0,1,.508,1.34Q909,76.129,903.763,76.128Zm9.946,23.988-.831-.924q.061-2.834.061-6.359T912.4,77.761q-.538-11.547-.539-17.243,0-2.986,2.094-2.987a8.843,8.843,0,0,1,5.543,1.724,5.843,5.843,0,0,1,2.248,4.927v4.434a7.929,7.929,0,0,1-.678,3.31q-.678,1.493-1.57,3.141t-.986,1.832q.339,1.539,1.2,6.035,1.846,9.822,4.094,14.133a4.572,4.572,0,0,1,.647,1.925,1.8,1.8,0,0,1-.385,1.169,1.259,1.259,0,0,1-1.031.478q-1.325,0-2.54-3.033a38.125,38.125,0,0,1-1.956-6.729q-2.247-11.3-2.741-12.439h-.769l-.062,6.836a56.606,56.606,0,0,0,1.2,13.147l-.709,1.695Zm12.39,68.709a1.29,1.29,0,0,1-.955.539,3.68,3.68,0,0,1-1.138-.216,5.232,5.232,0,0,1-1.2.124l-2.032-.093a2.025,2.025,0,0,1-1.616.77,2.34,2.34,0,0,1-1.632-.6,1.834,1.834,0,0,1-.662-1.4l.4-2.772q0-7.174-.63-21.508T916,122.161a1.121,1.121,0,0,1,.462-.939,1.9,1.9,0,0,1,2.417.169,1.686,1.686,0,0,1,.569,1.293l.646,22.693.062,2v.278q.246,5.481.247,16.442v1.6h4.8q1.355.924,1.355,1.754A2.031,2.031,0,0,1,926.1,168.825Zm15.041-.647a2.115,2.115,0,0,1-1.462.57h-2.771a31.9,31.9,0,0,1-3.664-.124,6.434,6.434,0,0,1-.771.062q-2.247,0-2.247-1.416a1.9,1.9,0,0,1,.369-1.109,1.114,1.114,0,0,1,.74-.554h1.786l.123-.831-.432-13.4.339-14.04q0-3.6-.307-6.774h-1.2l-1.447.061a2.557,2.557,0,0,1-1.447-.354,1.506,1.506,0,0,1-.524-1.339q0-1.448,3.111-1.447h7.512q2.558,0,2.556,1.324a1.429,1.429,0,0,1-.554,1.077,1.847,1.847,0,0,1-1.262.493h-3.234q.246,2.586.246,5.851l-.338,12.039.308,13.394v1.878l-.031,1.755h.832l1.816-.061q2.588,0,2.587,1.57A1.782,1.782,0,0,1,941.14,168.178Zm1.205-69.818a1.7,1.7,0,0,1-1.046,1.786,4.124,4.124,0,0,1-2.064-.431,1.761,1.761,0,0,1-.738-1.663,47.684,47.684,0,0,0-.924-7.79l-6.22-.924a31.337,31.337,0,0,0-.893,4.588,35.582,35.582,0,0,1-.585,3.634q-.553,2.34-2.063,2.34a2.218,2.218,0,0,1-1.37-.478,1.463,1.463,0,0,1-.632-1.216l.155-.554a268.572,268.572,0,0,0,6.312-31.961q.061-.431.185-2.526.308-4.619,1.17-5.88h2.125a2.805,2.805,0,0,1,1.508.4,1.32,1.32,0,0,1,.647,1.2,116.412,116.412,0,0,0,1.277,14.257,115.706,115.706,0,0,1,1.279,13.609l.676,3.88a27.033,27.033,0,0,0,.6,3.757,25.956,25.956,0,0,1,.6,3.91Zm18.118,64.907a5.694,5.694,0,0,1-2.171,4.788,8.047,8.047,0,0,1-5.066,1.678,6.844,6.844,0,0,1-6.342-3.264,12.8,12.8,0,0,1-1.787-4.356q-.369-2.049-.523-3.157a29.507,29.507,0,0,1-.215-2.987q-.125-2.616-.124-4.218v-2.71q0-8.9.524-11.254a44.088,44.088,0,0,1,1.2-4.387,8.945,8.945,0,0,1,1.663-3.141,7.113,7.113,0,0,1,5.48-2.71q3.111,0,3.111,1.6a1.476,1.476,0,0,1-.617,1.216,2.207,2.207,0,0,1-1.385.477l-1.325-.154q-2.186,0-3.293,4.31a59.765,59.765,0,0,0-1.6,14.872,56.886,56.886,0,0,0,.385,8.176,31.348,31.348,0,0,0,.846,3.741,8.692,8.692,0,0,0,1.047,2.463A4.327,4.327,0,0,0,954,166.439q3.048,0,3.049-10.038v-2.9a3.314,3.314,0,0,0-1.478-.246l-1.232.03q-2.186,0-2.186-1.447a1.57,1.57,0,0,1,.631-1.354,2.51,2.51,0,0,1,1.524-.462v.031h.863q5.664,0,5.665,1.939l-.677,4.588Zm1.6-63.522a1.222,1.222,0,0,1-1.016-.446,3.5,3.5,0,0,1-.57-1.37,6.538,6.538,0,0,0-.369-1.231l.03-.278q0-2.338-4.526-14.872t-6.559-17.243V96.051q.061.123.247.431a2.51,2.51,0,0,1,.4,1.263,1.7,1.7,0,0,1-.569,1.169,1.811,1.811,0,0,1-1.339.585q-2.064,0-2.064-3.848l-.123-21.616.369-11.762a5.507,5.507,0,0,1,2.31-4.65v.4a.877.877,0,0,1,.462-.154q1.477,0,3.7,5.1a95.19,95.19,0,0,1,4,11.194q1.783,6.1,3.556,12.3t2.2,7.283q1.261-13.211,1.263-31.993l-.093-1.693q0-1.878,1.57-1.879a1.467,1.467,0,0,1,1.34.739,3.28,3.28,0,0,1,.446,1.725v4.772q-.063,7.422-.662,19.815t-1.617,13.994A9.964,9.964,0,0,1,962.067,99.745Zm15.284,68.988a2.366,2.366,0,0,1-1.478.508q-.816,0-1.309-1.2a12.131,12.131,0,0,1-.661-3.555q-.17-2.357-.231-4.08-.032-.739,0-1.694,0-1.293.031-2.956.06-2.925.061-3.387v-.247l.092-1.816-.369-.585v-.061a4.987,4.987,0,0,1-1.14.123l-4.064-.585v7.235l.37,10.377a2.792,2.792,0,0,1-.462,1.586,1.5,1.5,0,0,1-1.324.692q-1.263,0-1.74-2.294a32.168,32.168,0,0,1-.477-6.265l.185-9.608a27.185,27.185,0,0,0-.093-3.294v-.308q.246-3.3.246-3.695l-.431-14.225a1.875,1.875,0,0,1,.524-1.309,1.651,1.651,0,0,1,1.263-.57q2,0,2,3.757l-.246,15.734a14.27,14.27,0,0,0,3.449.308h2.279a6.908,6.908,0,0,0,.153-2.032q0-1.755-.415-7.713t-.416-8.976a1.5,1.5,0,0,1,.555-1.185,1.647,1.647,0,0,1,1.047-.478,2.84,2.84,0,0,1,.8.093,6.774,6.774,0,0,1,.677.246,5.653,5.653,0,0,0,.585.216q0,8.192.6,23.94t.6,16.273A1.375,1.375,0,0,1,977.351,168.733Zm-.288-68.7a8.594,8.594,0,0,1-2.325-.908q-4.188-2.709-4.187-14.81l-.032-3.7V79.116q0-9.3.924-12.933,1.109-4.5,3.079-6.22a9.768,9.768,0,0,1,6.775-2.4,2.032,2.032,0,0,1,1.463.462,1.489,1.489,0,0,1,.476,1.108,1.857,1.857,0,0,1-.385,1.154,1.263,1.263,0,0,1-.969.54h-2.956a2.7,2.7,0,0,0-2.249,1.663,13.132,13.132,0,0,0-1.354,4.064,42.668,42.668,0,0,0-.77,7.543v.309l-.277,12.162a22.784,22.784,0,0,0,.416,5.327,14.424,14.424,0,0,0,.862,2.387,5.194,5.194,0,0,0,1.062,1.493,5.043,5.043,0,0,0,3.634,1.354,1.982,1.982,0,0,0,1.354-.553,2.6,2.6,0,0,1,1.324.337,1.13,1.13,0,0,1,.585,1.047q0,2.494-3.479,2.494A11.5,11.5,0,0,1,977.063,100.038Zm16.592,30.636a2.372,2.372,0,0,1-1.447.478l-2.894-.431-.124.647q0,5.973,1.048,17.889t1.047,17.92a1.683,1.683,0,0,1-.678,1.31,2.247,2.247,0,0,1-1.478.569l-1.17-.831-.123-4.835q0-.03.092-2.155-.247-.8-1-14.226t-.816-16.412h-.246q-5.111-.092-5.111-1.878a1.12,1.12,0,0,1,.677-.97,2.679,2.679,0,0,1,1.325-.384l8.559.585,1.017-.032q1.97,0,1.97,1.509A1.476,1.476,0,0,1,993.655,130.674Zm11.978,35.333a7.37,7.37,0,0,1-2.448,2.818,6.408,6.408,0,0,1-3.618,1.124v.154q-2.586-.369-2.833-2.433l.708-1.078,2.617.462a2.682,2.682,0,0,0,2.094-1.047,6.679,6.679,0,0,0,1.324-2.617,20.383,20.383,0,0,0,.831-5.342,14.3,14.3,0,0,0-.769-4.6,23.7,23.7,0,0,0-1.894-4.234q-1.125-1.955-2.232-3.988a19.429,19.429,0,0,1-2.648-9.422,12.435,12.435,0,0,1,.954-5.018q1.786-4.065,4.743-4.065a3.592,3.592,0,0,1,2.108.708,1.951,1.951,0,0,1,1,1.539q0,1.449-1.539,1.447a2.637,2.637,0,0,1-1.324-.369q-2,.093-2.71,4.465a14.161,14.161,0,0,0-.154,2.233,11.559,11.559,0,0,0,.554,3.156,15.184,15.184,0,0,0,1.4,3.341q.846,1.461,1.816,3.232t1.832,3.434a18.8,18.8,0,0,1,1.939,8.806A15.49,15.49,0,0,1,1005.633,166.007Zm4.792-69.679a7.375,7.375,0,0,1-2.448,2.817,6.408,6.408,0,0,1-3.618,1.124v.154q-2.586-.369-2.833-2.432l.708-1.079,2.617.462a2.681,2.681,0,0,0,2.094-1.046,6.691,6.691,0,0,0,1.324-2.618,20.376,20.376,0,0,0,.831-5.341,14.309,14.309,0,0,0-.769-4.6,23.659,23.659,0,0,0-1.894-4.233q-1.125-1.956-2.232-3.989a19.426,19.426,0,0,1-2.648-9.422,12.439,12.439,0,0,1,.954-5.018q1.787-4.065,4.743-4.065a3.6,3.6,0,0,1,2.108.708,1.953,1.953,0,0,1,1,1.54q0,1.447-1.539,1.447a2.637,2.637,0,0,1-1.324-.369q-2,.092-2.71,4.464a14.161,14.161,0,0,0-.154,2.233,11.559,11.559,0,0,0,.554,3.156,15.184,15.184,0,0,0,1.4,3.341q.846,1.462,1.816,3.232t1.832,3.434a18.8,18.8,0,0,1,1.939,8.807A15.493,15.493,0,0,1,1010.425,96.328Zm55.512,65.125h-18.261v-6.781h18.261Zm0-12.249h-18.261v-6.781h18.261Zm0-12.249h-18.261v-6.781h18.261Zm0-21.23h-18.261v-75.9h18.261Z"/>
  <g>
    <path d="M1052.637,105.038a1.145,1.145,0,0,1,.233-.779.973.973,0,0,1,.763-.265h6.311a1.029,1.029,0,0,1,.786.265,1.1,1.1,0,0,1,.247.779v.78a1.166,1.166,0,0,1-.235.786.957.957,0,0,1-.762.27h-6.311a1.016,1.016,0,0,1-.786-.27,1.127,1.127,0,0,1-.246-.786Zm1-.3a.427.427,0,0,0-.277.09.363.363,0,0,0-.107.294v.624a.331.331,0,0,0,.132.288.529.529,0,0,0,.323.1h6.276a.4.4,0,0,0,.277-.1.366.366,0,0,0,.107-.288v-.624a.33.33,0,0,0-.132-.287.526.526,0,0,0-.324-.1Z"/>
    <path d="M1052.637,101.2a1.145,1.145,0,0,1,.233-.779.973.973,0,0,1,.763-.265h6.311a1.029,1.029,0,0,1,.786.265,1.1,1.1,0,0,1,.247.779v.78a1.17,1.17,0,0,1-.235.787.96.96,0,0,1-.762.269h-6.311a1.02,1.02,0,0,1-.786-.269,1.132,1.132,0,0,1-.246-.787Zm1-.3a.427.427,0,0,0-.277.09.363.363,0,0,0-.107.294v.624a.331.331,0,0,0,.132.288.529.529,0,0,0,.323.1h6.276a.4.4,0,0,0,.277-.1.366.366,0,0,0,.107-.288v-.624a.331.331,0,0,0-.132-.287.532.532,0,0,0-.324-.1Z"/>
    <path d="M1056.9,97.635a1.256,1.256,0,0,0,.205-.067q.18-.064.467-.161t.649-.228q.36-.132.731-.264l1.981-.708c.015-.008.038.014.065.065a.7.7,0,0,1,.042.294,1.405,1.405,0,0,1-.023.319c-.017.051-.033.082-.048.09l-3.036,1.091c-.033.009-.05.021-.054.037s.01.028.042.036l.827.3a.14.14,0,0,0,.067.013h2.07q.06,0,.09.144a1.262,1.262,0,0,1,.03.228,1.881,1.881,0,0,1-.019.234c-.011.091-.038.137-.078.137H1052.7c-.023,0-.05-.031-.078-.095a.693.693,0,0,1-.042-.264.783.783,0,0,1,.042-.282c.028-.068.059-.1.091-.1h3.947a.043.043,0,0,0,.036-.013q.012-.011-.036-.036a1.8,1.8,0,0,1-.185-.065l-.456-.168-.636-.229-.727-.257-1.967-.7c-.025-.008-.048-.037-.073-.09a.813.813,0,0,1-.036-.293.766.766,0,0,1,.042-.294c.028-.06.055-.086.078-.079l1.321.469c.383.136.812.286,1.284.449l1.391.487A.3.3,0,0,0,1056.9,97.635Z"/>
    <path d="M1052.637,93.531a1.173,1.173,0,0,1,.233-.786.96.96,0,0,1,.763-.27h6.3a1.037,1.037,0,0,1,.792.27,1.111,1.111,0,0,1,.252.786v1.7a.106.106,0,0,1-.121.119h-8.124a.084.084,0,0,1-.1-.095Zm1-.312a.423.423,0,0,0-.282.1.353.353,0,0,0-.115.288v.948a.064.064,0,0,0,.073.072h6.948c.071,0,.107-.028.107-.084V93.6a.333.333,0,0,0-.132-.288.555.555,0,0,0-.336-.1Z"/>
    <path d="M1054.353,89.139a.64.64,0,0,1-.048.27c-.033.069-.061.1-.084.1h-.588a.416.416,0,0,0-.277.091.358.358,0,0,0-.107.293v.625a.332.332,0,0,0,.132.287.535.535,0,0,0,.323.1h1.009a1.173,1.173,0,0,0,.605-.156,2.693,2.693,0,0,0,.523-.395c.168-.161.336-.332.5-.517a4.829,4.829,0,0,1,.551-.516,2.867,2.867,0,0,1,.666-.4,2.116,2.116,0,0,1,.834-.155h1.548a1.028,1.028,0,0,1,.786.263,1.1,1.1,0,0,1,.247.78v.78a1.142,1.142,0,0,1-.235.78.969.969,0,0,1-.762.264h-.587c-.025,0-.054-.028-.09-.084a.562.562,0,0,1-.054-.288q0-.36.144-.36h.587a.4.4,0,0,0,.277-.1.383.383,0,0,0,.107-.3V89.9a.334.334,0,0,0-.132-.288.532.532,0,0,0-.324-.1h-1.548a1.193,1.193,0,0,0-.582.156,3.452,3.452,0,0,0-.563.4c-.189.161-.372.331-.553.51s-.363.35-.552.51a3.452,3.452,0,0,1-.563.4,1.19,1.19,0,0,1-.582.156h-1.3a1.03,1.03,0,0,1-.786-.264,1.1,1.1,0,0,1-.246-.78v-.78a1.148,1.148,0,0,1,.233-.78.972.972,0,0,1,.763-.263h.588C1054.309,88.768,1054.353,88.892,1054.353,89.139Z"/>
    <path d="M1060.677,85.635c.2,0,.3.041.3.12v2.064c0,.073-.033.108-.1.108H1052.7c-.023,0-.05-.03-.078-.09a.719.719,0,0,1-.042-.281.742.742,0,0,1,.042-.277c.028-.064.063-.095.1-.095h7.559c.057,0,.084-.021.084-.061V85.755C1060.364,85.676,1060.469,85.635,1060.677,85.635Z"/>
    <path d="M1060.005,82.107a.947.947,0,0,1,.737.258,1.1,1.1,0,0,1,.235.762V83.9a1.082,1.082,0,0,1-.241.762,1.022,1.022,0,0,1-.779.258h-.6c-.047,0-.084-.04-.107-.12a.862.862,0,0,1-.036-.252.566.566,0,0,1,.048-.245c.032-.069.063-.1.1-.1h.577a.519.519,0,0,0,.311-.095.322.322,0,0,0,.133-.277v-.612a.363.363,0,0,0-.108-.287.383.383,0,0,0-.264-.1h-3.025c-.032,0-.047.021-.047.061v1.055a1.042,1.042,0,0,1-.229.714.863.863,0,0,1-.683.258H1053.6q-.96,0-.96-.852v-1.3a.7.7,0,0,1,.162-.462.633.633,0,0,1,.521-.2Zm-3.66.8a.073.073,0,0,0-.025-.065.222.222,0,0,0-.12-.019h-.75c-.187,0-.386,0-.594.006s-.4.007-.576.007h-.66a.511.511,0,0,0-.294.071.321.321,0,0,0-.1.276v.636a.344.344,0,0,0,.114.277.394.394,0,0,0,.258.095h2.292a.582.582,0,0,0,.336-.084.325.325,0,0,0,.12-.288Z"/>
    <path d="M1060.005,78.459a.947.947,0,0,1,.737.258,1.1,1.1,0,0,1,.235.761v.769a1.082,1.082,0,0,1-.241.762,1.022,1.022,0,0,1-.779.258h-.6c-.047,0-.084-.04-.107-.121a.861.861,0,0,1-.036-.251.574.574,0,0,1,.048-.246c.032-.068.063-.1.1-.1h.577a.513.513,0,0,0,.311-.1.319.319,0,0,0,.133-.276v-.613a.366.366,0,0,0-.108-.287.387.387,0,0,0-.264-.1h-3.025c-.032,0-.047.02-.047.06V80.3a1.042,1.042,0,0,1-.229.714.863.863,0,0,1-.683.258H1053.6q-.96,0-.96-.852v-1.3a.7.7,0,0,1,.162-.462.633.633,0,0,1,.521-.2Zm-3.66.8a.075.075,0,0,0-.025-.066.237.237,0,0,0-.12-.018h-.75c-.187,0-.386,0-.594.006s-.4.006-.576.006h-.66a.511.511,0,0,0-.294.072.32.32,0,0,0-.1.276v.636a.341.341,0,0,0,.114.276.39.39,0,0,0,.258.1h2.292a.582.582,0,0,0,.336-.084.327.327,0,0,0,.12-.288Z"/>
    <path d="M1058.816,74.3c.2,0,.3.035.3.107v.361c0,.032.017.047.049.047h1.739c.088,0,.132.125.132.373s-.035.372-.107.372h-1.752c-.04,0-.061.015-.061.047v1.741c0,.2-.05.319-.149.359a.5.5,0,0,1-.355-.012c-.031-.007-.143-.046-.336-.114s-.427-.153-.708-.258-.6-.217-.948-.341l-1.067-.378-2.844-1.021a.289.289,0,0,1-.078-.09.522.522,0,0,1-.055-.282.829.829,0,0,1,.042-.294c.028-.067.055-.1.078-.1h5.725a.063.063,0,0,0,.071-.072V74.4c0-.023.029-.048.084-.072A.661.661,0,0,1,1058.816,74.3Zm-.324,1.344c0-.056-.023-.084-.071-.084h-3.481c-.04,0-.053,0-.042.011l.042.025c.289.1.588.212.9.323l.918.33.87.313.756.269a.08.08,0,0,0,.065,0,.054.054,0,0,0,.042-.059Z"/>
    <path d="M1052.637,71.632a1.147,1.147,0,0,1,.233-.78.973.973,0,0,1,.763-.264h6.311a1.029,1.029,0,0,1,.786.264,1.1,1.1,0,0,1,.247.78v.779a1.14,1.14,0,0,1-.235.78.969.969,0,0,1-.762.264h-6.311a1.03,1.03,0,0,1-.786-.264,1.1,1.1,0,0,1-.246-.78Zm.612.695a.347.347,0,0,0,.132.294.514.514,0,0,0,.323.1h4.86l-.011-.012c-.1-.025-.29-.068-.582-.133l-1.014-.222-1.213-.263-1.17-.252q-.533-.114-.887-.193c-.236-.051-.363-.078-.378-.078-.04-.015-.06,0-.06.036v.72Zm7.115-.624a.33.33,0,0,0-.132-.287.532.532,0,0,0-.324-.1H1055.1c-.016,0-.008.008.023.025.009,0,.131.025.366.078s.533.116.889.191l1.163.252c.421.093.82.179,1.2.259s.713.151,1,.216.471.1.559.12c.04.016.061.006.065-.03a.943.943,0,0,0,.006-.1Z"/>
    <path d="M1060.005,66.939a.947.947,0,0,1,.737.258,1.1,1.1,0,0,1,.235.762v.769a1.081,1.081,0,0,1-.241.761,1.022,1.022,0,0,1-.779.258h-.6c-.047,0-.084-.04-.107-.12a.862.862,0,0,1-.036-.252.566.566,0,0,1,.048-.245c.032-.069.063-.1.1-.1h.577a.519.519,0,0,0,.311-.095.322.322,0,0,0,.133-.277v-.612a.363.363,0,0,0-.108-.287.383.383,0,0,0-.264-.1h-3.025c-.032,0-.047.021-.047.061v1.055a1.042,1.042,0,0,1-.229.714.863.863,0,0,1-.683.258H1053.6q-.96,0-.96-.852V67.6a.7.7,0,0,1,.162-.462.633.633,0,0,1,.521-.2Zm-3.66.8a.073.073,0,0,0-.025-.065.222.222,0,0,0-.12-.019h-.75c-.187,0-.386,0-.594.006s-.4.007-.576.007h-.66a.511.511,0,0,0-.294.071.322.322,0,0,0-.1.277v.635a.344.344,0,0,0,.114.277.394.394,0,0,0,.258.095h2.292a.582.582,0,0,0,.336-.084.325.325,0,0,0,.12-.288Z"/>
    <path d="M1056.471,63.292a.326.326,0,0,1,.233.336.339.339,0,0,1,.169-.336.87.87,0,0,1,.4-.084h2.6a1.049,1.049,0,0,1,.8.264,1.125,1.125,0,0,1,.246.792V65.4a.64.64,0,0,1-.217.5.869.869,0,0,1-.6.192h-.756c-.025,0-.056-.02-.1-.06a.5.5,0,0,1-.061-.312.615.615,0,0,1,.048-.318.146.146,0,0,1,.109-.054h.624a.357.357,0,0,0,.252-.09.32.32,0,0,0,.1-.246v-.684a.364.364,0,0,0-.114-.318.63.63,0,0,0-.353-.078h-2.46a.622.622,0,0,0-.246.054q-.126.054-.126.33v1.128c0,.024-.027.052-.079.084a.449.449,0,0,1-.234.048c-.216,0-.323-.044-.323-.132V64.336q0-.4-.481-.4h-2.412a.378.378,0,0,0-.233.054.263.263,0,0,0-.067.21v.96c0,.128.069.192.2.192h.755c.04,0,.077.034.109.1a.675.675,0,0,1,.048.282.546.546,0,0,1-.054.27c-.036.06-.07.09-.1.09h-.828a.851.851,0,0,1-.551-.156.661.661,0,0,1-.193-.54v-1.38a.834.834,0,0,1,.2-.648,1.014,1.014,0,0,1,.655-.168h2.58A1.37,1.37,0,0,1,1056.471,63.292Z"/>
    <path d="M1055.961,59.368a2.206,2.206,0,0,1,.275.019,1.061,1.061,0,0,1,.265.065.506.506,0,0,1,.191.126.283.283,0,0,1,.073.2.26.26,0,0,1,.084-.2.657.657,0,0,1,.2-.126.97.97,0,0,1,.252-.065,1.941,1.941,0,0,1,.246-.019h2.388a1.03,1.03,0,0,1,.786.265,1.1,1.1,0,0,1,.246.779v.853a1.04,1.04,0,0,1-.258.738,1.057,1.057,0,0,1-.774.245h-2.388a1.924,1.924,0,0,1-.246-.018,1.018,1.018,0,0,1-.258-.066.617.617,0,0,1-.2-.126.253.253,0,0,1-.084-.2.278.278,0,0,1-.072.2.506.506,0,0,1-.187.126.919.919,0,0,1-.258.066,2.2,2.2,0,0,1-.275.018h-2.328a1,1,0,0,1-.744-.245,1.057,1.057,0,0,1-.252-.738h-.012q.012,0,.006-.126t-.006-.294v-.433a1.126,1.126,0,0,1,.239-.779.993.993,0,0,1,.769-.265Zm.479,1.116c0-.256-.16-.383-.479-.383h-2.328a.421.421,0,0,0-.277.1.364.364,0,0,0-.12.294v.637a.39.39,0,0,0,.4.384h2.328q.478,0,.479-.384Zm1-.383a.569.569,0,0,0-.247.059q-.126.06-.126.336V61.2c.017.145.065.232.145.265a.61.61,0,0,0,.228.048h2.459a.6.6,0,0,0,.348-.079.373.373,0,0,0,.109-.318V60.5a.372.372,0,0,0-.109-.317.6.6,0,0,0-.348-.078Z"/>
    <path d="M1054.364,58.155a.71.71,0,0,1-.023.2.557.557,0,0,1-.048.109.155.155,0,0,1-.072.059h-.588a.976.976,0,0,1-.763-.263,1.149,1.149,0,0,1-.233-.781V56.7a1.1,1.1,0,0,1,.246-.78,1.03,1.03,0,0,1,.786-.264h1.3a1.2,1.2,0,0,1,.582.155,3.524,3.524,0,0,1,.563.4c.189.16.372.332.552.516s.364.356.553.516a3.452,3.452,0,0,0,.563.4,1.193,1.193,0,0,0,.582.156h1.861c.1,0,.143-.04.143-.12v-1.2c0-.056-.036-.084-.107-.084h-.864a.1.1,0,0,1-.073-.048.592.592,0,0,1-.048-.109.912.912,0,0,1,0-.407.548.548,0,0,1,.048-.108.155.155,0,0,1,.073-.06h1.032a.66.66,0,0,1,.414.108q.138.108.138.492v2.1c0,.113-.037.168-.109.168H1058.4a2.116,2.116,0,0,1-.834-.155,2.867,2.867,0,0,1-.666-.4,4.92,4.92,0,0,1-.551-.516q-.252-.278-.5-.517a2.734,2.734,0,0,0-.523-.395,1.173,1.173,0,0,0-.605-.156H1053.7a.513.513,0,0,0-.323.1.333.333,0,0,0-.132.281V57.4a.378.378,0,0,0,.107.3.4.4,0,0,0,.277.1h.588a.1.1,0,0,1,.072.048.5.5,0,0,1,.048.108A.707.707,0,0,1,1054.364,58.155Z"/>
    <path d="M1052.685,52.114a.223.223,0,0,1,.12-.03h1.08a3.518,3.518,0,0,1,.761.107c.309.073.647.164,1.014.277s.755.232,1.158.36.807.248,1.206.359.788.205,1.164.277a5.421,5.421,0,0,0,1.008.108h.649c.055,0,.1.038.137.114a.553.553,0,0,1,.054.246.628.628,0,0,1-.054.257.174.174,0,0,1-.162.126h-.624a5.515,5.515,0,0,1-1.031-.107c-.376-.072-.763-.164-1.158-.276s-.794-.232-1.2-.36-.788-.248-1.164-.36-.725-.2-1.049-.276a4.03,4.03,0,0,0-.859-.108h-.407c-.057,0-.084.032-.084.1V54.9c0,.041-.03.076-.091.109a.463.463,0,0,1-.221.048c-.2,0-.3-.044-.3-.132V52.3C1052.637,52.2,1052.652,52.134,1052.685,52.114Z"/>
    <path d="M1060.005,48.676a.947.947,0,0,1,.737.258,1.1,1.1,0,0,1,.235.761v.769a1.082,1.082,0,0,1-.241.762,1.026,1.026,0,0,1-.779.257h-.6c-.047,0-.084-.04-.107-.12a.862.862,0,0,1-.036-.252.573.573,0,0,1,.048-.245c.032-.068.063-.1.1-.1h.577a.52.52,0,0,0,.311-.1.32.32,0,0,0,.133-.276v-.613a.365.365,0,0,0-.108-.287.388.388,0,0,0-.264-.1h-3.025c-.032,0-.047.021-.047.061v1.056a1.043,1.043,0,0,1-.229.714.866.866,0,0,1-.683.257H1053.6q-.96,0-.96-.851v-1.3a.7.7,0,0,1,.162-.462.633.633,0,0,1,.521-.2Zm-3.66.8a.075.075,0,0,0-.025-.065.222.222,0,0,0-.12-.019h-.75c-.187,0-.386,0-.594.006s-.4.007-.576.007h-.66a.519.519,0,0,0-.294.071.322.322,0,0,0-.1.277v.636a.342.342,0,0,0,.114.276.4.4,0,0,0,.258.1h2.292a.589.589,0,0,0,.336-.084.327.327,0,0,0,.12-.288Z"/>
  </g>
</svg>
