<svg id="Logos" xmlns="http://www.w3.org/2000/svg" width="1100" height="200" viewBox="0 0 1100 200">
  <defs>
    <style>
      .cls-1 {
        fill: #fff;
      }
    </style>
  </defs>
  <title>only</title>
  <path d="M1061.793,68.791a1.254,1.254,0,0,0,1.142-.877,1.452,1.452,0,0,0-1.194-.881.883.883,0,0,0-.635.248.807.807,0,0,0-.259.607.858.858,0,0,0,.27.639A.926.926,0,0,0,1061.793,68.791Z"/>
  <polygon points="1064.14 104.026 1064.14 102.314 1061.316 102.314 1064.14 104.026"/>
  <path d="M1061.279,98.04a.885.885,0,0,0-.423.754.851.851,0,0,0,.383.7,1.591,1.591,0,0,0,.98.285,1.622,1.622,0,0,0,.939-.261.786.786,0,0,0,.38-.675,1.026,1.026,0,0,0-.286-.669,1.976,1.976,0,0,0-.847-.541A2.69,2.69,0,0,0,1061.279,98.04Z"/>
  <path d="M1064.852,69.074a.991.991,0,0,0,.76-.335,1.163,1.163,0,0,0,.307-.818,1.146,1.146,0,0,0-.328-.833,1.079,1.079,0,0,0-.81-.338q-.9,0-1.3,1.167Q1064.055,69.075,1064.852,69.074Z"/>
  <path d="M1061.741,93.661a.883.883,0,0,0-.635.248.807.807,0,0,0-.259.607.858.858,0,0,0,.27.639.926.926,0,0,0,.676.264,1.254,1.254,0,0,0,1.142-.877A1.452,1.452,0,0,0,1061.741,93.661Z"/>
  <polygon points="1063.71 91.174 1063.71 89.792 1060.922 90.49 1063.71 91.174"/>
  <path d="M1064.781,114.158q-.9,0-1.3,1.167.576,1.158,1.373,1.157a.991.991,0,0,0,.76-.335,1.163,1.163,0,0,0,.307-.818,1.146,1.146,0,0,0-.328-.833A1.083,1.083,0,0,0,1064.781,114.158Z"/>
  <path d="M1065.144,81.57a4.515,4.515,0,0,0-2.024-.355,3.548,3.548,0,0,0-1.792.368,1.244,1.244,0,0,0-.619,1.148v.826h5.113v-.826A1.213,1.213,0,0,0,1065.144,81.57Z"/>
  <path d="M1061.741,114.441a.883.883,0,0,0-.635.248.808.808,0,0,0-.259.607.861.861,0,0,0,.27.64.929.929,0,0,0,.676.263,1.254,1.254,0,0,0,1.142-.877A1.452,1.452,0,0,0,1061.741,114.441Z"/>
  <path d="M1064.781,93.378q-.9,0-1.3,1.167.576,1.157,1.373,1.157a.991.991,0,0,0,.76-.335,1.163,1.163,0,0,0,.307-.818,1.145,1.145,0,0,0-.328-.833A1.079,1.079,0,0,0,1064.781,93.378Z"/>
  <path d="M1064.01,146.177l1.54,4.739a7.465,7.465,0,0,0,2.444-7.634Z"/>
  <path d="M1053.425,143.283a7.461,7.461,0,0,0,2.444,7.632l1.539-4.738Z"/>
  <path d="M1056.677,151.5a7.468,7.468,0,0,0,8.064,0l-4.032-2.929Z"/>
  <path d="M1061.279,122.977a.885.885,0,0,0-.423.753.852.852,0,0,0,.383.7,1.6,1.6,0,0,0,.98.285,1.622,1.622,0,0,0,.939-.261.788.788,0,0,0,.38-.676,1.03,1.03,0,0,0-.286-.669,2,2,0,0,0-.847-.541A2.69,2.69,0,0,0,1061.279,122.977Z"/>
  <path d="M1062.219,64.843a1.622,1.622,0,0,0,.939-.261.788.788,0,0,0,.38-.676,1.03,1.03,0,0,0-.286-.669,2,2,0,0,0-.847-.541,2.69,2.69,0,0,0-1.126.4.885.885,0,0,0-.423.754.852.852,0,0,0,.383.7A1.6,1.6,0,0,0,1062.219,64.843Z"/>
  <path d="M1060.178,137.653a7.541,7.541,0,0,0-6.431,4.643h4.922Z"/>
  <path d="M1067.672,142.3a7.541,7.541,0,0,0-6.431-4.643l1.508,4.643Z"/>
  <path d="M200.788,108.259a48.361,48.361,0,0,1,.23,27.19c7.4-4.993,13.239-9.324,16.008-11.418A163.65,163.65,0,0,0,200.788,108.259Z"/>
  <path d="M147.586,83.221a73.576,73.576,0,0,0-16.622,1.157,2.082,2.082,0,0,1-.892,1.416,43.976,43.976,0,0,0-1.241,72.065c5.463,2.184,10.784,3.55,15.57,3.55,13.568,0,34.609-11.636,50.856-22.152a44.033,44.033,0,0,0-1.057-36.275C181.484,93.362,164.96,84.133,147.586,83.221Zm7.276,61.92a22.867,22.867,0,1,1,22.867-22.867A22.867,22.867,0,0,1,154.862,145.141Z"/>
  <path class="cls-1" d="M557.368,125.534l-.5,2.445v.1h.1a7.28,7.28,0,0,0,.815-2.016v-.214c0-.09-.1-.193-.311-.311Z"/>
  <path class="cls-1" d="M559.5,122.918a36.824,36.824,0,0,0-1.318,5.661h.194q0-.407,1.221-5.564v-.1Z"/>
  <path class="cls-1" d="M559.385,120.493v.1c.142,0,.213-.065.213-.194v-.116C559.456,120.307,559.385,120.378,559.385,120.493Z"/>
  <path class="cls-1" d="M559.5,120.183h.194a2.888,2.888,0,0,1,1.1-1.725l.408-2.715v-.214A23.91,23.91,0,0,0,559.5,120.183Z"/>
  <path class="cls-1" d="M560.393,125.147v.195h.311a.746.746,0,0,1,.407-.195v-.115h-.194Z"/>
  <polygon class="cls-1" points="560.51 122.607 560.51 123.228 560.607 123.228 560.704 122.705 560.51 122.607"/>
  <path class="cls-1" d="M560.51,123.828v.292a.652.652,0,0,1,.29.116v-.31A.733.733,0,0,1,560.51,123.828Z"/>
  <path class="cls-1" d="M562.526,123.616c.065,0,.1.038.1.116a1.123,1.123,0,0,1,.621-.116v-.194h-.524C562.591,123.448,562.526,123.512,562.526,123.616Z"/>
  <path class="cls-1" d="M563.631,124.526l.214.118h1.609v-.214a.172.172,0,0,0-.194-.194h-1.008C563.838,124.275,563.631,124.371,563.631,124.526Z"/>
  <path class="cls-1" d="M563.942,108.046q.077,1.414.31,1.415h.1a1.167,1.167,0,0,0,.5-.912v-.192c0-.1-.2-.273-.6-.506Z"/>
  <path class="cls-1" d="M566.462,125.342l-.1.192a2.182,2.182,0,0,0,.912.525v-.214A3.191,3.191,0,0,1,566.462,125.342Z"/>
  <path class="cls-1" d="M567.083,122.918v.1a5.272,5.272,0,0,1,2.326,1.221h.1v-.116q0-.467-2.327-1.2Z"/>
  <path class="cls-1" d="M567.083,124.236q1.3,1.512,1.512,1.512a.738.738,0,0,1,.31-.1v-.31a3.3,3.3,0,0,0-1.415-1.106Z"/>
  <path class="cls-1" d="M568.905,126.446a15.785,15.785,0,0,1,1.106,3.142h.1a.858.858,0,0,1,.1-.311Q570.049,126.447,568.905,126.446Z"/>
  <path class="cls-1" d="M570.417,125.438v.1a12.425,12.425,0,0,0,.816,2.445.671.671,0,0,1,.29-.118c0,.078.033.118.1.118v-.118a13.958,13.958,0,0,0-1.009-2.423Z"/>
  <path class="cls-1" d="M523.784,148.57v.1q1.552,1.668,2.153,1.668a3.8,3.8,0,0,1-.679-1.378c.155-.451.382-.678.679-.678v-.1h-.1A18.571,18.571,0,0,1,523.784,148.57Z"/>
  <path class="cls-1" d="M526.926,151.886q1.047,1.473,1.551,1.474l2.947-1.668h-.194q0,.273-2.947.7h-.291q-.291,0-.291-.8h-.485C527.113,151.594,527.016,151.692,526.926,151.886Z"/>
  <path class="cls-1" d="M530.629,148.473v.1a.642.642,0,0,1,.6.291q2.424-.582,2.637-.582v-.1h-.582A15.77,15.77,0,0,0,530.629,148.473Z"/>
  <rect class="cls-1" x="534.546" y="150.916" width="0.388" height="0.098"/>
  <path class="cls-1" d="M535.224,150.819v.1h.311l.581-.1v-.1h-.194A2.874,2.874,0,0,1,535.224,150.819Z"/>
  <path class="cls-1" d="M535.535,148.182v.1a3.014,3.014,0,0,1,1.357.486h.291l1.183-.1v-.1a14.4,14.4,0,0,1-2.637-.388Z"/>
  <rect class="cls-1" x="536.31" y="150.626" width="0.776" height="0.096"/>
  <path class="cls-1" d="M538.753,148.765v.1a2.033,2.033,0,0,0,1.183.582q1.222,0,3.025.1h.291v-.1l-4.4-.678Z"/>
  <rect class="cls-1" x="549.321" y="151.11" width="0.485" height="0.096"/>
  <polygon class="cls-1" points="549.903 151.207 549.903 151.304 550.407 151.402 550.601 151.402 550.601 151.304 550 151.207 549.903 151.207"/>
  <path class="cls-1" d="M579.259,123.518a6.27,6.27,0,0,1-1.066,1.571l-.388,1.357,1.26-2.345a.927.927,0,0,1,.679-.292v-.193Z"/>
  <path class="cls-1" d="M578.1,123.228v.29h.1a.75.75,0,0,1,.484-.193v-.2h-.1Z"/>
  <path class="cls-1" d="M580.635,125.963h.1a2.447,2.447,0,0,0,.874-1.164h-.1A4.563,4.563,0,0,0,580.635,125.963Z"/>
  <path class="cls-1" d="M587.966,124.2l.29,1.474h.116v-.1l-.116-.99.116-.484h-.116A.642.642,0,0,1,587.966,124.2Z"/>
  <path class="cls-1" d="M613.076,119.389v.1q1.414,0,3.413,2.327V121.6q-1.107-2.211-2.812-2.21Z"/>
  <path class="cls-1" d="M614.181,130.033v.1h.1c1.073-.5,1.61-.833,1.61-.989v-.214h-.31A6.058,6.058,0,0,1,614.181,130.033Z"/>
  <path class="cls-1" d="M617.089,124.722l-.194.5v.2h.1a1.2,1.2,0,0,1,.2-.6v-.1Z"/>
  <rect class="cls-1" x="617.187" y="123.906" width="0.096" height="0.718"/>
  <path class="cls-1" d="M624.768,127.048v.1l.387.1,1.184-1.278c0-.131-.071-.2-.214-.2S625.517,126.2,624.768,127.048Z"/>
  <path class="cls-1" d="M634.54,122.258v.194h.486a.173.173,0,0,0-.2-.194Z"/>
  <path class="cls-1" d="M634.734,123.809q-.193.892-.194.99l.194.1h.1v-1.086Z"/>
  <path class="cls-1" d="M641,123.344q-.115,1.3-.116,1.862v1.2H641q.117-1.629.331-3.064Z"/>
  <rect class="cls-1" x="640.996" y="127.396" width="0.116" height="0.661"/>
  <path class="cls-1" d="M643.4,126.62v.331q.31,0,.543-2.074h-.1Q643.478,124.877,643.4,126.62Z"/>
  <rect class="cls-1" x="653.581" y="125.865" width="0.115" height="0.659"/>
  <path class="cls-1" d="M658.663,129.723v.214h.212q1.571-2.891,2.114-3.646c.078,0,.115-.065.115-.194h-.115a2.336,2.336,0,0,0-1.514,1.417A7.055,7.055,0,0,0,658.663,129.723Z"/>
  <path class="cls-1" d="M664.033,123.673h.1a4.868,4.868,0,0,1,1.008-.213v-.1h-.6C664.2,123.415,664.033,123.518,664.033,123.673Z"/>
  <path class="cls-1" d="M666.864,123.363v.2a2.011,2.011,0,0,1,1.2,1.725v.6h.116a2.841,2.841,0,0,0,.8-1.824v-.1a.172.172,0,0,0-.195-.194l-.311.194h-.1l-1.318-.6Z"/>
  <path class="cls-1" d="M675.685,129.723v.214h.213q1.571-2.891,2.114-3.646c.078,0,.115-.065.115-.194h-.115a2.336,2.336,0,0,0-1.514,1.417A7.04,7.04,0,0,0,675.685,129.723Z"/>
  <path class="cls-1" d="M681.056,123.673h.1a4.855,4.855,0,0,1,1.008-.213v-.1h-.6C681.223,123.415,681.056,123.518,681.056,123.673Z"/>
  <path class="cls-1" d="M683.887,123.363v.2a2.013,2.013,0,0,1,1.2,1.725v.6h.116a2.841,2.841,0,0,0,.8-1.824v-.1a.172.172,0,0,0-.2-.194l-.31.194h-.1l-1.319-.6Z"/>
  <polygon class="cls-1" points="692.283 128.153 691.895 130.092 692.091 130.092 692.381 128.249 692.381 128.153 692.283 128.153"/>
  <path class="cls-1" d="M694.805,123.305a17.377,17.377,0,0,0-.775,2.425v.29h.1a6.026,6.026,0,0,1,1.067-2.521.172.172,0,0,0-.195-.194Z"/>
  <path class="cls-1" d="M694.222,129.122v.29a.171.171,0,0,0,.2-.192v-.1Z"/>
  <path class="cls-1" d="M695.581,125.147v.195h.1a7.582,7.582,0,0,1,2.811-1.551l.195-.388h-.195Q697.422,123.4,695.581,125.147Z"/>
  <path class="cls-1" d="M698.2,125.632h.1l.58-.1a12.9,12.9,0,0,0,1.455.1v-.194c-.763-.065-1.313-.1-1.648-.1h-.195C698.4,125.342,698.3,125.438,698.2,125.632Z"/>
  <path class="cls-1" d="M699.749,124.179v.192q3.879.447,3.878,2.91c.129,0,.194.1.194.29h.291v-.1q-.292-2.131-1.067-2.131,0-.759-2.327-1.163c0-.065-.1-.1-.291-.1Z"/>
  <path class="cls-1" d="M701.2,125.73c0,.09.1.186.292.29h.1c0-.09-.1-.188-.29-.29Z"/>
  <path class="cls-1" d="M710.665,127.048v.1l.388.1,1.183-1.278c0-.131-.071-.2-.214-.2S711.414,126.2,710.665,127.048Z"/>
  <path class="cls-1" d="M720.437,122.258v.194h.486a.172.172,0,0,0-.2-.194Z"/>
  <path class="cls-1" d="M720.631,123.809q-.193.892-.194.99l.194.1h.1v-1.086Z"/>
  <g>
    <path d="M561.925,137.984q3.995-1.668,5.255-4.441a9.4,9.4,0,0,0,.814-3.451q0-2.385-2.947-3.529a11.8,11.8,0,0,0-2.424-.31h-.1c-.737,0-1.1.408-1.1,1.22q-.117,1.224-.116,2.715v1.318a41.231,41.231,0,0,0,.407,6.478Z"/>
    <path d="M627.405,126.757a6.82,6.82,0,0,0-2.347,5.661q0,2.135,2.637,2.444a4.24,4.24,0,0,0,3.918-2.25v-.1q0-.27-.1-1.958a47.325,47.325,0,0,0,.874-4.692c.114,0,.245-.453.387-1.358v-.193l-.485-.1A10.927,10.927,0,0,0,627.405,126.757Z"/>
    <path d="M683.576,125.477v-.1c0-.09-.1-.186-.29-.29h-.718q-1.221,0-3.237,1.919a11.158,11.158,0,0,1-1.417,2.114v.213a14.32,14.32,0,0,0,5.468-3.14Z"/>
    <path d="M666.553,125.477v-.1c0-.09-.1-.186-.29-.29h-.718q-1.221,0-3.237,1.919a11.179,11.179,0,0,1-1.416,2.114v.213a14.335,14.335,0,0,0,5.468-3.14Z"/>
    <path d="M1080.1,23.987c-12.75,4.346-1056.868-10.062-1062.281,0-6.547,12.169-2.145,151.239,3.525,158.192s1054.992,2.608,1058.756,0S1086.763,50.932,1080.1,23.987ZM896.308,81.932c3.661-9.477,10.1-16.749,13.6-20.24a3.5,3.5,0,0,1,4.938,4.963c-3.583,3.563-20.961,22.215-11.228,39.477,4.175,7.405,18.92,15.369,35.858,19.369,12.342,2.913,23.007,2.984,27.166.177,7.158-4.83,12.7-17.982,11.2-26.552-.735-4.177-2.913-6.664-6.66-7.6-21.254-5.325-29.712-3.12-33.065-.334-2.13,1.77-3.05,4.511-2.811,8.378.26,4.231,1.423,9.489,5.484,10.5,3.363.837,6.923-1.311,7.437-2.148a3.5,3.5,0,0,1,6.092,3.447c-2.122,3.758-8.992,6.93-15,5.547-3.773-.869-10.22-4.222-11-16.918-.38-6.165,1.411-10.94,5.325-14.192,6.876-5.714,19.346-6.056,39.239-1.073,6.432,1.611,10.641,6.292,11.852,13.18,2.011,11.429-4.613,27.116-14.174,33.568-3.613,2.437-8.815,3.248-14.135,3.248a85.638,85.638,0,0,1-18.556-2.416c-14.646-3.459-34-11.49-40.347-22.743C892.907,101.38,892.486,91.824,896.308,81.932ZM578.834,62.024a3.5,3.5,0,0,1,4.29,2.47c2.385,8.853,12.385,17.577,25.477,22.221,14.388,5.109,28.717,4.006,38.334-2.943,20.642-14.914,51.838-37.457,95.687-17.9a3.5,3.5,0,1,1-2.851,6.393c-40.169-17.92-68.24,2.365-88.737,17.176-6.813,4.923-15.479,7.433-24.857,7.433a59.769,59.769,0,0,1-19.917-3.566c-15.429-5.475-26.884-15.82-29.9-27A3.5,3.5,0,0,1,578.834,62.024Zm76.821,62.192a33.685,33.685,0,0,1-1.745,7.446l-1.319,2.947a18.672,18.672,0,0,1-3.937,5.7.91.91,0,0,1-.871.543q-2.346,0-5.8-5.256-2.52-5.565-2.519-8.084v-2.851q.309-3.064,1.086-3.064.62,0,5.7,3.18a3.977,3.977,0,0,1,.214.969q-.291,0-.659,2.095v1.842a10.04,10.04,0,0,0,2.4,6.128l.233.114a16.675,16.675,0,0,0,2.617-8.531,6.41,6.41,0,0,0-1.648-3.605v-.331a12.57,12.57,0,0,1,3.3-1.434,4.173,4.173,0,0,1,2.073-.757q.876,0,.874,2.075l-.116.447Zm-17.78,10.548a3.833,3.833,0,0,1,.776,1.861v.1a44.343,44.343,0,0,1-5.08,3.917c-.57.581-1.027.872-1.378.872q-.349,0-.484-1.666h-.194q-1.027,1.084-4.6,1.085h-.484a6.989,6.989,0,0,1-3.723-1.861,6.639,6.639,0,0,1-2.249-5.274v-1.571q0-2.928,4.207-7.136A7.265,7.265,0,0,0,626.221,124q4.228-2.541,6.652-2.539a12.926,12.926,0,0,0,1.569-.292,5.191,5.191,0,0,1,1.862.388q-.193,1.415-.29,3.819A29.139,29.139,0,0,0,637.875,134.764Zm-80.41-14.677a51.845,51.845,0,0,1,2.54-6.885,9.688,9.688,0,0,0,1.009-2.229q2.4-4.439,3.121-4.441a4.681,4.681,0,0,1,2.327,1.921,19.312,19.312,0,0,0-2.327,5.758q-1.8,5.838-1.8,7.7a25.933,25.933,0,0,1,3.432-.408q2.908,0,4.053,1.106.582.02,2.306,2.133.564.389,1.223,3.839l-.1.6v.31c0,.208.031.31.1.31q0,4.4-4.751,8.784a9.535,9.535,0,0,1-5.468,2.133q-.6.156-.6.292v.115l.31,2.016-.31.2h-.1a4.545,4.545,0,0,1-2.327-1.008,29.593,29.593,0,0,0-5.157-3.744l-.311-.407v-1.415a3.282,3.282,0,0,1,.1-.794l-.193-1.417Q556.01,123.714,557.465,120.087Zm-71.307-11.774q0-4.842,4.073-24.634A184.653,184.653,0,0,1,500.606,55.4a7.2,7.2,0,0,1,2.844-2.843h.807q4.686,1.346,4.688,3.264a55.91,55.91,0,0,0-4.688,13.607q-4.69,19.709-4.689,27.473-.308,0-.384,9.376a60.732,60.732,0,0,0,2.844,16.868v.194l-.615.421h-.807q-.425,0-10.8-7.338a8.978,8.978,0,0,1-3.65-2.613Zm-33.739,3.916a90.809,90.809,0,0,1,3.458-24.015q1.845-4.8,2.5-4.8a.17.17,0,0,1,.192-.194h1.345q4.341,3.459,5,3.459a13.559,13.559,0,0,1,6.34-1.537h.576q8.492,0,11.336,8.644a23.607,23.607,0,0,1,.577,5.38v2.693q-2.5,16.213-4.8,20.557c-.538.9-.922,1.343-1.152,1.343h-.769a9.556,9.556,0,0,0-3.843-1.918l-.384-.578v-.385a97.969,97.969,0,0,0,3.266-16.332l.192-1.15q0-7.5-4.227-7.5h-.576a9.277,9.277,0,0,0-5.188,3.458q-2.19,2.154-4.034,8.648a63.266,63.266,0,0,0-1.73,13.834q0,.881-2.689,1.537a.171.171,0,0,1-.193-.194l-.96.194h-1.153q-2.5,0-2.5-1.731a19.771,19.771,0,0,0-.384-2.88,1.454,1.454,0,0,1,.192-.578q-.27-3.076-.384-3.459l.192-.384A15.415,15.415,0,0,0,452.419,112.229Zm-81.35-50.336q.617,1.383,2.728,9.6,4.228,8.531,11.26,10.685,3.651,1.458,12.757,1.457,16.407-3.148,26.131-5.647,2.265-1.037,8.991-1.884,12.526,0,16.524,11.915a43.963,43.963,0,0,1,.653,5.841v4.187q-1.077,8.8-3.151,12.567a61.312,61.312,0,0,1-6.686,10.873q-4.421,4.727-6.917,6.072-5.727,3.537-10.029,3.535a17.5,17.5,0,0,1-10.222-3.535q-5.457-5.916-5.456-12.758v-1.076q0-15.411,12.757-26.13c1.255,0,1.883.344,1.883,1.039q.576,0,2.5-1.654l5.034-2.92h.423l.422.614V85.1l-.23.421.422.194H431.9v.227q-.039,1.425-5.841,5.226-6.534,6.916-7.724,14.221c-.154,0-.23.2-.23.615v3.956q0,5,6.686,8.608a11.859,11.859,0,0,0,1.883.194h1.268a21.916,21.916,0,0,0,5-1.691q.346,0,2.306-2.269A16.718,16.718,0,0,0,440.7,107.7q.421-.309,1.652-4.612a34.207,34.207,0,0,0,1.883-8.994V92.21q-1.116-6.073-2.306-6.071a7.748,7.748,0,0,0-6.686-3.114q-8.57,0-19.213,4.383-13.68,4.8-14.872,4.8-1.344.844-8.146,1.654-2.919.382-2.921.652l-1.46-.231h-.845q-13.027,0-20.482-5.841a10.426,10.426,0,0,1-4.611-2.92,30.516,30.516,0,0,1-4.381-6.072q-1.036-3.113-1.882-6.686v-.23L367.073,64.2Q369.688,61.892,371.069,61.893ZM183.677,74l19.645-33.764a2.1,2.1,0,1,1,3.627,2.109L187.3,76.1A2.1,2.1,0,1,1,183.677,74Zm-25.972-4.272,6.6-36.241a2.1,2.1,0,1,1,4.128.752l-6.6,36.241a2.1,2.1,0,0,1-2.061,1.722,2.136,2.136,0,0,1-.379-.034A2.1,2.1,0,0,1,157.705,69.723ZM121.619,34.472a2.088,2.088,0,0,1,2.3,1.875l3.556,35.114a2.1,2.1,0,0,1-1.876,2.3,1.935,1.935,0,0,1-.215.011,2.1,2.1,0,0,1-2.084-1.887l-3.556-35.113A2.1,2.1,0,0,1,121.619,34.472Zm-24.7,12.2a2.1,2.1,0,0,1,2.525,1.559l7.041,29.711a2.1,2.1,0,0,1-1.559,2.526,2.123,2.123,0,0,1-.485.055,2.1,2.1,0,0,1-2.04-1.614L95.363,49.2A2.1,2.1,0,0,1,96.921,46.672ZM73.289,54.2a2.1,2.1,0,0,1,2.742,1.134L87.617,83.25a2.1,2.1,0,0,1-1.133,2.743,2.074,2.074,0,0,1-.8.16,2.1,2.1,0,0,1-1.938-1.294L72.156,56.946A2.1,2.1,0,0,1,73.289,54.2ZM53.951,69.868a2.1,2.1,0,0,1,2.876.734L69.253,91.534a2.1,2.1,0,0,1-3.61,2.142L53.218,72.744A2.1,2.1,0,0,1,53.951,69.868Zm168.2,54.706a2.1,2.1,0,0,1-.792,1.422c-2.066,1.616-50.9,39.61-76.962,39.61a44.979,44.979,0,0,1-15.062-3.068,2.138,2.138,0,0,1-.444.053,2.093,2.093,0,0,1-1.173-.359c-.323-.219-.628-.457-.945-.682-23.039-9.355-47.321-31.775-48.6-32.97a2.1,2.1,0,1,1,2.859-3.071c.255.237,17.136,15.827,35.63,26.382a48.165,48.165,0,0,1,6.092-65.716c-15.649,4.072-30.949,11.474-43.27,17.433-13.747,6.647-21.111,10.046-25.195,8.52a2.1,2.1,0,1,1,1.467-3.932c2.6.973,12.411-3.777,21.9-8.366,19.272-9.32,45.661-22.088,70.149-20.8,19.071,1,36.858,11.4,49.186,20.752a2.1,2.1,0,0,1,.231.172q1.258.959,2.44,1.9a158.3,158.3,0,0,1,22.029,21.161A2.1,2.1,0,0,1,222.155,124.574Zm18.254-56.848L215.093,94.06a2.1,2.1,0,0,1-3.026-2.91l25.316-26.334a2.1,2.1,0,0,1,3.026,2.91ZM397.143,156.2a2.249,2.249,0,0,1-1.136,1.366c-.121,0-.181-.076-.181-.229a84.982,84.982,0,0,1-20.575,2.859q-25.48,0-45.919-7.267a359.171,359.171,0,0,1-36.653-16.8q-9.994-3.543-13.9-3.546v-1.09q.456-.863,1.09-.862a2.8,2.8,0,0,1-.408-1.362.161.161,0,0,1,.181-.182l-.181-.454v-1.544c0-.484,1.1-.865,3.315-1.134q3.27,0,13.217,3.132v-2q0-3.315-.227-5.542,1.951-22.389,3.77-27.8,1.772-6.448,3.77-12.583h-2a1.825,1.825,0,0,1-.908-.225,1.6,1.6,0,0,1-.863.225v-.225l-.454.225h-1.545q-.774,0-1.771-3.539c-.272,0-.409-.153-.409-.458V76.49q0-.409,1.772-1.319,0-.77,1.317-1.09,12.216.685,17.214.683h1.771a2.143,2.143,0,0,1,2.18,1.09q0,.136-1.09,1.09V77.4l.793,1.238c.887-.187,1.9-.358,3.068-.511a68.8,68.8,0,0,1,6.222-16.079,58.662,58.662,0,0,1,7.949-10.355,19.241,19.241,0,0,1,8.175-4.542q0-.725,3.588-.727,10.808,0,15.125,7.674a2.619,2.619,0,0,1,.227,1.228v.225q-1.728,2.365-8.63,6.952h-1.68l-1.908-3.587q-3.134-3.591-5.041-3.59h-1q-4.181,0-9.583,12.216-2.909,7.314-2.907,10.356v.726q9.628.23,13.944.229a3.737,3.737,0,0,1,.5,1.683q-.591.4-4.814.952v.272l.5.68v.5q-.136.5-1.227.952-4.27-.224-6.949-.225h-3.134q-.954,4.588-.954,16.805A79.153,79.153,0,0,0,334.6,124.5c0,.087.332,1.286,1,3.586q-.546,2.179-1.227,2.18h-.454a114.82,114.82,0,0,1-10.355-7.449q-5.769-3.5-5.769-6.951,0-3.63-.227-3.633l.227-1.406v-2.18q0-8.814,2.907-24.254v-.727h-.272l-2.135.225-1.68-1.453c-.213,0-.618-.378-1.2-1.09H312.8q-1.816,0-4.224,22.757a.2.2,0,0,0,.227.228,1.6,1.6,0,0,1-.227.862q-.228,7.946-.227,11.082a63.24,63.24,0,0,0,2.907,18.76q22.709,10.579,44.829,10.581h4.406c.15,0,.953-.153,2.407-.454h2.861a87.911,87.911,0,0,0,19.031-3.725h.863l11.491,14.353Zm111.134-9.508a63.431,63.431,0,0,1-8.146,4.648,60.584,60.584,0,0,1-8.531,2.73q-5.726.959-10.644,1.343l-1.191-.193H478.8q-8.26,0-24.824-4.264a33.191,33.191,0,0,1-5.418-1.153,92.735,92.735,0,0,0-10.068-1.193q-17.369,0-26.4,5.65-1.229,0-6.955-6.8-6.764-6.345-6.8-6.572,0-4.15,19.6-5.841,17.1,0,27.129,3.689l21.711,5.995a72.191,72.191,0,0,0,14.948,1.767h2.114q9.607,0,15.716-3.5a26.547,26.547,0,0,0,6.225-2.73q3.69-1.959,10.837-8.915a37.866,37.866,0,0,0,3.5-4.842,27.282,27.282,0,0,1-8.339-1.731q-4.229-2-7.186-10.3v-1.537a22.553,22.553,0,0,1-.576-4.648q0-10.873,5.034-18.636a11.317,11.317,0,0,1,2.344-1.537q1.3,0,9.683,5.417c.589.255.909.513.961.769q-6.264,6.072-6.955,11.066-.385,0-.577,6.419,1.575,6.184,3.651,6.185,0,.578,3.3.578,3,0,6.225-6.382a16.092,16.092,0,0,1,.96-4.07l-.192-.387a11.043,11.043,0,0,0,.577-3.111q0-7.608-1.922-11.645,0-1.687,5.611-2.306a6.746,6.746,0,0,1,3.3-.805q1.154,1.923,1.153,6.419-1.884,14.908-6.187,23.477a81.046,81.046,0,0,1-8.146,13.179L517,139.5A72.669,72.669,0,0,1,508.277,146.691Zm80.095-9.27a40.844,40.844,0,0,1-4.111,6.65l-2.947,3.316a36.526,36.526,0,0,1-4.4,3.627,31.763,31.763,0,0,1-4.111,2.346,30.667,30.667,0,0,1-4.3,1.377q-2.887.484-5.371.678l-.6-.1h-.484q-4.169,0-12.526-2.151a16.7,16.7,0,0,1-2.734-.582,46.876,46.876,0,0,0-5.08-.6q-8.765,0-13.321,2.851-.621,0-3.51-3.431-3.413-3.2-3.432-3.317,0-2.094,9.889-2.947,8.63,0,13.689,1.862l10.956,3.025a36.411,36.411,0,0,0,7.542.892h1.067a15.834,15.834,0,0,0,7.93-1.764,13.359,13.359,0,0,0,3.141-1.378,28.732,28.732,0,0,0,5.468-4.5,18.948,18.948,0,0,0,1.764-2.443,13.746,13.746,0,0,1-4.207-.874q-2.133-1.007-3.626-5.2v-.776a11.439,11.439,0,0,1-.291-2.345,16.9,16.9,0,0,1,2.54-9.4,5.661,5.661,0,0,1,1.183-.776q.659,0,4.887,2.733c.3.129.459.259.485.388q-3.162,3.065-3.51,5.584-.194,0-.29,3.239.792,3.12,1.841,3.121,0,.291,1.667.292,1.514,0,3.142-3.22a8.15,8.15,0,0,1,.485-2.054l-.1-.2a5.566,5.566,0,0,0,.29-1.569,14.112,14.112,0,0,0-.967-5.876q0-.852,2.829-1.164a3.411,3.411,0,0,1,1.669-.406,6.64,6.64,0,0,1,.58,3.239A37.366,37.366,0,0,1,588.372,137.421Zm78.316,14.794q-6.806,4.926-20.184,4.926a37.331,37.331,0,0,1-15.862-4.014q-4.011-2.135-9.946-7.93-2.385-2.7-4.207-5.119a13.185,13.185,0,0,1-2.212-2.91q-3.761-4.323-5.525-4.827-.369,0-.5,5.023a48.651,48.651,0,0,0,.911,7.231l-.5.407h-.31a13.271,13.271,0,0,1-2.308-1.919,10.4,10.4,0,0,0-2.21-1.609,7.32,7.32,0,0,1-1.9-1.591v-.31q0-4.614,3.413-13.651a30.383,30.383,0,0,1,4.713-7.833,7.234,7.234,0,0,1,3.625-1.105h.6a9.858,9.858,0,0,1,4.014,1.3q2.5,2.772,2.5,5.234,0,2.386-2.6,5.507a16.907,16.907,0,0,1-4.616,2.714v.214q0,.1,2.6,2.6a129.447,129.447,0,0,0,10.042,9.851,36.059,36.059,0,0,0,7.931,4.4,22.6,22.6,0,0,0,8.338,1.921q9.034-.447,9.036-.912a31.231,31.231,0,0,0,5.719-1.8,48.9,48.9,0,0,0,8.435-4.615h.194q.621.1,2.017,4.013a30.216,30.216,0,0,1,1.2,2.813Q669.093,151.014,666.688,152.215Zm4.829-17.023a9.6,9.6,0,0,1-4.751,5.06,14.552,14.552,0,0,1-2.327.6q-4.147,0-5.254-.816-.795,0-2.326-1.821a8.513,8.513,0,0,1-1.221-3.743v-.7a13.545,13.545,0,0,1,2.637-7.679q4.206-4.555,8.376-4.555a4.147,4.147,0,0,1,4.148,2.637,5.344,5.344,0,0,1-2.733,4.846q-1.59,1.533-8.687,4.151v.1q0,2.153,3.239,2.733,2.326-.619,2.327-1.821a2.571,2.571,0,0,0,.6-1.319v-.31l-.1-1.2.291-.212h.31A12.931,12.931,0,0,1,671.517,135Zm17.023,0a9.6,9.6,0,0,1-4.751,5.06,14.579,14.579,0,0,1-2.327.6q-4.149,0-5.254-.816-.795,0-2.327-1.821a8.522,8.522,0,0,1-1.22-3.743v-.7A13.545,13.545,0,0,1,675.3,126.1q4.206-4.555,8.376-4.555a4.148,4.148,0,0,1,4.148,2.637,5.346,5.346,0,0,1-2.733,4.846q-1.59,1.533-8.687,4.151v.1q0,2.153,3.239,2.733,2.327-.619,2.327-1.821a2.571,2.571,0,0,0,.6-1.319v-.31l-.1-1.2.292-.212h.31A12.931,12.931,0,0,1,688.54,135Zm17.026-5.2q-1.262,8.179-2.425,10.372c-.269.453-.465.678-.58.678h-.387a4.838,4.838,0,0,0-1.94-.968l-.2-.291v-.194a49.179,49.179,0,0,0,1.649-8.242l.1-.58q0-3.783-2.135-3.782h-.29a4.684,4.684,0,0,0-2.617,1.745,10.394,10.394,0,0,0-2.036,4.364,31.92,31.92,0,0,0-.874,6.98q0,.446-1.355.776a.086.086,0,0,1-.1-.1l-.486.1h-.58q-1.262,0-1.261-.873a9.936,9.936,0,0,0-.194-1.454.768.768,0,0,1,.1-.292q-.135-1.551-.192-1.744l.1-.194a7.777,7.777,0,0,0-.1-1.068,45.791,45.791,0,0,1,1.744-12.118q.93-2.424,1.261-2.422a.086.086,0,0,1,.1-.1h.678a10.479,10.479,0,0,0,2.521,1.745,6.839,6.839,0,0,1,3.2-.776h.292q4.286,0,5.721,4.362a12.019,12.019,0,0,1,.29,2.715Zm18.982,6.727a44.343,44.343,0,0,1-5.08,3.917c-.57.581-1.027.872-1.378.872q-.348,0-.484-1.666h-.194q-1.028,1.084-4.6,1.085h-.484a6.989,6.989,0,0,1-3.723-1.861,6.639,6.639,0,0,1-2.249-5.274v-1.571q0-2.928,4.207-7.136A7.265,7.265,0,0,0,712.118,124q4.228-2.541,6.652-2.539a12.926,12.926,0,0,0,1.569-.292,5.191,5.191,0,0,1,1.862.388q-.194,1.415-.29,3.819a29.139,29.139,0,0,0,1.861,9.385,3.833,3.833,0,0,1,.776,1.861Zm35.049-46.3c-14.756,17-39.689,21.071-55.657,16.272-7.7-2.314-12.316-6.409-12.992-11.533A16.417,16.417,0,0,1,696.9,80.1a24.74,24.74,0,0,1,22.4-4.508,3.5,3.5,0,0,1-2.041,6.7,17.741,17.741,0,0,0-15.837,3.153,9.548,9.548,0,0,0-3.541,8.8c.277,2.1,3.444,4.356,8.067,5.745,11.061,3.323,33.968,2.417,48.357-14.157,11.128-12.819,33.5-20.352,56.982-19.18C834.385,67.8,853.6,76.91,864.019,91.641c20.549,29.06,55.851,48.182,92.13,49.9a3.5,3.5,0,0,1-.163,7c-.056,0-.112,0-.169,0-38.382-1.822-75.748-22.075-97.513-52.855-9.168-12.964-26.429-21-47.358-22.037C789.54,72.575,769.371,79.165,759.6,90.423ZM983,163.1c-11.739,7.7-26.962,10.586-42.914,10.586-26.858,0-55.786-8.189-73.647-15.41-12.271-4.961-23.119-12.771-33.61-20.325-16.586-11.942-30.913-22.259-45.672-17.623a3.5,3.5,0,0,1-2.095-6.68c18.1-5.676,34.5,6.124,51.857,18.622,10.154,7.312,20.655,14.871,32.143,19.516,25.337,10.244,80.956,24.569,110.1,5.461,12.391-8.123,18.918-21.7,19.4-40.35a3.5,3.5,0,0,1,7,.182C1005.013,138.157,997.422,153.64,983,163.1Zm77.445-113.491h.514l5.386,2.234v.594l-5.386-2.262v2.722h-.514Zm.288,5a1.383,1.383,0,0,1,1.054-.412,1.3,1.3,0,0,1,.86.266,2.157,2.157,0,0,1,.547.766,1.591,1.591,0,0,1,.463-.976,1.413,1.413,0,0,1,.984-.325,1.733,1.733,0,0,1,1.281.524,1.7,1.7,0,0,1,.521,1.237,2,2,0,0,1-.372,1.128h-.659a1.636,1.636,0,0,0,.517-1.1,1.174,1.174,0,0,0-.356-.867,1.234,1.234,0,0,0-.9-.353,1.142,1.142,0,0,0-.848.329,1.255,1.255,0,0,0-.325.923v.51H1063v-.279a1.247,1.247,0,0,0-.306-.878,1.158,1.158,0,0,0-1.553-.067.857.857,0,0,0-.287.649,1.685,1.685,0,0,0,.522,1.132h-.658a2.3,2.3,0,0,1-.378-1.164A1.457,1.457,0,0,1,1060.732,54.609Zm.016,3.895a1.449,1.449,0,0,1,1.122-.438,1.524,1.524,0,0,1,.891.25,4.876,4.876,0,0,1,.892.9,6.775,6.775,0,0,0,1.138,1.173,1.392,1.392,0,0,0,.788.27h.248V57.982h.517v3.227h-.327a3.144,3.144,0,0,1-1.122-.164,1.843,1.843,0,0,1-.655-.405q-.237-.24-1.175-1.313a2.676,2.676,0,0,0-.585-.524,1.09,1.09,0,0,0-.575-.157,1.011,1.011,0,0,0-.757.3.988.988,0,0,0-.292.711,2.076,2.076,0,0,0,.558,1.266h-.635a2.671,2.671,0,0,1-.437-1.319A1.551,1.551,0,0,1,1060.748,58.5Zm-.023,4.355a2.2,2.2,0,0,1,1.071-.594,5.773,5.773,0,0,1,1.5-.184,5.291,5.291,0,0,1,1.583.234,2.459,2.459,0,0,1,1.158.708,1.571,1.571,0,0,1,.407,1.045,1.959,1.959,0,0,1-.3.965h-.624a1.285,1.285,0,0,0,.4-.906,1.128,1.128,0,0,0-.2-.645,1.58,1.58,0,0,0-.645-.514,2.714,2.714,0,0,0-.87-.266,9.558,9.558,0,0,0-1.074-.051,1.625,1.625,0,0,1,.916,1.327,1.253,1.253,0,0,1-.506,1.02,1.991,1.991,0,0,1-1.29.406,2.093,2.093,0,0,1-1.355-.44,1.435,1.435,0,0,1-.166-2.1Zm-.013,4.01a1.218,1.218,0,0,1,.941-.406,1.317,1.317,0,0,1,.757.233,2.72,2.72,0,0,1,.69.776,2.537,2.537,0,0,1,.717-1.009,1.488,1.488,0,0,1,.912-.283,1.593,1.593,0,0,1,1.243.519,1.783,1.783,0,0,1,.47,1.238,1.732,1.732,0,0,1-.452,1.21,1.444,1.444,0,0,1-1.115.5,1.288,1.288,0,0,1-.845-.3,3.266,3.266,0,0,1-.727-.969,1.711,1.711,0,0,1-1.465.983,1.475,1.475,0,0,1-1.066-.413,1.416,1.416,0,0,1-.43-1.067A1.448,1.448,0,0,1,1060.712,66.869Zm-.543,3.329h.532v2.293h2.306V70.336h.5v2.155h2.837v.6h-6.175Zm0,4.029h5.21a1.218,1.218,0,0,1,.8.221.814.814,0,0,1,.266.663,1.375,1.375,0,0,1-.1.532h-.641a.779.779,0,0,0,.136-.416.356.356,0,0,0-.126-.3.77.77,0,0,0-.453-.1h-5.091Zm0,4.873h2.683V76.927h-2.683v-.6h6.175v.6h-2.969V79.1h2.969v.6h-6.175Zm0,3.633a1.8,1.8,0,0,1,.8-1.611,4.251,4.251,0,0,1,2.335-.531,5.015,5.015,0,0,1,1.584.241,2.111,2.111,0,0,1,1.089.744,1.926,1.926,0,0,1,.363,1.157v1.425h-6.175Zm.324,2.625h.8a3.293,3.293,0,0,0-.492.635,1.118,1.118,0,0,0-.132.529,1.071,1.071,0,0,0,1.058,1.081.848.848,0,0,0,.67-.278,3.723,3.723,0,0,0,.543-1,3.924,3.924,0,0,1,.358-.706,1.424,1.424,0,0,1,.514-.447,1.577,1.577,0,0,1,.757-.18,1.859,1.859,0,0,1,1.872,1.851,2.431,2.431,0,0,1-.51,1.381h-.774a4.4,4.4,0,0,0,.529-.768,1.349,1.349,0,0,0,.144-.6,1.247,1.247,0,0,0-.345-.862,1.163,1.163,0,0,0-.9-.379,1.01,1.01,0,0,0-.695.248,2.583,2.583,0,0,0-.54.961q-.53,1.4-1.611,1.4a1.6,1.6,0,0,1-1.184-.5,1.644,1.644,0,0,1-.489-1.194A2.054,2.054,0,0,1,1060.493,85.358Zm5.222,38a1.58,1.58,0,0,0-.645-.514,2.714,2.714,0,0,0-.87-.266,9.558,9.558,0,0,0-1.074-.051,1.625,1.625,0,0,1,.916,1.327,1.253,1.253,0,0,1-.506,1.02,1.991,1.991,0,0,1-1.29.406,2.093,2.093,0,0,1-1.355-.44,1.435,1.435,0,0,1-.166-2.1,2.2,2.2,0,0,1,1.071-.594,5.773,5.773,0,0,1,1.5-.184,5.291,5.291,0,0,1,1.583.234,2.459,2.459,0,0,1,1.158.708,1.569,1.569,0,0,1,.407,1.045,1.962,1.962,0,0,1-.3.965h-.624a1.285,1.285,0,0,0,.4-.906A1.128,1.128,0,0,0,1065.715,123.359Zm.629-31.539v.657l-6.175-1.7v-.591l6.175-1.723v.673l-2.134.524V91.3Zm-4.93,28.978h-.635a2.671,2.671,0,0,1-.437-1.319,1.551,1.551,0,0,1,.406-1.1,1.449,1.449,0,0,1,1.122-.438,1.524,1.524,0,0,1,.891.25,4.876,4.876,0,0,1,.892.9,6.775,6.775,0,0,0,1.138,1.173,1.392,1.392,0,0,0,.788.27h.248v-2.678h.517v3.227h-.327a3.144,3.144,0,0,1-1.122-.164,1.843,1.843,0,0,1-.655-.405q-.237-.242-1.175-1.313a2.676,2.676,0,0,0-.585-.524,1.091,1.091,0,0,0-.575-.158,1.012,1.012,0,0,0-.757.3.988.988,0,0,0-.292.711A2.076,2.076,0,0,0,1061.414,120.8Zm4.576-4.242a1.446,1.446,0,0,1-1.115.5,1.288,1.288,0,0,1-.845-.3,3.253,3.253,0,0,1-.727-.969,1.712,1.712,0,0,1-1.465.984,1.476,1.476,0,0,1-1.066-.414,1.414,1.414,0,0,1-.43-1.067,1.448,1.448,0,0,1,.37-1.012,1.218,1.218,0,0,1,.941-.406,1.31,1.31,0,0,1,.757.234,2.714,2.714,0,0,1,.69.775,2.552,2.552,0,0,1,.717-1.009,1.5,1.5,0,0,1,.912-.283,1.593,1.593,0,0,1,1.243.519,1.783,1.783,0,0,1,.47,1.238A1.735,1.735,0,0,1,1065.99,116.556Zm.08-4.018h-.659a1.636,1.636,0,0,0,.517-1.1,1.178,1.178,0,0,0-.356-.868,1.237,1.237,0,0,0-.9-.352,1.142,1.142,0,0,0-.848.329,1.253,1.253,0,0,0-.325.923v.509H1063V111.7a1.251,1.251,0,0,0-.306-.879,1.053,1.053,0,0,0-.811-.334,1.042,1.042,0,0,0-.742.268.855.855,0,0,0-.287.648,1.687,1.687,0,0,0,.522,1.133h-.658a2.3,2.3,0,0,1-.378-1.164,1.457,1.457,0,0,1,.39-1.044,1.383,1.383,0,0,1,1.054-.412,1.3,1.3,0,0,1,.86.266,2.143,2.143,0,0,1,.547.765,1.588,1.588,0,0,1,.463-.975,1.413,1.413,0,0,1,.984-.326,1.73,1.73,0,0,1,1.281.525,1.7,1.7,0,0,1,.521,1.237A2,2,0,0,1,1066.07,112.538Zm.274-10.781v.557h-1.686v2.245h-.518l-3.7-2.241v-.561h3.7v-.743h.518v.743Zm-5.386,3.567,5.386,2.235v.593l-5.386-2.261v2.721h-.514v-3.288Zm5.187-5.35h-.624a1.287,1.287,0,0,0,.4-.907,1.125,1.125,0,0,0-.2-.644,1.59,1.59,0,0,0-.645-.515,2.736,2.736,0,0,0-.87-.265,9.325,9.325,0,0,0-1.074-.051,1.624,1.624,0,0,1,.916,1.326,1.257,1.257,0,0,1-.506,1.021,2,2,0,0,1-1.29.406,2.093,2.093,0,0,1-1.355-.441,1.434,1.434,0,0,1-.166-2.1,2.189,2.189,0,0,1,1.071-.595,5.774,5.774,0,0,1,1.5-.183,5.291,5.291,0,0,1,1.583.234,2.443,2.443,0,0,1,1.158.708,1.567,1.567,0,0,1,.407,1.045A1.962,1.962,0,0,1,1066.145,99.974Zm-.155-4.2a1.446,1.446,0,0,1-1.115.5,1.287,1.287,0,0,1-.845-.3,3.266,3.266,0,0,1-.727-.969,1.711,1.711,0,0,1-1.465.983,1.475,1.475,0,0,1-1.066-.413,1.416,1.416,0,0,1-.43-1.067,1.447,1.447,0,0,1,.37-1.012,1.218,1.218,0,0,1,.941-.406,1.317,1.317,0,0,1,.757.233,2.72,2.72,0,0,1,.69.776,2.537,2.537,0,0,1,.717-1.009,1.488,1.488,0,0,1,.912-.283,1.59,1.59,0,0,1,1.243.519,1.782,1.782,0,0,1,.47,1.237A1.733,1.733,0,0,1,1065.99,95.775Zm-12.643-46.192a.5.5,0,0,1,1,0v82.306a.5.5,0,0,1-1,0ZM1066,152.305l.049.15-.127-.092a8.842,8.842,0,0,1-10.428,0l-.127.092.049-.15a8.869,8.869,0,0,1-3.181-9.886l-.168-.123h.213a8.916,8.916,0,0,1,8.352-6.044l.076-.234.077.234a8.917,8.917,0,0,1,8.352,6.044h.213l-.168.123a8.868,8.868,0,0,1-3.182,9.886Z"/>
    <path d="M718.674,124.314l-.486-.1a10.933,10.933,0,0,0-4.886,2.541,6.82,6.82,0,0,0-2.347,5.661q0,2.135,2.637,2.444a4.24,4.24,0,0,0,3.918-2.25v-.1q0-.27-.1-1.958a47.325,47.325,0,0,0,.874-4.692q.173,0,.388-1.358Z"/>
    <path d="M615.577,124.411v-.7Q615.013,121,612.862,121h-.5q-.891,0-2.4,4.711-.291,1.065-.892,3.625l.194.1q1.918,0,5.021-2.5A5.731,5.731,0,0,0,615.577,124.411Z"/>
  </g>
</svg>
