<svg id="Logos" xmlns="http://www.w3.org/2000/svg" xmlns:xlink="http://www.w3.org/1999/xlink" width="1100" height="200" viewBox="0 0 1100 200">
  <defs>
    <style>
      .cls-1, .cls-2, .cls-3, .cls-4 {
        fill: none;
      }

      .cls-2, .cls-3 {
        stroke: #231f20;
      }

      .cls-2 {
        stroke-width: 0.5px;
      }

      .cls-3 {
        stroke-width: 7.2px;
      }

      .cls-4 {
        stroke: #000;
        stroke-linecap: round;
        stroke-linejoin: round;
        stroke-width: 3px;
      }

      .cls-5 {
        fill: url(#Scotch_Rule_4);
      }
    </style>
    <pattern id="Scotch_Rule_4" data-name="Scotch Rule 4" width="87.84" height="72" patternTransform="translate(0 216)" patternUnits="userSpaceOnUse" viewBox="0 0 87.84 72">
      <rect class="cls-1" width="87.84" height="72"/>
      <line class="cls-2" x1="43.92" y1="72" x2="43.92"/>
      <line class="cls-2" x1="14.64" y1="72" x2="14.64"/>
      <line class="cls-2" x1="73.2" y1="72" x2="73.2"/>
      <line class="cls-3" x1="49.76" y1="72" x2="49.76"/>
      <line class="cls-3" x1="20.48" y1="72" x2="20.48"/>
      <line class="cls-3" x1="79.04" y1="72" x2="79.04"/>
      <line class="cls-3" x1="8.8" y1="72" x2="8.8"/>
      <line class="cls-3" x1="38.08" y1="72" x2="38.08"/>
      <line class="cls-3" x1="67.36" y1="72" x2="67.36"/>
    </pattern>
  </defs>
  <title>poems</title>
  <path class="cls-4" d="M24.872,22.592c5.96-5.96,522.818-1.987,542.5-3.973s502.4-4.967,506.37,0,11.626,157.926,6.806,163.885S32.818,185.484,24.872,178.531,24.872,22.592,24.872,22.592Z"/>
  <g>
    <path d="M689.564,125.985l-4.624-4.623H684.7a9.677,9.677,0,0,1-3.772-4.624v-1.7a11.116,11.116,0,0,1,2.494-7.666q2.493-2.8,7.969-3.042a.529.529,0,0,0,.244-.06.541.541,0,0,1,.244-.061l3.77-26.524a16.336,16.336,0,0,1-2.189.3c-.65.042-1.216.061-1.7.061a8.709,8.709,0,0,1-6.449-2.312l-4.38-4.258q-4.626-2.19-4.624-9.734a35.322,35.322,0,0,1,.365-4.988l.122-.243q4.988-19.347,27.011-20.684h14.844a14.931,14.931,0,0,1,2.615.729q1.278.489,2.616,1.1a7.075,7.075,0,0,1,.366.851l5.475,5.475q.606,1.341,2.859,8.7t6.145,20.988l19.952-35.892a10.494,10.494,0,0,1,2.5-1.4,9.6,9.6,0,0,1,2.25-.548h20.563l1.947.243a7.129,7.129,0,0,1,2.25,1.277,7.877,7.877,0,0,1,1.521,1.764.712.712,0,0,0,.121.488l4.624,4.623a5.154,5.154,0,0,1,.974,1.338q.243,1.1.426,1.947a7.565,7.565,0,0,1,.182,1.582q0,4.26-3.649,8.638a24.57,24.57,0,0,1-3.1.974q-1.523.364-3.224.608l-.122.243-6.814,47.938a3.749,3.749,0,0,1,.791.791q.3.427.67.912v.122l4.379,4.38q.73.853,1.338,1.7v1.582q0,10.218-8.881,10.22h-1.216a5.573,5.573,0,0,1-1.1-.122H747.6l-5.6-5.6-.73,1.217a5.3,5.3,0,0,1-1.46,2.129,34.8,34.8,0,0,1-2.677,2.251h-7.178l-2.312-1.582-3.406-3.406c-.083.243-.164.507-.245.791s-.163.546-.242.79l-9.489-1.7-3.319,5.11H690.9a13.616,13.616,0,0,1-1.337-1.1,3.267,3.267,0,0,1-.731-.608Zm.365-57.062q8.514-7.056,4.866-15.818a16.25,16.25,0,0,1,7.057-1.459v1.216l.121,1.461L694.43,106.4a13.828,13.828,0,0,1-2.433.73q-8.881.123-8.274,8.882a5.335,5.335,0,0,0,1.826,2.555h27.5l1.094-.73,1.461-1.582a12.815,12.815,0,0,0,.73-3.346,21.683,21.683,0,0,0,0-3.224,5.37,5.37,0,0,0-1.947-2.068,19.851,19.851,0,0,1-2.92-.426,21.868,21.868,0,0,1-2.676-.791l-.123-1.095.123-.73,3.771-26.4,10.1,37.109.972,2.555,1.1.73H730.2a7.686,7.686,0,0,0,2.8-3.042l22.023-40.029a13.444,13.444,0,0,1-.366,4.137l-3.649,27.01-1.947.487q-9.006,0-8.395,8.639a9.76,9.76,0,0,0,1.824,2.8h26.89q8.758,1.341,8.395-8.395-2.436-3.528-7.908-3.894l7.543-53.17.486-1.459.609-.852a26.007,26.007,0,0,0,3.468-.425,19.5,19.5,0,0,0,2.859-.791q3.649-4.38,2.311-9.126a3.506,3.506,0,0,0-2.069-1.582l-1.459-.243H763.66a6.7,6.7,0,0,0-2.8.974L737.014,82.428a12.007,12.007,0,0,0-.972,1.581,11.11,11.11,0,0,0-.61,1.461l-.851-1.461-.121-.851q-5.6-20.559-8.821-31.269T721.684,39.6a6.393,6.393,0,0,0-1.4-.609,10.577,10.577,0,0,0-1.886-.365H703.92q-19.954,1.341-24.456,18.615Q676.911,72.453,689.929,68.923Z"/>
    <path d="M56.282,57.607q4.38-19.222,24.7-21.778h27.132l1.825.243,2.555,1.217a1.1,1.1,0,0,1,.3.608,1.074,1.074,0,0,0,.3.608l.852.852a17.159,17.159,0,0,1,2.068-1.764q1.1-.789,2.434-1.764h31.269l2.19.851a7.4,7.4,0,0,0,.487.852q.242.366.486.73l4.988,4.867a10.972,10.972,0,0,1,2.556,6.813,20.031,20.031,0,0,1-.609,4.016Q156.9,58.7,150.211,59.8L146.074,90.58a69.651,69.651,0,0,0-1.825,14.844q0,16.912,9.733,29.443a60.188,60.188,0,0,0,6.327,5.232l2.129.609,2.981.851q1.215.243,2.312.365a19.032,19.032,0,0,0,2.068.122,32.622,32.622,0,0,0,14.6-3.771q1.459-7.424,9-10.586,9,.611,11.194,4.988l4.623,4.624a6.577,6.577,0,0,1,1.825,4.867q0,4.864-6.448,13.019a41.778,41.778,0,0,1-4.319,3.589,27.417,27.417,0,0,1-4.2,2.494l-2.19,1.095-5.353,1.825h-.731l-1.581.487-3.164.486a19.984,19.984,0,0,1-2.311.365q-1.218.12-2.555.122h-4.5a12.223,12.223,0,0,1-1.7.121h-1.582q-18.981,0-33.338-14.357l-1.7-1.7q-1.218-.976-2.373-2.008t-2.251-2.129q-16.425-18.009-16.425-46.235V94.96h-9.369a15.711,15.711,0,0,0-.365,2.008q-.121,1.033-.243,2.372l-1.216,7.787a2.749,2.749,0,0,0,.425.365,3.047,3.047,0,0,1,.426.365,1.831,1.831,0,0,0,.244.73l5.474,5.475a12.245,12.245,0,0,1,.731,3.772,14.234,14.234,0,0,1-.3,2.738q-.306,1.521-.791,3.223a13.728,13.728,0,0,1-5.11,4.137H72.95a16.628,16.628,0,0,1-2.8-2.311l-3.407-3.407h-.121a12.321,12.321,0,0,1-2.13-1.764q-1.158-1.155-2.129-2.251a8.354,8.354,0,0,1-.243-1.7v-1.338q0-10.1,10.22-10.707l3.65-26.767A15.7,15.7,0,0,1,71,78.535a7.894,7.894,0,0,1-5.84-2.069l-4.5-4.5q-4.626-2.189-4.623-9.976c0-.649.018-1.318.06-2.008s.1-1.357.183-2.008Zm13.87,11.316q8.029-7.3,4.624-15.7a12.634,12.634,0,0,1,7.543-1.581v1.581L74.9,106.4l-1.216.73q-9.736,0-8.639,9.977.608.61,1.216,1.217a8.551,8.551,0,0,0,1.339,1.095H97.528a10.8,10.8,0,0,0,3.528-2.921q1.337-4.38.486-7.057a8.031,8.031,0,0,0-6.326-2.311l-1.46-.122,2.068-14.114a24.563,24.563,0,0,1,1.217-6.447h15.7a26.094,26.094,0,0,1,2.981-.062,11.762,11.762,0,0,1,2.251.3q-4.38,35.528,14.844,56.941,14.965,14.843,34.554,13.506h4.745a16.137,16.137,0,0,0,4.5-.488l1.582-.243,1.581-.243,1.582-.487h.73l4.623-1.582L188.9,153a35.2,35.2,0,0,0,7.787-5.475q13.019-15.94-2.555-17.035a10.578,10.578,0,0,0-7.178,9.734q-11.439,5.961-22.266,4.137a29.624,29.624,0,0,1-5.719-1.826Q129.4,121.486,137.557,83.766l4.258-30.782L142.3,51.4q6.57-.609,9.247-4.745,1.095-4.623-1.217-7.545l-1.217-.486h-29.93a26.329,26.329,0,0,0-2.129,1.642,7.809,7.809,0,0,0-1.521,1.765,18.363,18.363,0,0,0-.244,6.57l1.339,1.217,1.095.608a9.546,9.546,0,0,1,5.11,1.217l-2.92,20.2H98.988l2.92-20.2,1.217-.731a8.263,8.263,0,0,0,8.03-4.257,9.332,9.332,0,0,0-.73-7.3l-1.095-.487-1.582-.243h-26.4Q62.85,41.061,59.08,58.215,57.133,73.426,70.152,68.923ZM118.333,55.3a11.013,11.013,0,0,1-8.152,4.137l-1.46,9.611h8.76l1.826-12.9-.244-.244Zm90.4,81.518a.667.667,0,0,1,.3.244.956.956,0,0,0,.182.243Z"/>
    <path d="M166.938,41.913q6.142-5.476,16.973-6.814h28.957a9.82,9.82,0,0,1,4.259,4.258l4.137,4.015a8.864,8.864,0,0,1,2.068,3.042,16.866,16.866,0,0,1-.851,5.354,21.606,21.606,0,0,1-2.556,5.11q-2.07.609-3.832.973a17.7,17.7,0,0,1-3.59.364h-.243v.123h-.121l-6.692,47.816a5.651,5.651,0,0,1,1.338,1.825l4.745,4.623a7.436,7.436,0,0,1,1.825,5.475,20.069,20.069,0,0,1-1.216,6.084q-.975.975-1.887,1.764a11.721,11.721,0,0,1-2.007,1.4h-34.8a1.9,1.9,0,0,0-.366-.3,1.684,1.684,0,0,1-.365-.3l-5.109-5.11h-.366a8.388,8.388,0,0,1-1.764-1.825q-.792-1.1-1.886-2.555c-.163-.731-.264-1.236-.3-1.522a5.393,5.393,0,0,1-.061-.79,11.987,11.987,0,0,1,.974-4.563,15.869,15.869,0,0,1,3.285-4.8,21.688,21.688,0,0,1,6.813-1.339q.243-1.579.73-3.528l3.285-23.848a10.531,10.531,0,0,1-2.494.609,20.519,20.519,0,0,1-2.129.122,8.218,8.218,0,0,1-6.083-2.191l-4.5-4.38q-4.5-2.308-4.5-9.855c0-.648.019-1.236.061-1.765s.1-1.113.182-1.764v-.729Q160.793,47.386,166.938,41.913Zm5.779,26.158q8.031-7.177,4.624-15.695a12.885,12.885,0,0,1,7.057-1.582,13.96,13.96,0,0,1,.061,2.19q-.063.975-.183,1.947l-6.449,46.113q-.364,1.583-.608,2.858t-.365,2.252l-1.216.851a20.713,20.713,0,0,0-6.571.974q-3.65,4.016-2.919,8.273a16.5,16.5,0,0,0,1.094,1.582,5.446,5.446,0,0,0,.974.973h33.216a15.043,15.043,0,0,0,2.555-2.069q3.4-10.584-6.814-9.733a2.19,2.19,0,0,1-.73-1.947c0-.81.019-1.539.061-2.189a8.5,8.5,0,0,1,.3-1.825l7.057-50.858q.972-.122,1.582-.244a8.035,8.035,0,0,0,.973-.243,17.343,17.343,0,0,0,2.981-.243,19.536,19.536,0,0,0,2.859-.731,13.88,13.88,0,0,0,2.555-7.908,5.891,5.891,0,0,0-2.676-2.92H184.154q-18.979,2.313-22.508,19.589Q159.7,72.45,172.717,68.071Z"/>
    <path d="M245.354,34.856h32.972q12.653.364,18.859,9.733l2.92,2.92a25.483,25.483,0,0,1,6.084,10.706l.486,3.651.487.73Q304,96.3,268.958,96.42l-1.46,10.463a8.033,8.033,0,0,1,1.7,2.069l4.38,4.38a9.131,9.131,0,0,1,1.825,3.163q0,10.585-9.611,10.586h-28.35a6.923,6.923,0,0,1-1.824-1.339l-4.381-4.38a8.109,8.109,0,0,1-2.737-2.19,8.815,8.815,0,0,1-1.4-2.92v-1.459q0-9.977,9.49-10.708l3.893-27.619a16.488,16.488,0,0,1-4.988.852,8.054,8.054,0,0,1-5.962-2.19l-4.38-4.38q-4.746-2.19-4.745-10.1c0-.649.019-1.236.061-1.765s.1-1.074.182-1.643v-.608Q224.671,37.412,245.354,34.856ZM234.4,67.828q8.149-7.055,4.623-15.695a13.861,13.861,0,0,1,7.057-1.583,1.479,1.479,0,0,1,.73,1.583l-7.543,53.534a2.771,2.771,0,0,1-1.339,1.095q-8.64.246-8.03,9a4.682,4.682,0,0,0,2.068,2.8h27.376q7.542.246,7.543-8.03-.975-3.405-8.395-4.38a2.013,2.013,0,0,0-.122-.973L260.806,87.9q34.918.73,37.717-30.9l-.243-.486-.608-4.137q-4.26-14.235-19.346-14.722H245.719Q227.1,40.09,223.453,57.242,221.629,72.208,234.4,67.828Zm36.865,4.624a18.714,18.714,0,0,1-8.516,1.094l2.311-16.3q.243-1.7.426-3.163a10.728,10.728,0,0,1,.67-2.676q11.191-.974,12.288,8.638Q278.2,69.046,271.269,72.452Zm1.7-4.624a7.389,7.389,0,0,0,1.886-3.224,24.363,24.363,0,0,0,.791-4.32.253.253,0,0,0-.061-.182.243.243,0,0,1-.061-.183,3.754,3.754,0,0,1-.609-.06,5.181,5.181,0,0,0-.851-.062,6.152,6.152,0,0,0-.122,1.218,5.631,5.631,0,0,1-.122,1.094,3.579,3.579,0,0,0-.121.853,3.629,3.629,0,0,1-.122.851Z"/>
    <path d="M332.347,34.856h32.972q12.652.364,18.86,9.733l2.919,2.92a25.483,25.483,0,0,1,6.084,10.706l.487,3.651.486.73q-3.165,33.7-38.2,33.824l-1.46,10.463a8.013,8.013,0,0,1,1.7,2.069l4.38,4.38A9.131,9.131,0,0,1,362.4,116.5q0,10.585-9.611,10.586H324.439a6.911,6.911,0,0,1-1.825-1.339l-4.381-4.38a8.109,8.109,0,0,1-2.737-2.19,8.815,8.815,0,0,1-1.4-2.92v-1.459q0-9.977,9.49-10.708l3.893-27.619a16.483,16.483,0,0,1-4.988.852,8.054,8.054,0,0,1-5.962-2.19l-4.38-4.38q-4.746-2.19-4.745-10.1c0-.649.019-1.236.061-1.765s.1-1.074.182-1.643v-.608Q311.664,37.412,332.347,34.856ZM321.4,67.828q8.149-7.055,4.623-15.695a13.861,13.861,0,0,1,7.057-1.583,1.479,1.479,0,0,1,.73,1.583l-7.543,53.534a2.771,2.771,0,0,1-1.339,1.095q-8.64.246-8.03,9a4.682,4.682,0,0,0,2.068,2.8h27.376q7.542.246,7.544-8.03-.976-3.405-8.395-4.38a2.008,2.008,0,0,0-.123-.973L347.8,87.9q34.918.73,37.718-30.9l-.244-.486-.608-4.137q-4.26-14.235-19.346-14.722H332.712Q314.1,40.09,310.447,57.242,308.622,72.208,321.4,67.828Zm36.865,4.624a18.714,18.714,0,0,1-8.516,1.094l2.311-16.3q.243-1.7.426-3.163a10.728,10.728,0,0,1,.67-2.676q11.191-.974,12.288,8.638Q365.2,69.046,358.262,72.452Zm1.7-4.624a7.389,7.389,0,0,0,1.886-3.224,24.363,24.363,0,0,0,.791-4.32.253.253,0,0,0-.061-.182.243.243,0,0,1-.061-.183,3.733,3.733,0,0,1-.608-.06,5.2,5.2,0,0,0-.852-.062,6.15,6.15,0,0,0-.121,1.218,5.71,5.71,0,0,1-.122,1.094,3.535,3.535,0,0,0-.122.853,3.629,3.629,0,0,1-.122.851Z"/>
    <path d="M431.264,34.733q2.19-.241,3.772-.3t2.919-.062q18.006,0,26.768,11.681l3.285,3.285q9.125,9.124,10.585,28.471-2.435,41.612-39.421,51.588H428.1a29.67,29.67,0,0,1-19.1-8.639l-3.163-3.042a37.18,37.18,0,0,1-6.388-6.509,40.568,40.568,0,0,1-5.049-8.821,50.858,50.858,0,0,1-2.312-15.452q0-12.288,5.719-26.159V60.65Q408.875,39.844,431.264,34.733Zm-34.19,66.919q7.909,17.765,25.186,19.223h10.707q34.918-9.49,37.109-49.154-2.8-37.838-37.839-34.31-21.659,4.867-31.877,24.455Q391.354,83.282,397.074,101.652Zm31.27,6.084Q411.673,105.3,415.325,79.63q3.285-26.035,20.806-29.08,17.274,3.044,12.9,28.593Q446.108,104.939,428.344,107.736Zm17.885-29.2a45.548,45.548,0,0,0,.669-4.806q.183-2.25.183-4.077a20.3,20.3,0,0,0-2.069-9.611,10.379,10.379,0,0,0-1.338-.425q-.73-.183-1.582-.427-15.33,2.921-18.25,26.889-.365,2.313-.487,4.38t-.121,3.772a26.911,26.911,0,0,0,1.46,9.612,17.855,17.855,0,0,0,3.528,1.095q15.207-2.555,18.007-26.038Z"/>
    <path d="M514.363,86.93q2.065-41.367,41.489-51.1h12.41l9.734,2.8q3.769-3.039,7.3-3.041a17.663,17.663,0,0,1,6.813,1.946v.609l5.719,5.718v2.676q0,2.315-.366,9.065t-1.216,17.946a14.671,14.671,0,0,1-1.582,3.772l-.852.852A12.212,12.212,0,0,1,587,80.238a19.932,19.932,0,0,1-4.015-.608.725.725,0,0,1-.487-.487l-5.11-4.989a.983.983,0,0,0-.365-.121.345.345,0,0,1-.243-.122,21.651,21.651,0,0,1-1.825-2.068,11.974,11.974,0,0,1-1.46-2.434,27.956,27.956,0,0,0-1.947-8.151,9.651,9.651,0,0,0-1.46-.365,8.99,8.99,0,0,0-1.46-.122,25.855,25.855,0,0,0-8.273,1.7h-.122q-9.247,5.355-12.046,17.4a40.284,40.284,0,0,0-1.7,11.559,48.9,48.9,0,0,0,.852,8.881q.241.61.547,1.217t.548,1.216a11.308,11.308,0,0,0,5.718,1.461q4.5,0,11.315-3.406a12.2,12.2,0,0,1,1.947-5.6,22.2,22.2,0,0,1,4.867-5.231A16.756,16.756,0,0,1,577.509,89a13.016,13.016,0,0,1,6.448,1.7,7.493,7.493,0,0,0,.73,1.035q.366.427.73.912l4.5,4.5a12.311,12.311,0,0,1,3.164,8.031,19.485,19.485,0,0,1-1.582,6.934q-14.966,17.279-35.528,17.278a53.271,53.271,0,0,1-8.76-.73q-10.466-2.312-16.669-8.639l-2.8-2.676q-12.775-9.369-13.383-30.175Zm27.253,33.216q24.821,4.014,41.733-15.453,2.921-7.053-.974-11.68a10.613,10.613,0,0,0-8.881-.486q-5.721,4.624-5.232,10.1-21.292,11.681-29.323-7.787a45.517,45.517,0,0,1,.852-21.778q3.04-13.019,13.627-18.981Q574.1,46.78,576.292,68.8a6.275,6.275,0,0,0,1.825,2.555,9.715,9.715,0,0,0,8.274-1.338c.324-.566.588-1.075.791-1.521s.384-.871.547-1.278q1.945-26.4,1.582-27.862-5.841-2.8-10.586,2.311l-10.707-3.041H556.1q-36.865,9.126-38.934,48.425Q518.133,114.914,541.616,120.146Z"/>
    <path d="M631.529,43.25a11.4,11.4,0,0,1,5.353-5.353,8.42,8.42,0,0,1,1.035-.183c.365-.039.912-.06,1.642-.06a8.451,8.451,0,0,1,4.32,1.095,14.527,14.527,0,0,1,3.589,3.041l.121.488,4.745,4.745h-.121l.243.121a1.359,1.359,0,0,0,.243.365,1.509,1.509,0,0,1,.244.365l.243.122,12.045,52.2a164.009,164.009,0,0,0,7.727,22.936,84.437,84.437,0,0,0,8.7,15.877,21.621,21.621,0,0,0,5.111,3.346,16.318,16.318,0,0,0,5.352,1.4h1.339q6.935,0,14.722-5.354a13.191,13.191,0,0,1-1.825-6.083q0-6.206,7.908-10.342a12.158,12.158,0,0,1,2.981-.974,16.067,16.067,0,0,1,2.738-.243q5.111,0,8.638,5.11l4.015,4.015a16.826,16.826,0,0,1,3.163,4.867v1.46q0,7.178-5.11,14.844a34.649,34.649,0,0,1-8.151,7.908l-.853.609-7.664,4.136-4.867,1.7a49.709,49.709,0,0,1-12.531,1.825q-16.793,0-29.81-13.019l-1.825-1.825q-13.262-10.343-23-33.094a23.984,23.984,0,0,1-1.7-4.684q-1.1-3.71-2.8-9.917H627.149l-4.016,5.963,2.556,2.433a.359.359,0,0,0-.244-.122l-.121-.121.365.243a6.256,6.256,0,0,1,1.7,4.623,15.753,15.753,0,0,1-2.19,7.057,25.044,25.044,0,0,1-2.25,1.338,13.292,13.292,0,0,1-2.373.974h-20.2a11.869,11.869,0,0,1-5.233-2.8l-4.135-4.016a9.148,9.148,0,0,1-3.773-3.893l.851-6.571q2.676-4.621,7.18-5.11l35.284-59.861Zm1.46,3.042L597.582,106.4l-1.337.973a6.281,6.281,0,0,0-5.354,3.164l-.73,5.353q.849,1.706,4.258,2.677H614.13a11.741,11.741,0,0,0,3.042-1.46q4.866-9.246-4.137-9.977l.608-1.7,6.084-9.247H638.1l.244.487q5.6,20.685,6.205,21.535,20.805,47.936,57.062,39.056l5.475-1.947,7.3-3.894.608-.486a31.786,31.786,0,0,0,7.666-7.3q4.988-7.546,4.623-14.479-3.651-8.031-11.8-4.623-10.467,5.109-3.529,14.722-9.612,7.785-19.832,7.3-21.051-1.46-35.283-51.831L644.913,43.129a7.048,7.048,0,0,0-7.179-2.434,8.124,8.124,0,0,0-3.771,4.137Zm.73,26.646.121.973.487,1.7,2.19,6.935-.972.243h-8.639l.607-.73,1.34-2.555.486-.73,3.894-7.057Zm98.552,56.7-.243-.243Z"/>
    <path d="M820.965,34.856h32.972q12.652.364,18.859,9.733l2.92,2.92A25.483,25.483,0,0,1,881.8,58.215l.486,3.651.487.73q-3.165,33.7-38.2,33.824l-1.46,10.463a8.013,8.013,0,0,1,1.7,2.069l4.38,4.38a9.135,9.135,0,0,1,1.826,3.163q0,10.585-9.613,10.586H813.056a6.939,6.939,0,0,1-1.824-1.339l-4.38-4.38a8.094,8.094,0,0,1-2.738-2.19,8.836,8.836,0,0,1-1.4-2.92v-1.459q0-9.977,9.49-10.708L816.1,76.466a16.483,16.483,0,0,1-4.988.852,8.056,8.056,0,0,1-5.962-2.19l-4.381-4.38q-4.745-2.19-4.745-10.1c0-.649.02-1.236.062-1.765s.1-1.074.182-1.643v-.608Q800.282,37.412,820.965,34.856Zm-10.95,32.972q8.149-7.055,4.623-15.695A13.861,13.861,0,0,1,821.7,50.55a1.478,1.478,0,0,1,.729,1.583l-7.543,53.534a2.767,2.767,0,0,1-1.337,1.095q-8.641.246-8.032,9a4.687,4.687,0,0,0,2.069,2.8h27.376q7.542.246,7.543-8.03-.975-3.405-8.395-4.38a2.027,2.027,0,0,0-.122-.973L836.417,87.9q34.918.73,37.717-30.9l-.243-.486-.609-4.137q-4.259-14.235-19.345-14.722H821.33q-18.615,2.436-22.266,19.588Q797.24,72.208,810.015,67.828Zm36.865,4.624a18.714,18.714,0,0,1-8.516,1.094l2.311-16.3q.245-1.7.427-3.163a10.684,10.684,0,0,1,.669-2.676q11.192-.974,12.288,8.638Q853.813,69.046,846.88,72.452Zm1.705-4.624A7.4,7.4,0,0,0,850.47,64.6a24.363,24.363,0,0,0,.791-4.32.253.253,0,0,0-.062-.182.246.246,0,0,1-.06-.183,3.744,3.744,0,0,1-.609-.06,5.173,5.173,0,0,0-.851-.062,6.152,6.152,0,0,0-.122,1.218,5.7,5.7,0,0,1-.121,1.094,3.485,3.485,0,0,0-.122.853,3.629,3.629,0,0,1-.122.851Z"/>
    <path d="M883.26,53.715q7.665-16.911,26.767-17.886h25.794a13.592,13.592,0,0,1,5.11,4.623l2.92,3.042q.243-.972.548-1.947t.669-1.946l.973-.974a.994.994,0,0,1,.243-.182.945.945,0,0,0,.243-.183q.851-.608,1.7-1.277a9.2,9.2,0,0,1,1.947-1.156h26.4a14.1,14.1,0,0,1,2.5,1.46,15.413,15.413,0,0,1,2.493,2.434l-.121.486,5.476,5.475.121.121a.367.367,0,0,1,.244.122l-1.1,9.247a16.2,16.2,0,0,1-9.125,4.38l-.365.852-5.84,39.907-.365.731-.245,1.825-.972,2.189-.486,2.434a4.385,4.385,0,0,0-.244.609,5.134,5.134,0,0,1-.243.608l-.122.243q-.487.976-.912,1.825c-.286.569-.548,1.095-.791,1.582l-.365.73q-10.95,16.671-29.931,16.669a7.074,7.074,0,0,1-1.035-.062,7.729,7.729,0,0,0-1.033-.06,9.56,9.56,0,0,1-1.582.122h-1.581a22.286,22.286,0,0,1-16.426-6.571l-3.164-3.041q-6.2-4.5-10.341-14.114l-.852-4.137V98.732c0-.405-.022-.852-.061-1.339a12.309,12.309,0,0,0-.183-1.338l.121-1.7V93.5l2.191-15.818a10.468,10.468,0,0,1-2.556.608,23,23,0,0,1-2.311.122,8.389,8.389,0,0,1-6.2-2.19l-4.381-4.38q-4.626-2.19-4.623-9.855,0-1.7.181-3.711a29.55,29.55,0,0,1,.67-4.076Zm12.9,15.329q8.514-7.055,4.867-15.817a17.286,17.286,0,0,1,7.057-1.581l.486,1.581L902.848,93.5l.123.851-.244,1.7a14.879,14.879,0,0,1,.244,3.65v1.582l.851,4.38q6.935,17.155,23.969,15.452,19.222,1.095,30.173-15.452l.365-.73a14.859,14.859,0,0,0,1.1-2.129q.485-1.157,1.1-2.617l.486-2.068.731-1.7.243-1.825.364-.851,5.841-39.908,1.216-2.677a12.653,12.653,0,0,0,8.4-3.285l.851-7.3a6.011,6.011,0,0,0-2.677-1.947H950.786a8.8,8.8,0,0,0-1.7,1.1l-1.46,1.216q-3.774,9.978,6.083,9.976l.609,1.582-.121.73a9.759,9.759,0,0,1-.123,4.137L949.449,90.7q-.247,1.583-.488,2.86c-.164.851-.325,1.6-.487,2.251l-.365.852-.486,1.7-.731,1.581q-11.436,12.291-22.629,4.137a11.745,11.745,0,0,1-2.191-5.353V94.6l6.083-42.949a2.165,2.165,0,0,1,1.46-.974q9.611-.118,8.518-9.49a6.807,6.807,0,0,0-2.8-2.555H910.149q-17.4.729-24.335,16.182Q881.8,73.547,896.157,69.044Zm34.433,35.163a9.28,9.28,0,0,0,2.676.365q5.231,0,11.314-6.326l.488-.853v-.121l.487-1.582.242-.73v-.122a8.675,8.675,0,0,0,.184-.973q.058-.484.181-1.095a1.077,1.077,0,0,0,.122-.487,2.294,2.294,0,0,1,.122-.729v.121a2.12,2.12,0,0,1,.121-.852v.122a1.705,1.705,0,0,1,.122-.73l4.623-33.7-4.38-4.5c-.08,0-.2-.08-.365-.243q-1.216,7.056-10.1,7.421l-5.839,41.855Z"/>
    <path d="M1010.525,35.221c.647-.08,1.3-.142,1.946-.183s1.338-.061,2.068-.061a32.247,32.247,0,0,1,12.9,2.677,9.852,9.852,0,0,1,6.571-2.8,13.608,13.608,0,0,1,5.352,1.338,8.915,8.915,0,0,1,.73,1.034c.162.285.323.548.486.791l4.745,4.623a14.261,14.261,0,0,1,1.156,1.764q.427.794.914,1.643v1.7c0,.651-.022,1.238-.062,1.764s-.1,1.117-.182,1.765v1.46l.121,1.46-.242,1.459.121.488-.244,3.893q0,.975-.06,1.765c-.041.528-.1,1.115-.182,1.764a4.64,4.64,0,0,0,.061.669,7.575,7.575,0,0,1,.06,1.033,10.734,10.734,0,0,1-.365,3.043l.121.851c-.163,1.137-.363,2.232-.607,3.286a19.025,19.025,0,0,1-.975,3.041,11.528,11.528,0,0,1-8.029,3.406,6.022,6.022,0,0,1-.73-.06,7.1,7.1,0,0,0-.852-.061,15.46,15.46,0,0,1-2.068-.852l.365.365,3.041,2.92a23.847,23.847,0,0,1,7.18,17.521,37.57,37.57,0,0,1-2.8,13.627Q1030.355,130,1014.053,130a38.553,38.553,0,0,1-14.114-2.92,11.436,11.436,0,0,1-7.178,2.555,15.633,15.633,0,0,1-4.624-.851l-5.475-5.476a1.817,1.817,0,0,1-.729-.243l-2.556-3.65a5.18,5.18,0,0,1-.121-1.217v-2.92a8.988,8.988,0,0,1,.121-1.46v-3.042a6.262,6.262,0,0,1-.121-1.217v-1.946a5.746,5.746,0,0,1,.121-1.095l-.121-4.381v-.608a3.526,3.526,0,0,1-.123-.851V99.34a.814.814,0,0,1,.063-.365.881.881,0,0,0,.06-.365v-.364a.24.24,0,0,1,.061-.183.249.249,0,0,0,.06-.183V96.055l.852-5.84a11.884,11.884,0,0,1,9-4.259,12.69,12.69,0,0,1,1.46.062,8.832,8.832,0,0,1,.973.181h.244a11.9,11.9,0,0,1,4.014,4.016l4.138,4.015a9.776,9.776,0,0,1,1.824,2.555,30.093,30.093,0,0,0,1.7,7.3,8.217,8.217,0,0,0,3.407.608,13.783,13.783,0,0,0,1.7-.121q.973-.119,2.07-.365a6.06,6.06,0,0,0,1.823-1.947,7.925,7.925,0,0,0,.61-2.8,5.673,5.673,0,0,0-.486-2.312l-7.909-5.84-.244-.121q-.366-.243-.974-.731t-1.217-.973l-.728-.731c-.166-.161-.365-.343-.609-.546s-.446-.385-.61-.548l-2.433-2.312c-.325-.243-.668-.527-1.033-.851s-.669-.609-.914-.853l-.73-.729a17.734,17.734,0,0,1-3.163-3.285L989.6,76.344a24.972,24.972,0,0,1-2.677-11.558,34.013,34.013,0,0,1,.425-5.353,35.407,35.407,0,0,1,1.4-5.6v-.121Q994.343,38.994,1010.525,35.221ZM992.152,75.128l2.191,2.8a12.662,12.662,0,0,0,2.677,2.8l.851.851q.729.611,1.338,1.034c.405.286.73.508.974.67l9.246,6.692.488.486,1.459,1.339a15.937,15.937,0,0,1,2.251,1.947,18.408,18.408,0,0,1,1.522,1.824,10.042,10.042,0,0,1,.121,7.666,19.67,19.67,0,0,1-1.7,2.129,11.527,11.527,0,0,1-1.705,1.52q-15.576,3.9-18.492-15.573A5.514,5.514,0,0,0,991.179,89a8.4,8.4,0,0,0-8.273,2.555l-.73,4.866v1.46c-.081.65-.144,1.277-.182,1.886a3.439,3.439,0,0,0,.182,1.521l-.122.973.122,4.38a28.936,28.936,0,0,0,0,3.772v3.65a21.54,21.54,0,0,0,0,4.623l1.339,1.947q5.475,1.826,9.732-2.555,25.187,10.708,39.421-12.531Q1041.43,82.8,1021.84,71.6q-18.5-10.584-11.923-18.494,14.235-5.229,16.79,15.331a12.567,12.567,0,0,0,1.521,1.095,9.293,9.293,0,0,0,1.4.731,8.815,8.815,0,0,0,7.178-2.312,19.207,19.207,0,0,0,.791-2.434,17.291,17.291,0,0,0,.425-2.433l-.121-1.217a19.927,19.927,0,0,0,.3-2.372,6.661,6.661,0,0,0-.182-2.008,19.41,19.41,0,0,0,.365-3.528l.243-3.651-.121-.729.244-1.582-.123-1.095V45.2a25.616,25.616,0,0,0,.244-4.623,7.178,7.178,0,0,0-.547-1.1c-.2-.322-.426-.647-.67-.973q-5.84-2.555-9.611,2.555a29.6,29.6,0,0,0-17.277-3.041q-14.235,3.407-19.346,16.669Q987.526,66.613,992.152,75.128Zm24.82-9.856q1.338.977,2.861,1.947t3.345,1.947a1.254,1.254,0,0,0,.851.486,36.752,36.752,0,0,0-2.189-9.125h-.486a12.471,12.471,0,0,0-3.893.731,3.906,3.906,0,0,0-.731,2.19A10.12,10.12,0,0,0,1016.972,65.272Zm1.947,2.8a4.179,4.179,0,0,0,.854.852Z"/>
  </g>
  <g>
    <path d="M371.011,163.77c-.008-.064-.014-.144-.018-.241s-.008-.2-.012-.305-.006-.212-.006-.313v-.258h-.024a1.409,1.409,0,0,1-1.44,1.273,1.387,1.387,0,0,1-.5-.1,1.222,1.222,0,0,1-.456-.311,1.731,1.731,0,0,1-.336-.546,2.133,2.133,0,0,1-.132-.8,2.08,2.08,0,0,1,.228-1.044,1.79,1.79,0,0,1,.576-.624,2.1,2.1,0,0,1,.762-.307,4.251,4.251,0,0,1,.786-.078h.468v-.311a1.82,1.82,0,0,0-.288-1.14.946.946,0,0,0-.78-.36,1.155,1.155,0,0,0-.624.179,1.8,1.8,0,0,0-.492.456l-.42-.492a1.835,1.835,0,0,1,.72-.611,2,2,0,0,1,.888-.216,1.464,1.464,0,0,1,1.332.611,3.312,3.312,0,0,1,.4,1.788V162.5c0,.08,0,.181.006.3s.008.242.012.365.01.24.018.349.016.194.024.258Zm-.1-3.025h-.48a3.121,3.121,0,0,0-.576.055,1.325,1.325,0,0,0-.51.2,1.147,1.147,0,0,0-.366.414,1.42,1.42,0,0,0-.144.684,1.238,1.238,0,0,0,.276.9.839.839,0,0,0,1.17.071,1.439,1.439,0,0,0,.372-.515,2.816,2.816,0,0,0,.2-.685,4.5,4.5,0,0,0,.06-.72Z"/>
    <path d="M377.851,158.85a1.274,1.274,0,0,0-.4-.426,1.051,1.051,0,0,0-.6-.162.8.8,0,0,0-.629.282,1.079,1.079,0,0,0-.246.737.9.9,0,0,0,.24.7,2.275,2.275,0,0,0,.719.395,3.924,3.924,0,0,1,.48.234,1.747,1.747,0,0,1,.427.342,1.723,1.723,0,0,1,.306.487,1.744,1.744,0,0,1,.12.677,1.873,1.873,0,0,1-.474,1.363,1.644,1.644,0,0,1-1.23.486,1.864,1.864,0,0,1-.924-.234,2.081,2.081,0,0,1-.7-.63l.48-.517a1.829,1.829,0,0,0,.486.511,1.129,1.129,0,0,0,.666.2.843.843,0,0,0,.678-.306,1.212,1.212,0,0,0,.258-.809,1.1,1.1,0,0,0-.1-.486,1,1,0,0,0-.251-.331,1.682,1.682,0,0,0-.355-.227c-.131-.065-.27-.124-.413-.181a2.866,2.866,0,0,1-.439-.2,1.458,1.458,0,0,1-.377-.311,1.51,1.51,0,0,1-.271-.462,1.885,1.885,0,0,1-.1-.655,1.805,1.805,0,0,1,.127-.683,1.54,1.54,0,0,1,.354-.534,1.686,1.686,0,0,1,.522-.348,1.611,1.611,0,0,1,.641-.126,1.807,1.807,0,0,1,.871.2,1.761,1.761,0,0,1,.594.511Z"/>
    <path d="M383.455,160.806a5.31,5.31,0,0,1-.144,1.284,3.418,3.418,0,0,1-.408,1,1.907,1.907,0,0,1-.654.647,1.683,1.683,0,0,1-.87.229,1.651,1.651,0,0,1-.864-.229,1.978,1.978,0,0,1-.654-.647,3.317,3.317,0,0,1-.414-1,5.31,5.31,0,0,1-.144-1.284,5.668,5.668,0,0,1,.138-1.3,3.278,3.278,0,0,1,.4-1.008,1.91,1.91,0,0,1,.654-.648,1.705,1.705,0,0,1,.882-.228,1.682,1.682,0,0,1,.87.228,1.91,1.91,0,0,1,.654.648,3.384,3.384,0,0,1,.408,1.008A5.442,5.442,0,0,1,383.455,160.806Zm-.816-.019a5.814,5.814,0,0,0-.078-.981,3.044,3.044,0,0,0-.234-.785,1.488,1.488,0,0,0-.39-.52.851.851,0,0,0-.558-.191.875.875,0,0,0-.564.191,1.4,1.4,0,0,0-.39.52,3.218,3.218,0,0,0-.228.785,5.814,5.814,0,0,0-.078.981,5.6,5.6,0,0,0,.078.97,3.294,3.294,0,0,0,.228.778,1.317,1.317,0,0,0,.39.521.952.952,0,0,0,1.128,0,1.327,1.327,0,0,0,.39-.521,3.294,3.294,0,0,0,.228-.778A5.6,5.6,0,0,0,382.639,160.787Z"/>
    <path d="M387.991,163.77v-3.84a5.294,5.294,0,0,0-.031-.559,1.793,1.793,0,0,0-.131-.516.993.993,0,0,0-.288-.383.753.753,0,0,0-.486-.151.92.92,0,0,0-.534.162,1.333,1.333,0,0,0-.4.445,2.479,2.479,0,0,0-.252.647,3.132,3.132,0,0,0-.09.763v3.432h-.792v-4.453c0-.128,0-.265-.007-.414s-.007-.292-.011-.431-.009-.269-.013-.384-.01-.206-.018-.271h.768c.017.153.028.336.037.552s.012.42.012.612h.024a2.165,2.165,0,0,1,.551-.977,1.315,1.315,0,0,1,.96-.378,1.243,1.243,0,0,1,1.225.737,2.52,2.52,0,0,1,.21.744,6.365,6.365,0,0,1,.054.823v3.84Z"/>
    <path d="M394.326,163.686a6.333,6.333,0,0,1-.1,1.175,2.8,2.8,0,0,1-.342.937,1.733,1.733,0,0,1-.648.624,2.08,2.08,0,0,1-1.02.227,2.311,2.311,0,0,1-1.1-.269,2.269,2.269,0,0,1-.822-.727l.516-.551a1.914,1.914,0,0,0,.606.6,1.515,1.515,0,0,0,.822.229,1.185,1.185,0,0,0,.654-.168,1.137,1.137,0,0,0,.4-.468,2.47,2.47,0,0,0,.2-.708,6.221,6.221,0,0,0,.06-.9V162.7h-.024a2.08,2.08,0,0,1-.48.9,1.233,1.233,0,0,1-.948.36,1.381,1.381,0,0,1-.8-.24,1.957,1.957,0,0,1-.588-.666,3.608,3.608,0,0,1-.366-1.008,6.059,6.059,0,0,1-.126-1.278,6.265,6.265,0,0,1,.12-1.273,3.407,3.407,0,0,1,.354-.989,1.853,1.853,0,0,1,.588-.649,1.435,1.435,0,0,1,.81-.233,1.347,1.347,0,0,1,.918.329,1.643,1.643,0,0,1,.51.87h.036v-1.008h.768Zm-.768-2.892a5.777,5.777,0,0,0-.078-.973,3,3,0,0,0-.24-.792,1.5,1.5,0,0,0-.4-.527.9.9,0,0,0-1.11,0,1.483,1.483,0,0,0-.39.521,2.915,2.915,0,0,0-.228.787,6.3,6.3,0,0,0-.072.984,6.12,6.12,0,0,0,.072.966,3,3,0,0,0,.228.786,1.463,1.463,0,0,0,.39.527.9.9,0,0,0,1.116,0,1.544,1.544,0,0,0,.4-.521,2.9,2.9,0,0,0,.24-.781A5.715,5.715,0,0,0,393.558,160.794Z"/>
    <path d="M400.086,163.962a1.672,1.672,0,0,1-.888-.234,1.963,1.963,0,0,1-.642-.649,3.2,3.2,0,0,1-.39-1,6.369,6.369,0,0,1,0-2.58,3.18,3.18,0,0,1,.4-1,1.929,1.929,0,0,1,.648-.648,1.7,1.7,0,0,1,.888-.228,1.654,1.654,0,0,1,1.3.563l-.42.577a1.077,1.077,0,0,0-.36-.325,1.021,1.021,0,0,0-.5-.12.87.87,0,0,0-.558.187,1.423,1.423,0,0,0-.39.515,3.061,3.061,0,0,0-.234.781,5.813,5.813,0,0,0-.078.99,5.63,5.63,0,0,0,.078.972,2.937,2.937,0,0,0,.234.767,1.3,1.3,0,0,0,.4.5.959.959,0,0,0,.582.181,1.04,1.04,0,0,0,.522-.126,1.129,1.129,0,0,0,.378-.355l.36.613A1.585,1.585,0,0,1,400.086,163.962Z"/>
    <path d="M404.922,163.77c-.008-.064-.014-.144-.018-.241s-.008-.2-.012-.305-.006-.212-.006-.313v-.258h-.024a1.409,1.409,0,0,1-1.44,1.273,1.387,1.387,0,0,1-.5-.1,1.222,1.222,0,0,1-.456-.311,1.731,1.731,0,0,1-.336-.546,2.154,2.154,0,0,1-.132-.8,2.08,2.08,0,0,1,.228-1.044,1.79,1.79,0,0,1,.576-.624,2.1,2.1,0,0,1,.762-.307,4.251,4.251,0,0,1,.786-.078h.468v-.311a1.82,1.82,0,0,0-.288-1.14.946.946,0,0,0-.78-.36,1.155,1.155,0,0,0-.624.179,1.8,1.8,0,0,0-.492.456l-.42-.492a1.835,1.835,0,0,1,.72-.611,2,2,0,0,1,.888-.216,1.464,1.464,0,0,1,1.332.611,3.312,3.312,0,0,1,.4,1.788V162.5c0,.08,0,.181.006.3s.008.242.012.365.01.24.018.349.016.194.024.258Zm-.1-3.025h-.48a3.121,3.121,0,0,0-.576.055,1.325,1.325,0,0,0-.51.2,1.147,1.147,0,0,0-.366.414,1.42,1.42,0,0,0-.144.684,1.238,1.238,0,0,0,.276.9.839.839,0,0,0,1.17.071,1.439,1.439,0,0,0,.372-.515,2.773,2.773,0,0,0,.2-.685,4.5,4.5,0,0,0,.06-.72Z"/>
    <path d="M407.274,163.77V154.7h.792v9.073Z"/>
    <path d="M409.914,163.77V154.7h.792v9.073Z"/>
    <path d="M412.986,160.962a4.544,4.544,0,0,0,.084.905,2.664,2.664,0,0,0,.247.721,1.338,1.338,0,0,0,.411.479.979.979,0,0,0,.584.174.952.952,0,0,0,.7-.263,1.83,1.83,0,0,0,.41-.636l.6.347a2.3,2.3,0,0,1-.642.907,1.607,1.607,0,0,1-1.086.366,1.75,1.75,0,0,1-1.548-.841,4.181,4.181,0,0,1-.552-2.315,5.461,5.461,0,0,1,.143-1.285,3.335,3.335,0,0,1,.413-1.007,2.026,2.026,0,0,1,.658-.655,1.793,1.793,0,0,1,1.759,0,1.741,1.741,0,0,1,.592.624,2.96,2.96,0,0,1,.329.923,5.959,5.959,0,0,1,.1,1.128v.433Zm2.412-.66a3.225,3.225,0,0,0-.277-1.447.915.915,0,0,0-.869-.545.847.847,0,0,0-.585.21,1.678,1.678,0,0,0-.386.515,2.578,2.578,0,0,0-.217.654,3.354,3.354,0,0,0-.066.613Z"/>
    <path d="M420.605,163.77V162.7h-.023a2.091,2.091,0,0,1-.48.9,1.235,1.235,0,0,1-.948.36,1.381,1.381,0,0,1-.8-.24,1.946,1.946,0,0,1-.588-.666,3.577,3.577,0,0,1-.366-1.008,6.059,6.059,0,0,1-.126-1.278,6.265,6.265,0,0,1,.12-1.273,3.349,3.349,0,0,1,.354-.989,1.843,1.843,0,0,1,.588-.649,1.43,1.43,0,0,1,.81-.233,1.326,1.326,0,0,1,.912.329,1.674,1.674,0,0,1,.5.87h.024V154.7h.792v9.073Zm0-2.976a5.723,5.723,0,0,0-.078-.984,2.872,2.872,0,0,0-.239-.787,1.519,1.519,0,0,0-.4-.521.9.9,0,0,0-1.111,0,1.481,1.481,0,0,0-.389.521,2.915,2.915,0,0,0-.228.787,6.176,6.176,0,0,0-.073.984,6,6,0,0,0,.073.966,3,3,0,0,0,.228.786,1.461,1.461,0,0,0,.389.527.9.9,0,0,0,1.117,0,1.534,1.534,0,0,0,.4-.527,2.953,2.953,0,0,0,.239-.786A5.559,5.559,0,0,0,420.605,160.794Z"/>
    <path d="M435.218,150.869a5.961,5.961,0,0,1-.363,2.163,4.664,4.664,0,0,1-.962,1.563,4.046,4.046,0,0,1-1.388.95,4.245,4.245,0,0,1-1.637.324h-2.6v7.9h-1.726v-17.7h4.176a5.8,5.8,0,0,1,1.574.226,3.733,3.733,0,0,1,1.451.787,4.186,4.186,0,0,1,1.062,1.487A5.656,5.656,0,0,1,435.218,150.869Zm-1.725.014a4.552,4.552,0,0,0-.225-1.508,2.712,2.712,0,0,0-.625-1.033,2.5,2.5,0,0,0-.913-.586,3.236,3.236,0,0,0-1.112-.187h-2.35v6.8h2.375a2.708,2.708,0,0,0,2.012-.859A3.633,3.633,0,0,0,433.493,150.883Z"/>
    <path d="M444.942,157.6a11.04,11.04,0,0,1-.3,2.675,7.119,7.119,0,0,1-.85,2.075,3.98,3.98,0,0,1-1.362,1.349,3.524,3.524,0,0,1-1.813.476,3.457,3.457,0,0,1-1.8-.476,4.124,4.124,0,0,1-1.362-1.349,6.917,6.917,0,0,1-.863-2.075,11.04,11.04,0,0,1-.3-2.675,11.794,11.794,0,0,1,.288-2.7,6.84,6.84,0,0,1,.837-2.1,3.99,3.99,0,0,1,1.363-1.351,3.576,3.576,0,0,1,1.837-.474,3.532,3.532,0,0,1,1.813.474,4,4,0,0,1,1.362,1.351,7.08,7.08,0,0,1,.85,2.1A11.342,11.342,0,0,1,444.942,157.6Zm-1.7-.038a12.164,12.164,0,0,0-.162-2.045,6.311,6.311,0,0,0-.488-1.633,3.09,3.09,0,0,0-.812-1.085,1.774,1.774,0,0,0-1.163-.4,1.821,1.821,0,0,0-1.175.4,2.878,2.878,0,0,0-.812,1.085,6.612,6.612,0,0,0-.475,1.633,12.057,12.057,0,0,0-.163,2.045,11.6,11.6,0,0,0,.163,2.02,6.859,6.859,0,0,0,.475,1.621,2.75,2.75,0,0,0,.812,1.085,1.977,1.977,0,0,0,2.35,0,2.76,2.76,0,0,0,.812-1.085,6.906,6.906,0,0,0,.476-1.621A11.7,11.7,0,0,0,443.242,157.557Z"/>
    <path d="M448.942,157.92a9.465,9.465,0,0,0,.176,1.887,5.538,5.538,0,0,0,.515,1.5,2.809,2.809,0,0,0,.854,1,2.063,2.063,0,0,0,1.219.363,1.975,1.975,0,0,0,1.457-.551,3.765,3.765,0,0,0,.854-1.324l1.25.725a4.8,4.8,0,0,1-1.337,1.887,3.354,3.354,0,0,1-2.263.763,3.649,3.649,0,0,1-3.225-1.75,8.716,8.716,0,0,1-1.15-4.825,11.283,11.283,0,0,1,.3-2.675,6.907,6.907,0,0,1,.86-2.1,4.2,4.2,0,0,1,1.371-1.362,3.732,3.732,0,0,1,3.664-.013,3.646,3.646,0,0,1,1.234,1.3,6.2,6.2,0,0,1,.685,1.926,12.439,12.439,0,0,1,.212,2.35v.9Zm5.025-1.375a6.69,6.69,0,0,0-.578-3.013,1.9,1.9,0,0,0-1.809-1.137,1.762,1.762,0,0,0-1.218.437,3.48,3.48,0,0,0-.8,1.075,5.367,5.367,0,0,0-.453,1.363,6.919,6.919,0,0,0-.138,1.275Z"/>
    <path d="M461.45,151.757a2.737,2.737,0,0,1,2.029-.787,2.613,2.613,0,0,1,1.157.237,2.562,2.562,0,0,1,.822.625,2.843,2.843,0,0,1,.523.912,6.9,6.9,0,0,1,.286,1.075h.05a5.028,5.028,0,0,1,.423-1.062,3.7,3.7,0,0,1,.685-.912,3.2,3.2,0,0,1,.946-.638,2.953,2.953,0,0,1,1.208-.237,2.694,2.694,0,0,1,1.594.425,2.9,2.9,0,0,1,.933,1.112,4.95,4.95,0,0,1,.449,1.55,13.411,13.411,0,0,1,.112,1.713v8h-1.65v-8a11.181,11.181,0,0,0-.062-1.163,3.939,3.939,0,0,0-.263-1.075,1.964,1.964,0,0,0-.588-.8,1.6,1.6,0,0,0-1.037-.312,1.868,1.868,0,0,0-1.088.337,2.671,2.671,0,0,0-.812.925,5.122,5.122,0,0,0-.5,1.35,7.056,7.056,0,0,0-.175,1.587v7.151h-1.65v-8a11.514,11.514,0,0,0-.062-1.175,4.3,4.3,0,0,0-.249-1.088,1.776,1.776,0,0,0-.572-.787,1.591,1.591,0,0,0-1.006-.3,1.835,1.835,0,0,0-1.095.337,2.858,2.858,0,0,0-.808.925,4.927,4.927,0,0,0-.509,1.35,7.115,7.115,0,0,0-.174,1.587v7.151h-1.65v-9.276c0-.265,0-.554-.012-.862s-.017-.609-.026-.9-.016-.558-.025-.8-.021-.429-.037-.563h1.625c.033.318.058.7.075,1.151s.025.875.025,1.275h.05A4.027,4.027,0,0,1,461.45,151.757Z"/>
    <path d="M481.167,153.52a2.683,2.683,0,0,0-.838-.888,2.2,2.2,0,0,0-1.237-.337,1.662,1.662,0,0,0-1.313.587,2.256,2.256,0,0,0-.512,1.538,1.859,1.859,0,0,0,.5,1.449,4.724,4.724,0,0,0,1.5.825,7.992,7.992,0,0,1,1,.488,3.659,3.659,0,0,1,.887.713,3.568,3.568,0,0,1,.638,1.012,3.612,3.612,0,0,1,.25,1.412,3.9,3.9,0,0,1-.988,2.838,3.42,3.42,0,0,1-2.562,1.013,3.894,3.894,0,0,1-1.926-.488,4.28,4.28,0,0,1-1.449-1.313l1-1.074a3.837,3.837,0,0,0,1.012,1.062,2.354,2.354,0,0,0,1.388.413,1.758,1.758,0,0,0,1.412-.638,2.532,2.532,0,0,0,.538-1.688,2.314,2.314,0,0,0-.2-1.012,2.1,2.1,0,0,0-.525-.688,3.546,3.546,0,0,0-.738-.474q-.413-.2-.862-.375a6.06,6.06,0,0,1-.913-.425,3.054,3.054,0,0,1-1.35-1.613,3.86,3.86,0,0,1-.212-1.363,3.78,3.78,0,0,1,.262-1.425,3.221,3.221,0,0,1,.738-1.112,3.532,3.532,0,0,1,1.087-.725,3.358,3.358,0,0,1,1.338-.262,3.753,3.753,0,0,1,1.812.412,3.686,3.686,0,0,1,1.238,1.062Z"/>
    <path d="M487.516,157.985a1.094,1.094,0,0,1,.792-.347.721.721,0,0,1,.144.011l-.024.817a.913.913,0,0,0-.09-.019.736.736,0,0,0-.1-.006.791.791,0,0,0-.534.2,1.611,1.611,0,0,0-.39.528,2.965,2.965,0,0,0-.234.737,4.448,4.448,0,0,0-.078.822v3.037h-.792v-4.453c0-.128,0-.265-.006-.414s-.008-.292-.012-.431-.008-.269-.012-.384-.01-.206-.018-.271h.768c.016.153.028.342.036.571s.013.469.013.725H487A2.256,2.256,0,0,1,487.516,157.985Z"/>
    <path d="M489.808,160.962a4.468,4.468,0,0,0,.085.905,2.631,2.631,0,0,0,.247.721,1.335,1.335,0,0,0,.41.479.982.982,0,0,0,.585.174.951.951,0,0,0,.7-.263,1.816,1.816,0,0,0,.41-.636l.6.347a2.3,2.3,0,0,1-.642.907,1.607,1.607,0,0,1-1.086.366,1.75,1.75,0,0,1-1.548-.841,4.181,4.181,0,0,1-.552-2.315,5.408,5.408,0,0,1,.144-1.285,3.309,3.309,0,0,1,.412-1.007,2.026,2.026,0,0,1,.658-.655,1.793,1.793,0,0,1,1.759,0,1.752,1.752,0,0,1,.593.624,2.985,2.985,0,0,1,.328.923,5.959,5.959,0,0,1,.1,1.128v.433Zm2.412-.66a3.225,3.225,0,0,0-.277-1.447.915.915,0,0,0-.869-.545.843.843,0,0,0-.584.21,1.647,1.647,0,0,0-.386.515,2.54,2.54,0,0,0-.217.654,3.278,3.278,0,0,0-.067.613Z"/>
    <path d="M494.452,163.77V154.7h.792v9.073Z"/>
    <path d="M497.524,160.962a4.544,4.544,0,0,0,.084.905,2.7,2.7,0,0,0,.247.721,1.348,1.348,0,0,0,.411.479.98.98,0,0,0,.585.174.951.951,0,0,0,.7-.263,1.816,1.816,0,0,0,.41-.636l.6.347a2.3,2.3,0,0,1-.642.907,1.607,1.607,0,0,1-1.086.366,1.75,1.75,0,0,1-1.548-.841,4.181,4.181,0,0,1-.552-2.315,5.461,5.461,0,0,1,.143-1.285,3.335,3.335,0,0,1,.413-1.007,2.026,2.026,0,0,1,.658-.655,1.793,1.793,0,0,1,1.759,0,1.741,1.741,0,0,1,.592.624,2.96,2.96,0,0,1,.329.923,5.959,5.959,0,0,1,.1,1.128v.433Zm2.412-.66a3.225,3.225,0,0,0-.277-1.447.915.915,0,0,0-.869-.545.843.843,0,0,0-.584.21,1.665,1.665,0,0,0-.387.515,2.538,2.538,0,0,0-.216.654,3.278,3.278,0,0,0-.067.613Z"/>
    <path d="M504.592,163.77c-.008-.064-.014-.144-.018-.241s-.008-.2-.012-.305-.006-.212-.006-.313v-.258h-.024a1.409,1.409,0,0,1-1.44,1.273,1.387,1.387,0,0,1-.5-.1,1.222,1.222,0,0,1-.456-.311,1.731,1.731,0,0,1-.336-.546,2.154,2.154,0,0,1-.132-.8,2.08,2.08,0,0,1,.228-1.044,1.79,1.79,0,0,1,.576-.624,2.1,2.1,0,0,1,.762-.307,4.251,4.251,0,0,1,.786-.078h.468v-.311a1.82,1.82,0,0,0-.288-1.14.946.946,0,0,0-.78-.36,1.155,1.155,0,0,0-.624.179,1.8,1.8,0,0,0-.492.456l-.42-.492a1.835,1.835,0,0,1,.72-.611,2,2,0,0,1,.888-.216,1.464,1.464,0,0,1,1.332.611,3.312,3.312,0,0,1,.4,1.788V162.5c0,.08,0,.181.006.3s.008.242.012.365.01.24.018.349.016.194.024.258Zm-.1-3.025h-.48a3.121,3.121,0,0,0-.576.055,1.325,1.325,0,0,0-.51.2,1.147,1.147,0,0,0-.366.414,1.42,1.42,0,0,0-.144.684,1.238,1.238,0,0,0,.276.9.839.839,0,0,0,1.17.071,1.439,1.439,0,0,0,.372-.515,2.773,2.773,0,0,0,.2-.685,4.5,4.5,0,0,0,.06-.72Z"/>
    <path d="M509.212,158.85a1.274,1.274,0,0,0-.4-.426,1.048,1.048,0,0,0-.594-.162.8.8,0,0,0-.63.282,1.079,1.079,0,0,0-.246.737.9.9,0,0,0,.24.7,2.281,2.281,0,0,0,.72.395,4.07,4.07,0,0,1,.48.234,1.761,1.761,0,0,1,.426.342,1.648,1.648,0,0,1,.426,1.164,1.873,1.873,0,0,1-.474,1.363,1.642,1.642,0,0,1-1.23.486,1.866,1.866,0,0,1-.924-.234,2.081,2.081,0,0,1-.7-.63l.48-.517a1.843,1.843,0,0,0,.486.511,1.129,1.129,0,0,0,.666.2.841.841,0,0,0,.678-.306,1.212,1.212,0,0,0,.258-.809,1.1,1.1,0,0,0-.1-.486,1,1,0,0,0-.252-.331,1.675,1.675,0,0,0-.354-.227c-.132-.065-.27-.124-.414-.181a2.812,2.812,0,0,1-.438-.2,1.446,1.446,0,0,1-.378-.311,1.508,1.508,0,0,1-.27-.462,1.862,1.862,0,0,1-.1-.655,1.8,1.8,0,0,1,.126-.683,1.54,1.54,0,0,1,.354-.534,1.686,1.686,0,0,1,.522-.348,1.613,1.613,0,0,1,.642-.126,1.8,1.8,0,0,1,.87.2,1.761,1.761,0,0,1,.594.511Z"/>
    <path d="M511.456,160.962a4.544,4.544,0,0,0,.084.905,2.664,2.664,0,0,0,.247.721,1.345,1.345,0,0,0,.41.479.984.984,0,0,0,.585.174.95.95,0,0,0,.7-.263,1.818,1.818,0,0,0,.411-.636l.6.347a2.307,2.307,0,0,1-.642.907,1.609,1.609,0,0,1-1.086.366,1.749,1.749,0,0,1-1.548-.841,4.181,4.181,0,0,1-.552-2.315,5.409,5.409,0,0,1,.143-1.285,3.335,3.335,0,0,1,.413-1.007,2.017,2.017,0,0,1,.658-.655,1.793,1.793,0,0,1,1.759,0,1.741,1.741,0,0,1,.592.624,2.986,2.986,0,0,1,.329.923,6.043,6.043,0,0,1,.1,1.128v.433Zm2.412-.66a3.21,3.21,0,0,0-.278-1.447.913.913,0,0,0-.868-.545.847.847,0,0,0-.585.21,1.663,1.663,0,0,0-.386.515,2.54,2.54,0,0,0-.217.654,3.354,3.354,0,0,0-.066.613Z"/>
    <path d="M519.076,163.77V162.7h-.024a2.08,2.08,0,0,1-.48.9,1.233,1.233,0,0,1-.948.36,1.381,1.381,0,0,1-.8-.24,1.957,1.957,0,0,1-.588-.666,3.608,3.608,0,0,1-.366-1.008,6.059,6.059,0,0,1-.126-1.278,6.265,6.265,0,0,1,.12-1.273,3.378,3.378,0,0,1,.354-.989,1.853,1.853,0,0,1,.588-.649,1.435,1.435,0,0,1,.81-.233,1.324,1.324,0,0,1,.912.329,1.674,1.674,0,0,1,.5.87h.024V154.7h.792v9.073Zm0-2.976a5.825,5.825,0,0,0-.078-.984,2.906,2.906,0,0,0-.24-.787,1.507,1.507,0,0,0-.4-.521.9.9,0,0,0-1.11,0,1.471,1.471,0,0,0-.39.521,2.915,2.915,0,0,0-.228.787,6.3,6.3,0,0,0-.072.984,6.12,6.12,0,0,0,.072.966,3,3,0,0,0,.228.786,1.452,1.452,0,0,0,.39.527.9.9,0,0,0,1.116,0,1.522,1.522,0,0,0,.4-.527,2.99,2.99,0,0,0,.24-.786A5.659,5.659,0,0,0,519.076,160.794Z"/>
    <path d="M528.015,160.77a6.059,6.059,0,0,1-.126,1.278,3.608,3.608,0,0,1-.366,1.008,1.965,1.965,0,0,1-.587.666,1.387,1.387,0,0,1-.805.24,1.241,1.241,0,0,1-.948-.355,2.028,2.028,0,0,1-.48-.906h-.024v1.069h-.768V154.7h.792v4.141h.012a1.787,1.787,0,0,1,.51-.876,1.285,1.285,0,0,1,.906-.336,1.435,1.435,0,0,1,.81.233,1.906,1.906,0,0,1,.594.649,3.323,3.323,0,0,1,.361.989A6.34,6.34,0,0,1,528.015,160.77Zm-.816.024a6.248,6.248,0,0,0-.072-.973,3.009,3.009,0,0,0-.228-.792,1.46,1.46,0,0,0-.39-.527.85.85,0,0,0-.558-.192.859.859,0,0,0-.552.192,1.5,1.5,0,0,0-.4.527,3,3,0,0,0-.24.792,5.777,5.777,0,0,0-.078.973,5.715,5.715,0,0,0,.078.977,2.9,2.9,0,0,0,.24.781,1.544,1.544,0,0,0,.4.521.9.9,0,0,0,1.116,0,1.471,1.471,0,0,0,.39-.521,2.9,2.9,0,0,0,.228-.781A6.181,6.181,0,0,0,527.2,160.794Z"/>
    <path d="M531,165.042a4.732,4.732,0,0,1-.221.683,1.78,1.78,0,0,1-.306.5,1.326,1.326,0,0,1-.414.312,1.279,1.279,0,0,1-.559.112,1.915,1.915,0,0,1-.336-.029,1.876,1.876,0,0,1-.275-.065l.108-.7c.056.016.124.033.2.048a1.149,1.149,0,0,0,.239.025.6.6,0,0,0,.523-.241,1.949,1.949,0,0,0,.282-.66l.264-1.032-1.728-6.168h.84l1.284,5.028h.024l1.14-5.028h.8Z"/>
    <path d="M537.147,155.993a.571.571,0,0,1-.156.414.5.5,0,0,1-.372.162.49.49,0,0,1-.378-.162.637.637,0,0,1,0-.821.51.51,0,0,1,.757,0A.592.592,0,0,1,537.147,155.993Zm-.924,7.777v-5.953h.792v5.953Z"/>
    <path d="M541.912,163.77v-3.84a5.294,5.294,0,0,0-.031-.559,1.793,1.793,0,0,0-.131-.516,1,1,0,0,0-.289-.383.75.75,0,0,0-.485-.151.926.926,0,0,0-.535.162,1.355,1.355,0,0,0-.4.445,2.551,2.551,0,0,0-.252.647,3.182,3.182,0,0,0-.089.763v3.432h-.792v-4.453c0-.128,0-.265-.007-.414s-.008-.292-.011-.431-.009-.269-.013-.384-.01-.206-.018-.271h.768c.016.153.028.336.036.552s.013.42.013.612h.024a2.156,2.156,0,0,1,.551-.977,1.315,1.315,0,0,1,.96-.378,1.24,1.24,0,0,1,1.224.737,2.491,2.491,0,0,1,.21.744,6.194,6.194,0,0,1,.055.823v3.84Z"/>
    <path d="M547.479,163.77V162.7h-.024a2.08,2.08,0,0,1-.48.9,1.233,1.233,0,0,1-.948.36,1.381,1.381,0,0,1-.8-.24,1.957,1.957,0,0,1-.588-.666,3.608,3.608,0,0,1-.366-1.008,6.059,6.059,0,0,1-.126-1.278,6.265,6.265,0,0,1,.12-1.273,3.407,3.407,0,0,1,.354-.989,1.853,1.853,0,0,1,.588-.649,1.435,1.435,0,0,1,.81-.233,1.324,1.324,0,0,1,.912.329,1.661,1.661,0,0,1,.5.87h.024V154.7h.792v9.073Zm0-2.976a5.825,5.825,0,0,0-.078-.984,2.906,2.906,0,0,0-.24-.787,1.507,1.507,0,0,0-.4-.521.9.9,0,0,0-1.11,0,1.483,1.483,0,0,0-.39.521,2.915,2.915,0,0,0-.228.787,6.3,6.3,0,0,0-.072.984,6.12,6.12,0,0,0,.072.966,3,3,0,0,0,.228.786,1.463,1.463,0,0,0,.39.527.9.9,0,0,0,1.116,0,1.522,1.522,0,0,0,.4-.527,2.99,2.99,0,0,0,.24-.786A5.659,5.659,0,0,0,547.479,160.794Z"/>
    <path d="M551.02,155.993a.571.571,0,0,1-.157.414.5.5,0,0,1-.372.162.49.49,0,0,1-.378-.162.637.637,0,0,1,0-.821.509.509,0,0,1,.756,0A.589.589,0,0,1,551.02,155.993Zm-.925,7.777v-5.953h.792v5.953Z"/>
    <path d="M553.167,160.962a4.544,4.544,0,0,0,.084.905,2.7,2.7,0,0,0,.247.721,1.335,1.335,0,0,0,.41.479.986.986,0,0,0,.585.174.95.95,0,0,0,.7-.263,1.818,1.818,0,0,0,.411-.636l.6.347a2.3,2.3,0,0,1-.642.907,1.609,1.609,0,0,1-1.086.366,1.75,1.75,0,0,1-1.548-.841,4.181,4.181,0,0,1-.552-2.315,5.408,5.408,0,0,1,.144-1.285,3.309,3.309,0,0,1,.412-1.007,2.017,2.017,0,0,1,.658-.655,1.793,1.793,0,0,1,1.759,0,1.741,1.741,0,0,1,.592.624,2.96,2.96,0,0,1,.329.923,5.959,5.959,0,0,1,.1,1.128v.433Zm2.412-.66a3.225,3.225,0,0,0-.277-1.447.916.916,0,0,0-.869-.545.843.843,0,0,0-.584.21,1.635,1.635,0,0,0-.387.515,2.54,2.54,0,0,0-.217.654,3.354,3.354,0,0,0-.066.613Z"/>
    <path d="M564.135,160.77a6.059,6.059,0,0,1-.126,1.278,3.608,3.608,0,0,1-.366,1.008,1.967,1.967,0,0,1-.588.666,1.384,1.384,0,0,1-.8.24,1.24,1.24,0,0,1-.948-.355,2.039,2.039,0,0,1-.481-.906H560.8v1.069h-.769V154.7h.792v4.141h.013a1.78,1.78,0,0,1,.51-.876,1.285,1.285,0,0,1,.906-.336,1.437,1.437,0,0,1,.81.233,1.9,1.9,0,0,1,.593.649,3.3,3.3,0,0,1,.361.989A6.265,6.265,0,0,1,564.135,160.77Zm-.817.024a6.252,6.252,0,0,0-.071-.973,3.047,3.047,0,0,0-.228-.792,1.472,1.472,0,0,0-.39-.527.9.9,0,0,0-1.11,0,1.5,1.5,0,0,0-.4.527,3.04,3.04,0,0,0-.239.792,5.675,5.675,0,0,0-.078.973,5.616,5.616,0,0,0,.078.977,2.931,2.931,0,0,0,.239.781,1.546,1.546,0,0,0,.4.521.9.9,0,0,0,1.116,0,1.483,1.483,0,0,0,.39-.521,2.938,2.938,0,0,0,.228-.781A6.186,6.186,0,0,0,563.318,160.794Z"/>
    <path d="M568.118,163.77c-.008-.064-.014-.144-.017-.241s-.008-.2-.012-.305-.007-.212-.007-.313v-.258h-.023a1.41,1.41,0,0,1-1.441,1.273,1.387,1.387,0,0,1-.5-.1,1.222,1.222,0,0,1-.456-.311,1.731,1.731,0,0,1-.336-.546,2.154,2.154,0,0,1-.132-.8,2.079,2.079,0,0,1,.229-1.044,1.788,1.788,0,0,1,.575-.624,2.1,2.1,0,0,1,.763-.307,4.234,4.234,0,0,1,.786-.078h.468v-.311a1.826,1.826,0,0,0-.288-1.14.948.948,0,0,0-.781-.36,1.159,1.159,0,0,0-.624.179,1.825,1.825,0,0,0-.492.456l-.42-.492a1.838,1.838,0,0,1,.721-.611,2,2,0,0,1,.888-.216,1.465,1.465,0,0,1,1.332.611,3.322,3.322,0,0,1,.395,1.788V162.5c0,.08,0,.181.006.3s.009.242.013.365.01.24.017.349.016.194.025.258Zm-.1-3.025h-.479a3.113,3.113,0,0,0-.576.055,1.323,1.323,0,0,0-.511.2,1.154,1.154,0,0,0-.365.414,1.408,1.408,0,0,0-.145.684,1.234,1.234,0,0,0,.277.9.839.839,0,0,0,1.17.071,1.439,1.439,0,0,0,.372-.515,2.861,2.861,0,0,0,.2-.685,4.617,4.617,0,0,0,.059-.72Z"/>
    <path d="M573.519,163.77v-3.84a5.04,5.04,0,0,0-.031-.559,1.7,1.7,0,0,0-.132-.516.983.983,0,0,0-.288-.383.75.75,0,0,0-.485-.151.923.923,0,0,0-.534.162,1.357,1.357,0,0,0-.4.445,2.551,2.551,0,0,0-.252.647,3.233,3.233,0,0,0-.089.763v3.432h-.792v-4.453c0-.128,0-.265-.006-.414s-.008-.292-.012-.431-.009-.269-.013-.384-.009-.206-.017-.271h.767c.017.153.029.336.036.552s.013.42.013.612h.024a2.156,2.156,0,0,1,.551-.977,1.313,1.313,0,0,1,.96-.378,1.335,1.335,0,0,1,.775.2,1.351,1.351,0,0,1,.45.534,2.52,2.52,0,0,1,.21.744,6.365,6.365,0,0,1,.054.823v3.84Z"/>
    <path d="M579.086,163.77V162.7h-.024a2.07,2.07,0,0,1-.48.9,1.232,1.232,0,0,1-.947.36,1.382,1.382,0,0,1-.8-.24,1.967,1.967,0,0,1-.588-.666,3.608,3.608,0,0,1-.366-1.008,6.059,6.059,0,0,1-.126-1.278,6.265,6.265,0,0,1,.12-1.273,3.378,3.378,0,0,1,.355-.989,1.841,1.841,0,0,1,.587-.649,1.435,1.435,0,0,1,.81-.233,1.324,1.324,0,0,1,.912.329,1.661,1.661,0,0,1,.5.87h.024V154.7h.792v9.073Zm0-2.976a5.723,5.723,0,0,0-.078-.984,2.943,2.943,0,0,0-.239-.787,1.521,1.521,0,0,0-.4-.521.9.9,0,0,0-1.11,0,1.5,1.5,0,0,0-.39.521,2.952,2.952,0,0,0-.227.787,6.176,6.176,0,0,0-.073.984,6,6,0,0,0,.073.966,3.035,3.035,0,0,0,.227.786,1.475,1.475,0,0,0,.39.527.9.9,0,0,0,1.116,0,1.536,1.536,0,0,0,.4-.527,3.028,3.028,0,0,0,.239-.786A5.559,5.559,0,0,0,579.086,160.794Z"/>
  </g>
  <path class="cls-5" d="M72.258,165.771c-12.567-7.585-8.049-28.816,0-28.47s32.267-5.119,36.463,0,18.329,21.821,22,25S79.32,170.034,72.258,165.771Z"/>
  <path class="cls-5" d="M214.815,165.771c-5.766-5.973,5.525-28.816,13.056-28.47s115.007.449,122.909,0,5.937,31.938-1.034,28.47S225.034,176.356,214.815,165.771Z"/>
  <path class="cls-5" d="M593.138,137.3c-5.8-.061,1.252,22.617,4.69,25s58.4,8.09,63.692,0S635.915,137.75,593.138,137.3Z"/>
  <path class="cls-5" d="M751.116,161.407c-8.216-4.888,5.554-21.881,35.857-19.943s136.2,10.686,154.834,5.119,36.023-11.829,45.224-5.119,37.9,4.323,47.013,4.323,9.113,16.127,5.137,15.62S761.529,167.6,751.116,161.407Z"/>
</svg>
