<svg id="Logos" xmlns="http://www.w3.org/2000/svg" width="1100" height="200" viewBox="0 0 1100 200">
  <defs>
    <style>
      .cls-1, .cls-2 {
        fill: none;
        stroke: #000;
        stroke-linecap: round;
        stroke-linejoin: round;
      }

      .cls-1 {
        stroke-width: 3px;
      }

      .cls-2 {
        stroke-width: 2px;
      }

      .cls-3 {
        font-size: 10.364px;
        font-family: AbadiMT-CondensedLight, Abadi MT Condensed Light;
      }
    </style>
  </defs>
  <title>storm</title>
  <path class="cls-1" d="M21.365,21.858c3.073-6.956,1056.53-4.682,1062.188,0s8.938,148.89,4.469,156.381-1061.363,7.492-1066.657,0S17.229,31.222,21.365,21.858Z"/>
  <path d="M538.625,100.2a30.2,30.2,0,0,0,51.895,5.309,22.612,22.612,0,0,0,41.037-8.9l.012-.007a28.9,28.9,0,1,0-3.934-35.429,19.277,19.277,0,0,0-17.55,3.569,30.206,30.206,0,0,0-58.72-13.355,25.4,25.4,0,1,0-12.74,48.814Z"/>
  <polygon class="cls-2" points="584.145 103.77 592.459 153.799 598.318 149.352 595.985 177.85 604.752 140.457 598.318 142.68 609.149 102.553 584.145 103.77"/>
  <polyline class="cls-2" points="573.787 183.849 561.938 169.86 578.623 172.925 578.623 155.301 590.035 162.964"/>
  <polyline class="cls-2" points="604.963 164.496 618.078 155.301 618.078 169.575 633.798 162.438 626.334 183.858"/>
  <g>
    <path d="M727.8,141.952l-1.812-.517a331.523,331.523,0,0,0-7.9-34.2q-5.307-18.864-9.642-27.147l-.389.258a27.313,27.313,0,0,1-2.782,5.63,17.986,17.986,0,0,0-2.654,6.44q-.26,2.362-.259,9.287l.648,29.25q0,8.347-2.783,8.349-2.394,0-2.395-6.117t.874-18.378q.873-12.264.874-18.412l-.518-47.629-.259-.518-.971-6.213q0-2.781,2.265-2.782a3.764,3.764,0,0,1,1.65.259q.486.258.874,1.811.647,2.33.648,13.266L702.756,83h.129q2.654-5.629,7.086-16.663t5.016-12.393q7.183-18.379,9.384-18.379,2.264,0,2.265,1.941a11.676,11.676,0,0,1-1.683,4.595q-1.359,2.2-1.683,2.912t-2.2,4.692q-1.878,3.98-3.236,6.924t-3.041,6.892Q711.1,72,710.845,74.649l.647,1.166-.517.387q4.529,11.391,10.451,32.875t9.028,30.352A2.4,2.4,0,0,1,727.8,141.952Z"/>
    <path d="M759.64,119.173l-3.5.129a10.742,10.742,0,0,0-4.142-.776,10.463,10.463,0,0,0-2.458.13.665.665,0,0,0-.259.452,2.01,2.01,0,0,1-.13.453l-.259,2.654a66.414,66.414,0,0,1-1.229,8.089q-1.812,9.256-3.818,9.255a2.863,2.863,0,0,1-1.747-.712,2,2,0,0,1-.907-1.554,113.491,113.491,0,0,0,3.5-15.078q1.812-10.1,2.265-12.587t1.683-10.063l1.617-9.966q.39-2.394,2.1-10.355t2.072-10.418q.354-2.46.808-6.666,1.1-10.355,1.748-11.52l1.812.13a3.261,3.261,0,0,0,2.394-.777,2.76,2.76,0,0,1,1.618.551A1.7,1.7,0,0,1,763.588,52q0,6.343,1.618,24.527t2.555,23.523q.938,5.34,2.168,10.484a36.874,36.874,0,0,1,1.23,7.864l-.647,1.812a51.294,51.294,0,0,0,1.1,8.769,51.145,51.145,0,0,1,1.1,8.153q0,2.364-1.037,2.945-2.717,0-3.331-.776a4.023,4.023,0,0,1-.615-2.492q0-1.714-.227-4.207t-.454-3.979q-.226-1.49-.776-4.693t-.679-4.109A24.193,24.193,0,0,0,759.64,119.173Zm-9.319-6.537q0,1.361,3.171,2.266a39.777,39.777,0,0,0,10.743,1.359h1.359a19.226,19.226,0,0,1-.841-5.954v-3.041a202.052,202.052,0,0,0-2.039-23.945A231.117,231.117,0,0,1,760.546,59.9q-6.926,34.233-8.575,42.29A69.371,69.371,0,0,0,750.321,112.636Z"/>
    <path d="M791.22,135.87l12.49.387h.389a1.829,1.829,0,0,1,1.359.745,2.313,2.313,0,0,1,.647,1.52q0,1.489-2.136,1.683-3.431-.131-11-.129l.259.129-4.919.453q-1.876,0-2.2-3.041a25.669,25.669,0,0,0,.258-4.4l.778-70.669.646-8.736c0-.6.325-.905.971-.905l2.2.517-.13,10.484.13,28.863q-.389,10.872-.389,11.13l.259,11.261-.388,1.1.129-.13-.129,1.036a4.151,4.151,0,0,0,.388,1.876l-.388,12.685v.84a16.91,16.91,0,0,0,.129,2.687Q790.7,135.87,791.22,135.87Z"/>
    <path d="M838.656,137.876l-4.4-.453a5.511,5.511,0,0,0-2.459.743,7.242,7.242,0,0,1-3.4.745q-1.976,0-2.492-1.294l-2.2.129q-2.848,0-3.624-1.359a1.668,1.668,0,0,1,.744-1.391,5.725,5.725,0,0,0,1-.874h3.817l.518-.517.453-2.784-.971-28.992L826.3,70.9q0-8.994-.648-15.338a14.8,14.8,0,0,0-3.947-.387l-3.171.258q-2.523,0-2.523-2.265c0-.388.4-.754,1.2-1.1a5.237,5.237,0,0,1,1.973-.518q18.444,0,18.444,4.012a2.519,2.519,0,0,1-.324,1.036l-3.041.258a6.732,6.732,0,0,0-3.819-.776l-.646.389q.387,1.164.387,7.053l-.387,31.517.906,29.056-.13,4.078q0,3.1.389,3.688l-.13.324q0,1.294,2.912,1.294l3.883-.129q3.946,0,3.947,1.876a2.43,2.43,0,0,1-.841,1.909A3.012,3.012,0,0,1,838.656,137.876Z"/>
    <path d="M906.154,111.342l.129,8.349q0,11.2-2.912,16.5a10.638,10.638,0,0,1-3.559,3.721,10.834,10.834,0,0,1-6.019,1.521A12.424,12.424,0,0,1,887,139.461a13.982,13.982,0,0,1-4.79-4.951,36.808,36.808,0,0,1-2.944-6.925,47.32,47.32,0,0,1-1.78-7.441q-1.49-9.189-2.912-11.843,0-10.548-1.327-31.548T871.92,45.205l-.907-2.784a2.88,2.88,0,0,1,.68-1.779,1.975,1.975,0,0,1,1.586-.874q3.3,0,3.3,9.708l1.164,44.782a6.525,6.525,0,0,1,.648,3.171,103.691,103.691,0,0,0,1.23,11.778,20.465,20.465,0,0,0-.259,3.365,25.078,25.078,0,0,0,1.262,6.084,53.045,53.045,0,0,0,3.3,8.412,25.744,25.744,0,0,0,5.081,7.119q3.041,2.977,5.436,2.977a9.224,9.224,0,0,0,3.559-.518,6.4,6.4,0,0,0,1.812-1.132,4.619,4.619,0,0,0,1.068-2.039,21.6,21.6,0,0,0,.55-2.168q.128-.744.259-2.654t.1-2.329c-.023-.281-.033-.679-.033-1.2l.388-4.4V105.647l-.9-7.96-.777-23.75V72.255l-.583-.777a49.2,49.2,0,0,0,.583-7.571l-1.23-22.521a1.744,1.744,0,0,1,.939-1.586,3.844,3.844,0,0,1,1.973-.549l2.266,2.135-.389,1.035.389,1.036-.907,7.96L904.8,75.3l.647,23.039.453.13a21.441,21.441,0,0,0-.13,2.782l.389,9.319.388.389Z"/>
    <path d="M924.921,85.392l-.518,26.727q0,11.2,2.135,16.05,2.46,5.7,6.279,7.376a12.138,12.138,0,0,0,5.014,1.1,5.852,5.852,0,0,0,3.915-1.165q2.007,0,2.007,1.424,0,1.035-1.78,2.3a15.739,15.739,0,0,1-3.268,1.844h-4.4a20.333,20.333,0,0,0-3.107-1.165,14.34,14.34,0,0,1-4.174-2.1,13.138,13.138,0,0,1-3.591-4.6,24.713,24.713,0,0,1-2.395-7.474,95.725,95.725,0,0,1-1.164-15.661V94.905q0-17.667,1.294-24.2,2.586-13.266,7.053-16.761a14.7,14.7,0,0,1,3.592-1.845,27.935,27.935,0,0,0,3.333-1.456h5.306a1.438,1.438,0,0,1,.356.065c.151.044.269.076.356.1s.205.055.356.1.259.075.324.1a2.681,2.681,0,0,1,.291.13,1.115,1.115,0,0,1,.259.161,1.861,1.861,0,0,1,.582,1.36l-1.747,1.94h-5.565a5.887,5.887,0,0,0-4.725,2.557,18.424,18.424,0,0,0-3.074,6.051,53.161,53.161,0,0,0-1.714,8.089,96.384,96.384,0,0,0-.971,13.4Z"/>
    <path d="M974.039,51.158l.712-.583a2.079,2.079,0,0,1,1.165-.582,15.079,15.079,0,0,1,2.783.777q0,10.354.841,30.966t.842,33.2q0,12.588.841,23.977l-.841,1.488q-.132-1.359-4.078-1.359-.646-29.445-.646-35.528l-.325-.517.453-1.166a31.95,31.95,0,0,0-.453-4.918l-2.07-.518a8.374,8.374,0,0,1-2.654.389l-8.478-1.36-1.358.518-.389,16.7.389.583.776,22.133q0,3.431-2.2,3.429-2.913,0-2.913-7.96l.26-24.267q0-12.038-.388-12.943.645-1.294.647-8.8l-.971-31a2.625,2.625,0,0,1,.68-1.715,2.021,2.021,0,0,1,1.585-.809q2.652,0,2.653,7.7l-.518,32.358q0,1.552,10.614,1.553a5.722,5.722,0,0,0,3.656-.938q1.132-.937,1.132-5.211t-.873-16.469q-.873-12.2-.874-18.282Zm-2.006,39.929.259.259h-.259Z"/>
    <path d="M1015.91,137.876l-4.4-.453a5.511,5.511,0,0,0-2.459.743,7.242,7.242,0,0,1-3.4.745q-1.976,0-2.492-1.294l-2.2.129q-2.849,0-3.624-1.359a1.668,1.668,0,0,1,.744-1.391,5.764,5.764,0,0,0,1-.874h3.817l.518-.517.453-2.784-.971-28.992.648-30.933q0-8.994-.648-15.338a14.8,14.8,0,0,0-3.947-.387l-3.171.258q-2.523,0-2.524-2.265c0-.388.4-.754,1.2-1.1a5.237,5.237,0,0,1,1.973-.518q18.442,0,18.444,4.012a2.519,2.519,0,0,1-.324,1.036l-3.041.258a6.734,6.734,0,0,0-3.819-.776l-.646.389q.387,1.164.387,7.053l-.387,31.517.905,29.056-.129,4.078q0,3.1.388,3.688l-.129.324q0,1.294,2.912,1.294l3.883-.129q3.945,0,3.947,1.876a2.43,2.43,0,0,1-.841,1.909A3.012,3.012,0,0,1,1015.91,137.876Z"/>
    <path d="M1043.673,54.459l-2.783-.777a4.826,4.826,0,0,0-3.624,1.65,10.5,10.5,0,0,0-2.33,4.11,25.277,25.277,0,0,0-1.618,7.506q0,2.718.13,3.884a24.3,24.3,0,0,0,.485,2.717q.356,1.554.486,2.2t.743,2.687c.41,1.358.637,2.125.68,2.3l.971,2.395q1.293,2.33,3.365,5.857t3.106,5.339q1.035,1.812,2.395,4.757a29.771,29.771,0,0,1,1.942,5.338,43.92,43.92,0,0,1,1.617,11.034,62.608,62.608,0,0,1-.388,7.831,31.18,31.18,0,0,1-1.457,6.051,23.6,23.6,0,0,1-2.62,5.435,11.27,11.27,0,0,1-9.967,5.436l-.646.323q-3.884-.713-4.272-3.235l.647-1.036,4.789.907a6.923,6.923,0,0,0,5.242-2.362,15.044,15.044,0,0,0,3.3-5.987,45.167,45.167,0,0,0,1.941-12.457,34.784,34.784,0,0,0-1.65-10.808,52.846,52.846,0,0,0-3.98-9.286q-2.33-4.206-4.66-8.413-5.63-10.159-5.63-20a26.03,26.03,0,0,1,1.813-9.643q3.3-8.477,8.672-8.478a6.21,6.21,0,0,1,3.267,1.133,3.146,3.146,0,0,1,1.78,2.556Q1045.42,54.458,1043.673,54.459Zm.9-.518v.129h.13A.115.115,0,0,0,1044.578,53.941Z"/>
  </g>
  <g>
    <path d="M124.066,163.119l.155,3.772q0,1.056-.631,1.055l-.528-.4q.245-2.535.245-5.355t.18-6.365q.18-3.546.18-5.31a.408.408,0,0,1,.232-.373,1.588,1.588,0,0,1,.734-.129,12.437,12.437,0,0,1,1.7.193q1.2.193,1.2.567,0,.45-.94.45a2.245,2.245,0,0,0-1.081-.257,4.914,4.914,0,0,0-.7.025.209.209,0,0,0-.116.065.7.7,0,0,0-.064.186,1.438,1.438,0,0,1-.1.278l-.257,5.56v.927q0,.09.45.09c.876-.018,1.313.116,1.313.4a.427.427,0,0,1-.2.361.755.755,0,0,1-.425.141l-.876-.155q-.476,0-.476,1.288Zm-.837-8.6v.025c0,.018-.01.025-.032.025s-.032-.007-.032-.025.013-.025.039-.025Z"/>
    <path d="M133.952,151.046l-1.429-.181-.129.156.052.1a9.528,9.528,0,0,0-.052,1.506q0,1.4.438,6.559t.438,7.729a.53.53,0,0,1-.5.5l-.3-.219-.052-1.918.052-.926a1.776,1.776,0,0,0-.1-.631q0-2.239-.316-6.527t-.341-6.333q-2.073,0-2.214-.5a.48.48,0,0,1,.5-.295l3.579.245.476-.027c.317,0,.476.113.476.335a.355.355,0,0,1-.193.3A.72.72,0,0,1,133.952,151.046Z"/>
    <path d="M137.2,167.477a.662.662,0,0,1-.174-.445.681.681,0,0,1,.213-.469.624.624,0,0,1,.457-.225.589.589,0,0,1,.444.225.693.693,0,0,1,.2.457q0,.655-.734.656A.523.523,0,0,1,137.2,167.477Z"/>
    <path d="M147.918,160.558l.128,6.14q0,1.03-.45,1.03c-.18,0-.318-.122-.412-.366a1.917,1.917,0,0,1-.142-.69l.219-4.324q0-1.391-.186-4.2t-.187-4.229l.026-2.471q0-2.715-.451-2.716l-1.493.155a.652.652,0,0,1-.373-.123.378.378,0,0,1-.18-.328q0-.27,1.75-.515a21.218,21.218,0,0,1,2.781-.244.616.616,0,0,1,.373.135.389.389,0,0,1,.18.315c0,.257-.168.386-.5.386l-.978-.077c-.3,0-.485.09-.554.27a29.58,29.58,0,0,1,.193,3.424l-.038,3.193A18.873,18.873,0,0,0,148,159.8,3.826,3.826,0,0,0,147.918,160.558Z"/>
    <path d="M155,161.884l.025,4.184q0,1.9-.553,1.905a.38.38,0,0,1-.219-.1.535.535,0,0,1-.168-.193,21.02,21.02,0,0,0,.258-4.607q0-.772-.1-2.2T154.135,159l-.167-.335.077-.322q-.334-.772-1.236-3.333a28.188,28.188,0,0,1-1.339-4.261l.361-.283q.257.037.772,1.68t1.011,3.289q.495,1.645.7,1.7l.1-.476-.051-.129a6.593,6.593,0,0,0,.508-1.873q.315-1.64.676-3.115t.7-1.473q.334,0,.335.283a6.472,6.472,0,0,1-.284,1.281q-.283,1-.527,1.821t-.367,1.275q-.123.45-.277,1.133a10.331,10.331,0,0,0-.309,2.406,1.477,1.477,0,0,1,.129.451l-.154.759Z"/>
    <path d="M160.133,166.969l2.485.077h.077a.362.362,0,0,1,.27.148.457.457,0,0,1,.129.3c0,.2-.142.309-.425.335q-.683-.025-2.188-.026l.051.026-.978.09q-.374,0-.438-.6a5.1,5.1,0,0,0,.052-.875l.154-14.056.129-1.738c0-.12.065-.18.193-.18l.438.1-.026,2.084.026,5.742Q160,160.558,160,160.61l.052,2.24-.077.219.025-.027-.025.206a.821.821,0,0,0,.077.374l-.077,2.523v.167a3.394,3.394,0,0,0,.025.534Q160.029,166.969,160.133,166.969Z"/>
    <path d="M165.513,167.367l.026-.669-.09-.1a3.117,3.117,0,0,0,.193-1.081l-.129-3.476.18-7.941-.1-3.154a.666.666,0,0,1,.759-.747.505.505,0,0,1,.425.167c.06.018.313.052.759.1q1.623.18,1.661.656c0,.138-.168.305-.5.5a8.952,8.952,0,0,0-2.137-.5l-.129.155q.025.374.026,1.132l-.1,4.094c0,.488.124.733.373.733l.888-.051q1.005,0,1.03.476a.848.848,0,0,1-.135.476.532.532,0,0,1-.483.206.624.624,0,0,1-.515-.206l-.862-.128h-.116l-.129.128v.078q.053.681.052,2.085l-.052,3.745q0,2.627.361,2.909a1.37,1.37,0,0,0,.849.194l.979-.052c.514,0,.772.116.772.348q0,.476-1.146.476h-2.175C165.715,167.921,165.539,167.737,165.513,167.367Z"/>
    <path d="M171.744,150.994q0-1,.579-1a3.357,3.357,0,0,1,2.124.651,2.273,2.273,0,0,1,.836,1.911v1.918a6.852,6.852,0,0,1-1.03,2.909,4.574,4.574,0,0,0-.347.689q0,.058,1,4.17t1.049,4.242c.034.086.12.265.257.54a1.647,1.647,0,0,1,.206.708.262.262,0,0,1-.3.3l-.386-.128q-.618-.7-1.352-5.15-.708-4.3-1.21-4.3h-.1q-.579,0-.579.373,0,1.442.168,4.8a35.109,35.109,0,0,0,.282,3.752l-.192.438h-.387l-.193-.206Q171.743,156.181,171.744,150.994Zm.746.361.1,6.384.052.052a1.133,1.133,0,0,0,.9-.521A3.649,3.649,0,0,0,174.15,156a9.647,9.647,0,0,0,.425-2.342,10.482,10.482,0,0,0-.051-1.2,3.818,3.818,0,0,0-.219-.855,1.436,1.436,0,0,0-1.506-.927c-.1,0-.18.081-.232.244A1.488,1.488,0,0,0,172.49,151.355Z"/>
    <path d="M178.8,169.658l.052-.244q1.377-1.144,1.377-1.918a1.585,1.585,0,0,1-.54-.5,1.173,1.173,0,0,1-.219-.67.7.7,0,0,1,.315-.579,1.123,1.123,0,0,1,.676-.231q.593,0,.875.772l-.051.077a1.132,1.132,0,0,1,.051.425,3.2,3.2,0,0,1-.322,1.069,5.691,5.691,0,0,1-.836,1.371,1.425,1.425,0,0,1-.953.636Z"/>
    <path d="M190.884,160.558l.129,6.14q0,1.03-.451,1.03-.27,0-.412-.366a1.936,1.936,0,0,1-.141-.69l.219-4.324q0-1.391-.187-4.2t-.187-4.229l.026-2.471q0-2.715-.45-2.716l-1.493.155a.655.655,0,0,1-.374-.123.378.378,0,0,1-.18-.328q0-.27,1.75-.515a21.218,21.218,0,0,1,2.781-.244.616.616,0,0,1,.373.135.389.389,0,0,1,.18.315q0,.386-.5.386l-.978-.077c-.3,0-.485.09-.553.27a29.807,29.807,0,0,1,.192,3.424l-.038,3.193a18.873,18.873,0,0,0,.373,4.479A3.9,3.9,0,0,0,190.884,160.558Z"/>
    <path d="M198.388,150.119l.142-.116a.414.414,0,0,1,.232-.115,2.982,2.982,0,0,1,.553.154q0,2.059.167,6.159t.168,6.6q0,2.5.167,4.768l-.167.3c-.018-.179-.288-.27-.811-.27q-.129-5.856-.129-7.067l-.064-.1.09-.233a6.345,6.345,0,0,0-.09-.977l-.412-.1a1.652,1.652,0,0,1-.528.078l-1.686-.27-.27.1-.078,3.321.078.115.154,4.4q0,.682-.438.683-.578,0-.579-1.584l.052-4.826a18.7,18.7,0,0,0-.078-2.575,6.2,6.2,0,0,0,.129-1.75l-.193-6.166a.523.523,0,0,1,.135-.341.4.4,0,0,1,.316-.161q.528,0,.527,1.532l-.1,6.435q0,.31,2.111.309a1.137,1.137,0,0,0,.728-.186q.225-.186.225-1.037t-.174-3.275q-.174-2.425-.174-3.637Zm-.4,7.942.052.051h-.052Z"/>
    <path d="M202.662,167.367l.026-.669-.09-.1a3.14,3.14,0,0,0,.193-1.081l-.129-3.476.18-7.941-.1-3.154a.666.666,0,0,1,.76-.747.5.5,0,0,1,.424.167c.06.018.313.052.76.1q1.622.18,1.66.656,0,.207-.5.5a8.947,8.947,0,0,0-2.136-.5l-.129.155q.025.374.026,1.132l-.1,4.094c0,.488.124.733.373.733l.888-.051q1,0,1.03.476a.841.841,0,0,1-.136.476.531.531,0,0,1-.482.206.623.623,0,0,1-.515-.206l-.863-.128h-.115l-.129.128v.078q.051.681.052,2.085l-.052,3.745q0,2.627.36,2.909a1.371,1.371,0,0,0,.85.194l.978-.052q.772,0,.773.348c0,.317-.383.476-1.146.476h-2.176C202.863,167.921,202.688,167.737,202.662,167.367Z"/>
    <path d="M213.5,154.6l-.232,1.905q0,1.557.348,5.2a15.022,15.022,0,0,0,.708,4.2,2.316,2.316,0,0,0,2.078,1.069,2.517,2.517,0,0,0,2.028-.76,2.585,2.585,0,0,0,.6-.09l.129.142q0,1.262-2.009,1.647a5.814,5.814,0,0,1-1.074.09,2.532,2.532,0,0,1-1.41-.592,3.47,3.47,0,0,1-1.146-1.313,20.19,20.19,0,0,1-.656-4.48q-.323-3.756-.322-6.616a17.848,17.848,0,0,1,.167-3.372,4.333,4.333,0,0,1-.089-.849,2.945,2.945,0,0,1,1.132-2.465,4.389,4.389,0,0,1,2.781-.882,2.134,2.134,0,0,1,.984.283q.534.284.534.7c0,.2-.137.3-.411.3a.6.6,0,0,1-.322-.161.614.614,0,0,0-.342-.161.931.931,0,0,0-.289.052,1.977,1.977,0,0,0-.631-.1,2.822,2.822,0,0,0-.778.135,2.589,2.589,0,0,0-.76.348,1.8,1.8,0,0,0-.515.573,4.009,4.009,0,0,0-.328.688,4.091,4.091,0,0,0-.18.843,17.628,17.628,0,0,0-.078,1.816Z"/>
    <path d="M221.583,150.994q0-1,.58-1a3.357,3.357,0,0,1,2.124.651,2.273,2.273,0,0,1,.836,1.911v1.918a6.852,6.852,0,0,1-1.03,2.909,4.574,4.574,0,0,0-.347.689q0,.058,1,4.17t1.048,4.242c.035.086.121.265.258.54a1.647,1.647,0,0,1,.206.708.262.262,0,0,1-.3.3l-.386-.128q-.618-.7-1.352-5.15-.708-4.3-1.21-4.3h-.1q-.579,0-.579.373,0,1.442.168,4.8a35.109,35.109,0,0,0,.282,3.752l-.193.438H222.2l-.193-.206Q221.584,156.181,221.583,150.994Zm.747.361.1,6.384.051.052a1.133,1.133,0,0,0,.9-.521A3.667,3.667,0,0,0,223.99,156a9.7,9.7,0,0,0,.425-2.342,10.482,10.482,0,0,0-.051-1.2,3.873,3.873,0,0,0-.219-.855,1.436,1.436,0,0,0-1.506-.927c-.1,0-.181.081-.232.244A1.488,1.488,0,0,0,222.33,151.355Z"/>
    <path d="M228.752,167.367l.026-.669-.09-.1a3.117,3.117,0,0,0,.193-1.081l-.129-3.476.181-7.941-.1-3.154a.666.666,0,0,1,.759-.747.5.5,0,0,1,.425.167c.06.018.313.052.759.1q1.623.18,1.661.656,0,.207-.5.5a8.952,8.952,0,0,0-2.137-.5l-.128.155q.025.374.025,1.132l-.1,4.094c0,.488.124.733.373.733l.889-.051q1,0,1.029.476a.848.848,0,0,1-.135.476.531.531,0,0,1-.482.206.621.621,0,0,1-.515-.206l-.863-.128h-.115l-.129.128v.078q.051.681.051,2.085l-.051,3.745q0,2.627.36,2.909a1.371,1.371,0,0,0,.85.194l.978-.052q.772,0,.773.348c0,.317-.383.476-1.146.476H229.28C228.954,167.921,228.778,167.737,228.752,167.367Z"/>
    <path d="M238.394,163.648l-.695.025a2.137,2.137,0,0,0-.824-.154,2.209,2.209,0,0,0-.489.025.139.139,0,0,0-.052.091.42.42,0,0,1-.025.09l-.052.527a13.306,13.306,0,0,1-.244,1.61q-.362,1.84-.76,1.84a.576.576,0,0,1-.347-.141.4.4,0,0,1-.18-.31,22.716,22.716,0,0,0,.694-3q.362-2.007.451-2.5t.335-2q.245-1.506.321-1.982t.419-2.06q.34-1.581.412-2.072t.161-1.325a12.35,12.35,0,0,1,.347-2.292l.361.026a.653.653,0,0,0,.476-.154.545.545,0,0,1,.321.109.338.338,0,0,1,.155.289q0,1.263.322,4.879t.508,4.679q.188,1.062.431,2.085a7.28,7.28,0,0,1,.245,1.564l-.129.361a10.222,10.222,0,0,0,.219,1.744,10.149,10.149,0,0,1,.219,1.622c0,.312-.069.508-.206.585q-.54,0-.663-.154a.8.8,0,0,1-.122-.5q0-.34-.045-.836c-.03-.331-.061-.594-.09-.792s-.082-.508-.155-.933-.118-.7-.135-.817A4.791,4.791,0,0,0,238.394,163.648Zm-1.853-1.3c0,.18.209.33.63.45a7.919,7.919,0,0,0,2.137.271h.27a3.827,3.827,0,0,1-.167-1.185v-.6a40.275,40.275,0,0,0-.406-4.762,46.053,46.053,0,0,1-.431-4.66q-1.377,6.81-1.705,8.412A13.738,13.738,0,0,0,236.541,162.348Z"/>
    <path d="M247.636,151.046l-1.429-.181-.129.156.052.1a9.528,9.528,0,0,0-.052,1.506q0,1.4.438,6.559t.438,7.729a.53.53,0,0,1-.5.5l-.3-.219-.052-1.918.052-.926a1.776,1.776,0,0,0-.1-.631q0-2.239-.316-6.527t-.341-6.333q-2.073,0-2.214-.5a.48.48,0,0,1,.5-.295l3.579.245.476-.027c.317,0,.476.113.476.335a.355.355,0,0,1-.193.3A.72.72,0,0,1,247.636,151.046Z"/>
    <path d="M256.453,157.392l.052,3.14q0,5.934-1.905,7.222a1.79,1.79,0,0,1-1.043.321q-3.088,0-3.089-9.7a35.868,35.868,0,0,1,.514-6.5q.387-2.007,1.172-2.007a.51.51,0,0,1,.341.141,1.288,1.288,0,0,0,.438.238,5.334,5.334,0,0,0,.759.187l.689.129q.526.09,1.016,1.016a11.478,11.478,0,0,1,1.108,5.69Zm-5.161.952.051,2.086a19.65,19.65,0,0,0,.566,4.775,4.792,4.792,0,0,0,.612,1.481,1.131,1.131,0,0,0,.927.63,1.259,1.259,0,0,0,.913-.386,2.668,2.668,0,0,0,.625-1.075,13.158,13.158,0,0,0,.386-1.4,11.581,11.581,0,0,0,.219-1.6q.1-1.417.1-2.524l-.3-6.229-.1-.206.051-.129a3.209,3.209,0,0,0-.643-2,1.915,1.915,0,0,0-1.571-.85h-1.107q-.219,0-.386,2.35t-.219,2.606Z"/>
    <path d="M259.233,150.994q0-1,.579-1a3.362,3.362,0,0,1,2.125.651,2.273,2.273,0,0,1,.836,1.911v1.918a6.852,6.852,0,0,1-1.03,2.909,4.574,4.574,0,0,0-.347.689q0,.058,1,4.17t1.048,4.242c.035.086.12.265.258.54a1.647,1.647,0,0,1,.206.708.262.262,0,0,1-.3.3l-.386-.128q-.618-.7-1.352-5.15-.708-4.3-1.21-4.3h-.1q-.579,0-.579.373,0,1.442.167,4.8a35.258,35.258,0,0,0,.283,3.752l-.193.438h-.386l-.193-.206Q259.234,156.181,259.233,150.994Zm.747.361.1,6.384.051.052a1.133,1.133,0,0,0,.9-.521,3.667,3.667,0,0,0,.6-1.269,9.7,9.7,0,0,0,.425-2.342,10.482,10.482,0,0,0-.051-1.2,3.93,3.93,0,0,0-.219-.855,1.436,1.436,0,0,0-1.506-.927c-.1,0-.181.081-.232.244A1.488,1.488,0,0,0,259.98,151.355Z"/>
    <path d="M279.829,164.3c0,.283-.368.425-1.1.425a4.249,4.249,0,0,1-2.478-1.056,7.889,7.889,0,0,1-1.474.837,4.13,4.13,0,0,1-1.525.244,2.655,2.655,0,0,1-1.706-.643,4.28,4.28,0,0,1-1.21-1.564,4.064,4.064,0,0,1-.418-1.647c0-.486.006-.884.02-1.2a6.366,6.366,0,0,1,.115-.965c.065-.331.112-.6.142-.8a4.493,4.493,0,0,1,.232-.818q.186-.515.244-.708a6.526,6.526,0,0,1,.348-.778q.29-.587.354-.721t.437-.856q.373-.721.451-.875l-.18-3.695V147.3a2.286,2.286,0,0,1,.276-1.229c.185-.288.375-.431.573-.431a2.632,2.632,0,0,1,1.3.4,1.134,1.134,0,0,1,.695.952l-.077,1.571a1.4,1.4,0,0,0,.026.322q-.193.54-.451,1.287a9.837,9.837,0,0,1-.952,2.227,2.558,2.558,0,0,0-.593,1.21,14.43,14.43,0,0,0,.509,2.85,31.315,31.315,0,0,0,1.287,4.036q.779,1.969,1.384,2.15a11.454,11.454,0,0,0,1-5.111c0-.3-.077-.437-.232-.412a.377.377,0,0,1-.4-.167l.026-.051-.052-.167.078-.129q.45,0,1.512-.11a6.958,6.958,0,0,0,1.333-.213q.45.066.45.4c0,.129-.148.231-.444.308a3.4,3.4,0,0,1-.869.117l-.631-.026h-.167a20.676,20.676,0,0,1-.225,3.36,9.129,9.129,0,0,1-.908,2.651,2.664,2.664,0,0,0,2.034,1.056l.978-.078Zm-8.856-7.2a9.526,9.526,0,0,0-.476,2.722,7.925,7.925,0,0,0,.167,1.834,5.172,5.172,0,0,0,.5,1.282,2.443,2.443,0,0,0,2.291,1.312,4.164,4.164,0,0,0,1.377-.315c.566-.21.863-.456.888-.74a3.849,3.849,0,0,0-.528-.6,7.486,7.486,0,0,1-1.5-2.6,18.416,18.416,0,0,1-.849-2.69q-.187-.94-.277-1.732a6.9,6.9,0,0,0-.219-1.2A8.488,8.488,0,0,0,270.973,157.1Zm1.789-6.455a1.32,1.32,0,0,0-.052.405,6.2,6.2,0,0,0,.039.625c.026.249.039.441.039.579a5.516,5.516,0,0,0,1-2.034,8.388,8.388,0,0,0,.553-2.343q0-1.582-.978-1.583-.18,0-.431.38a1.215,1.215,0,0,0-.251.573l.025,3.269Zm5.805,8.83a.023.023,0,0,1,.026.026Z"/>
    <path d="M291.207,161.485l-.077,1.132a1.292,1.292,0,0,0,.077.3,7.6,7.6,0,0,1-.682,2.607,3.777,3.777,0,0,1-.985,1.158,7.544,7.544,0,0,1-1.422.792,2.073,2.073,0,0,0-.515.135,1.673,1.673,0,0,1-.528.122q-1.029,0-1.03-.361l.129-6.68-.18-10.992q0-1.893.682-1.893a3.344,3.344,0,0,1,2.748,1.159,4.775,4.775,0,0,1,.946,3.114,7.306,7.306,0,0,1-1.7,4.248q.374.555.863,1.2l.72.978a4.039,4.039,0,0,1,.824,1.6A7.494,7.494,0,0,1,291.207,161.485Zm-4.4-11.649.1,6.32.077.026a1.74,1.74,0,0,0,1.519-1.069,10.04,10.04,0,0,0,.772-1.737c.2-.593.33-.966.4-1.12v-1a2.726,2.726,0,0,0-.656-1.724,1.923,1.923,0,0,0-1.532-.825Q286.8,148.7,286.805,149.836Zm.232,16.836.167.026a3.3,3.3,0,0,0,1.892-.83,3.064,3.064,0,0,0,1.229-1.461,7.208,7.208,0,0,0,.148-1.609q0-4.724-2.265-5.664a3.258,3.258,0,0,0-.7.142,5.879,5.879,0,0,1-.6.155Q287.037,161.292,287.037,166.672Z"/>
    <path d="M299.715,157.392l.052,3.14q0,5.934-1.9,7.222a1.788,1.788,0,0,1-1.043.321q-3.089,0-3.089-9.7a35.771,35.771,0,0,1,.515-6.5q.385-2.007,1.171-2.007a.51.51,0,0,1,.341.141,1.288,1.288,0,0,0,.438.238,5.318,5.318,0,0,0,.76.187l.688.129q.528.09,1.017,1.016a11.491,11.491,0,0,1,1.107,5.69Zm-5.161.952.051,2.086a19.65,19.65,0,0,0,.566,4.775,4.841,4.841,0,0,0,.612,1.481,1.131,1.131,0,0,0,.927.63,1.262,1.262,0,0,0,.914-.386,2.678,2.678,0,0,0,.624-1.075,13.158,13.158,0,0,0,.386-1.4,11.581,11.581,0,0,0,.219-1.6q.1-1.417.1-2.524l-.3-6.229-.1-.206.051-.129a3.209,3.209,0,0,0-.643-2,1.914,1.914,0,0,0-1.57-.85h-1.107q-.219,0-.387,2.35t-.218,2.606Z"/>
    <path d="M308.378,157.392l.052,3.14q0,5.934-1.906,7.222a1.787,1.787,0,0,1-1.042.321q-3.09,0-3.089-9.7a35.868,35.868,0,0,1,.514-6.5q.387-2.007,1.172-2.007a.512.512,0,0,1,.341.141,1.293,1.293,0,0,0,.437.238,5.353,5.353,0,0,0,.76.187l.689.129q.526.09,1.016,1.016a11.478,11.478,0,0,1,1.108,5.69Zm-5.162.952.052,2.086a19.65,19.65,0,0,0,.566,4.775,4.792,4.792,0,0,0,.612,1.481,1.131,1.131,0,0,0,.927.63,1.26,1.26,0,0,0,.913-.386,2.679,2.679,0,0,0,.625-1.075,13.158,13.158,0,0,0,.386-1.4,11.581,11.581,0,0,0,.219-1.6q.1-1.417.1-2.524l-.3-6.229-.1-.206.051-.129a3.2,3.2,0,0,0-.644-2,1.912,1.912,0,0,0-1.57-.85H303.95q-.219,0-.386,2.35t-.219,2.606Z"/>
    <path d="M315.226,151.046l-1.429-.181-.129.156.052.1a9.528,9.528,0,0,0-.052,1.506q0,1.4.438,6.559t.437,7.729a.528.528,0,0,1-.5.5l-.3-.219-.052-1.918.052-.926a1.776,1.776,0,0,0-.1-.631q0-2.239-.316-6.527t-.341-6.333q-2.073,0-2.214-.5a.48.48,0,0,1,.5-.295l3.579.245.476-.027c.317,0,.476.113.476.335a.355.355,0,0,1-.193.3A.723.723,0,0,1,315.226,151.046Z"/>
    <path d="M320.748,150.776l-.554-.155a.961.961,0,0,0-.72.328,2.1,2.1,0,0,0-.464.818,5.018,5.018,0,0,0-.322,1.493c0,.36.009.618.026.772a4.608,4.608,0,0,0,.1.54c.047.206.079.353.1.439s.067.264.148.534.127.422.135.456l.193.477q.258.464.67,1.165t.617,1.061q.207.361.477.947a5.908,5.908,0,0,1,.386,1.062,8.7,8.7,0,0,1,.322,2.194,12.335,12.335,0,0,1-.078,1.558,6.189,6.189,0,0,1-.289,1.2,4.721,4.721,0,0,1-.521,1.081,2.24,2.24,0,0,1-1.983,1.082l-.129.065q-.771-.143-.849-.645l.129-.205.952.18a1.375,1.375,0,0,0,1.043-.47,3,3,0,0,0,.657-1.19,9,9,0,0,0,.385-2.478,6.912,6.912,0,0,0-.328-2.15,10.53,10.53,0,0,0-.791-1.847l-.927-1.674a8.161,8.161,0,0,1-1.12-3.976,5.163,5.163,0,0,1,.361-1.918q.655-1.686,1.724-1.687a1.227,1.227,0,0,1,.65.226.621.621,0,0,1,.354.508C321.1,150.707,320.979,150.776,320.748,150.776Zm.18-.1v.025h.026A.023.023,0,0,0,320.928,150.673Z"/>
    <path d="M327.647,161.884l.026,4.184q0,1.9-.553,1.905a.38.38,0,0,1-.219-.1.535.535,0,0,1-.168-.193,21.02,21.02,0,0,0,.258-4.607q0-.772-.1-2.2T326.785,159l-.167-.335.077-.322q-.334-.772-1.236-3.333a28.056,28.056,0,0,1-1.339-4.261l.361-.283q.256.037.772,1.68t1.011,3.289q.5,1.645.7,1.7l.1-.476-.051-.129a6.63,6.63,0,0,0,.508-1.873q.315-1.64.676-3.115t.695-1.473q.334,0,.334.283a6.44,6.44,0,0,1-.283,1.281q-.284,1-.528,1.821t-.366,1.275q-.123.45-.277,1.133a10.331,10.331,0,0,0-.309,2.406,1.477,1.477,0,0,1,.129.451l-.155.759Z"/>
    <path d="M336.284,154.6l-.231,1.905q0,1.557.347,5.2a15.1,15.1,0,0,0,.708,4.2,2.319,2.319,0,0,0,2.079,1.069,2.515,2.515,0,0,0,2.027-.76,2.578,2.578,0,0,0,.605-.09l.129.142q0,1.262-2.008,1.647a5.818,5.818,0,0,1-1.075.09,2.53,2.53,0,0,1-1.409-.592,3.462,3.462,0,0,1-1.146-1.313,20.19,20.19,0,0,1-.656-4.48q-.322-3.756-.322-6.616a17.848,17.848,0,0,1,.167-3.372,4.338,4.338,0,0,1-.09-.849,2.946,2.946,0,0,1,1.133-2.465,4.388,4.388,0,0,1,2.78-.882,2.134,2.134,0,0,1,.985.283q.534.284.534.7c0,.2-.137.3-.412.3a.609.609,0,0,1-.322-.161.614.614,0,0,0-.341-.161.926.926,0,0,0-.289.052,1.977,1.977,0,0,0-.631-.1,2.828,2.828,0,0,0-.779.135,2.583,2.583,0,0,0-.759.348,1.8,1.8,0,0,0-.515.573,3.936,3.936,0,0,0-.328.688,4.084,4.084,0,0,0-.181.843,17.953,17.953,0,0,0-.077,1.816Z"/>
    <path d="M350.25,157.392l.052,3.14q0,5.934-1.906,7.222a1.787,1.787,0,0,1-1.042.321q-3.09,0-3.089-9.7a35.868,35.868,0,0,1,.514-6.5q.387-2.007,1.172-2.007a.51.51,0,0,1,.341.141,1.293,1.293,0,0,0,.437.238,5.353,5.353,0,0,0,.76.187l.689.129q.526.09,1.016,1.016a11.478,11.478,0,0,1,1.108,5.69Zm-5.162.952.052,2.086a19.65,19.65,0,0,0,.566,4.775,4.792,4.792,0,0,0,.612,1.481,1.131,1.131,0,0,0,.927.63,1.26,1.26,0,0,0,.913-.386,2.679,2.679,0,0,0,.625-1.075,13.158,13.158,0,0,0,.386-1.4,11.581,11.581,0,0,0,.219-1.6q.1-1.417.1-2.524l-.3-6.229-.1-.206.051-.129a3.209,3.209,0,0,0-.643-2,1.915,1.915,0,0,0-1.571-.85h-1.107q-.219,0-.386,2.35t-.219,2.606Z"/>
    <path d="M357.175,167.445q0,.335-.45.334-1.584.168-2.343.167l-.052.052h-.824q-.373,0-.45-.6a3.918,3.918,0,0,0,.064-.8l.1-11.353q0-2.226.026-2.606t.039-.83c.008-.3.017-.58.025-.837l.013-.4c-.009-.069.041-.131.148-.187a.425.425,0,0,1,.341-.025.325.325,0,0,1,.219.289l-.051,9.989v3.745q-.027.876-.026,2.768.683,0,2.665-.129a.6.6,0,0,1,.36.071A.361.361,0,0,1,357.175,167.445Zm1.867-.4,2.664.025a.591.591,0,0,1,.508.135.542.542,0,0,1,.174.393q0,.219-.489.3-.759-.027-2.433-.027l-.051.052c-.2-.018-.412-.025-.644-.025q-.54,0-.618-.618c-.017-.155-.026-.416-.026-.786l.1-11.2q0-2.228.052-2.832l.051-1.866c0-.1.063-.155.187-.155a1.733,1.733,0,0,1,.573.155q0,1.2.064,2.085l-.09,8.006.052,2.253-.077.206.025-.027-.025.206a.821.821,0,0,0,.077.374Z"/>
    <path d="M368.927,167.367l-.875-.089a1.1,1.1,0,0,0-.489.147,1.426,1.426,0,0,1-.676.148q-.393,0-.5-.257l-.438.026c-.378,0-.618-.091-.721-.271a.329.329,0,0,1,.148-.276,1.168,1.168,0,0,0,.2-.174h.759l.1-.1.09-.554-.193-5.767.129-6.152q0-1.788-.129-3.051a2.965,2.965,0,0,0-.785-.077l-.631.052q-.5,0-.5-.451c0-.077.079-.15.238-.219a1.058,1.058,0,0,1,.393-.1q3.669,0,3.669.8a.5.5,0,0,1-.065.206l-.6.052a1.336,1.336,0,0,0-.76-.154l-.128.077a6.877,6.877,0,0,1,.077,1.4l-.077,6.269.18,5.78-.026.811a1.868,1.868,0,0,0,.078.733l-.026.065q0,.256.579.257l.773-.026q.785,0,.785.374a.485.485,0,0,1-.168.38A.6.6,0,0,1,368.927,167.367Z"/>
    <path d="M379.328,151.523l-.052-.658q0-.552.373-.552a.482.482,0,0,1,.418.244.918.918,0,0,1,.162.514v1.764l-.142.219q0,2.059-.283,7.974a39.494,39.494,0,0,1-.554,6.468c-.043.009-.169.041-.379.1a2.029,2.029,0,0,1-.445.083c-.086,0-.163-.058-.231-.173a1.461,1.461,0,0,1-.161-.457,1.532,1.532,0,0,0-.11-.374l.026-.077a13.076,13.076,0,0,0-.688-2.5q-.522-1.41-.676-1.9a19.4,19.4,0,0,1-.708-1.969q-2.368-7.351-2.986-7.943a7.536,7.536,0,0,0-.206,1.854l.051,2.072-.051,1.275q0,.3.1,1.84h-.078a30.184,30.184,0,0,0,.181,4.853v2.369a.933.933,0,0,1,.1.463q0,.618-.49.618-.553,0-.553-1.416l.1-1.724-.167-7.582.167-4.672v-.464a3.473,3.473,0,0,1,.019-.463c.013-.078.026-.17.039-.277a.9.9,0,0,1,.058-.251c.025-.06.056-.129.09-.206a1.025,1.025,0,0,1,.27-.374l.077.09.258-.064a.523.523,0,0,1,.36.412.973.973,0,0,0,.032.148,1.26,1.26,0,0,1,.033.135,35.291,35.291,0,0,0,1.892,5.239q1.442,3.36,1.75,4.319t.554,2.027a12.829,12.829,0,0,0,1.184,3.462l.052-.077A141.717,141.717,0,0,0,379.328,151.523Zm-.554,16.076a.023.023,0,0,1,.026.026Z"/>
    <path d="M385.545,150.776l-.554-.155a.961.961,0,0,0-.72.328,2.083,2.083,0,0,0-.464.818,5.018,5.018,0,0,0-.322,1.493c0,.36.009.618.026.772a4.8,4.8,0,0,0,.1.54c.048.206.08.353.1.439s.067.264.148.534.127.422.135.456l.193.477q.258.464.67,1.165t.617,1.061c.137.241.3.556.477.947a5.986,5.986,0,0,1,.386,1.062,8.746,8.746,0,0,1,.322,2.194,12.335,12.335,0,0,1-.078,1.558,6.189,6.189,0,0,1-.289,1.2,4.721,4.721,0,0,1-.521,1.081,2.24,2.24,0,0,1-1.983,1.082l-.129.065c-.514-.095-.8-.31-.849-.645l.129-.205.952.18a1.375,1.375,0,0,0,1.043-.47,2.986,2.986,0,0,0,.656-1.19,8.968,8.968,0,0,0,.386-2.478,6.912,6.912,0,0,0-.328-2.15,10.53,10.53,0,0,0-.791-1.847l-.927-1.674a8.161,8.161,0,0,1-1.12-3.976,5.163,5.163,0,0,1,.361-1.918q.656-1.686,1.724-1.687a1.23,1.23,0,0,1,.65.226.623.623,0,0,1,.354.508C385.892,150.707,385.776,150.776,385.545,150.776Zm.18-.1v.025h.025A.022.022,0,0,0,385.725,150.673Z"/>
  </g>
  <g>
    <path d="M59.852,134.719q-3.9,0-3.9-3.285V114.889q-1.8-1.239-6.475-2.107a73.938,73.938,0,0,0-8.335-1.116A21.443,21.443,0,0,0,39,118.112q-.837,4.214-1.735,8.489a22.145,22.145,0,0,1-2.386,6.755q-4.959,0-5.577-2.541,1.734-2.479,5.639-25.345t6.414-35.786a179.1,179.1,0,0,1,5.422-21.72q2.913-8.8,5.578-8.8a6.514,6.514,0,0,1,4.089,1.116q0,4.524,2.479,24.477T61.4,90.567q0,5.856,1.332,19.458t1.333,20.418Q64.065,134.718,59.852,134.719ZM54.523,93.293q-1.118-11.247-2.015-21.44t-.9-12.332a23.5,23.5,0,0,1,.063-2.448q-1.984,2.046-5.733,22.743t-4,26.212a34.923,34.923,0,0,0,8.831,1.424,23.581,23.581,0,0,0,5.05-.371Q55.637,104.542,54.523,93.293Z"/>
    <path d="M81.478,59.242,80.3,84.711v3.408l2.355-.062q6.135,0,6.135,3.346a3.212,3.212,0,0,1-1.363,2.7,5.8,5.8,0,0,1-3.564,1.022,15.113,15.113,0,0,1-4.554-.743v35.941q0,5.577-3.285,5.577a7.863,7.863,0,0,1-4.523-1.921q1.053-11.34,1.58-32.254t.9-27.359v-3.1q.495-9.233.5-17.228a3.147,3.147,0,0,1,1.517-2.788,6.1,6.1,0,0,1,3.408-.991q1.89,0,4.06.124,2.23.124,5.391.619,7.188,1.055,7.188,4.4,0,3.594-6.444,3.594a15.2,15.2,0,0,0-6.631-1.239H81.478Z"/>
    <path d="M113.7,132.736l-.248-9.729q0-.062.186-4.338-.5-1.611-2.014-28.629t-1.642-33.029h-.5Q99.2,56.825,99.2,53.232a2.254,2.254,0,0,1,1.364-1.953,5.378,5.378,0,0,1,2.665-.774l17.226,1.177,2.045-.062q3.966,0,3.967,3.036a2.979,2.979,0,0,1-1.3,2.51,4.782,4.782,0,0,1-2.912.961l-5.825-.868-.248,1.3q0,12.021,2.107,36t2.107,36.065a3.378,3.378,0,0,1-1.364,2.633,4.516,4.516,0,0,1-2.974,1.146Z"/>
    <path d="M133.654,70.706l-.681-10.72Q132.973,51,138.3,51a38.334,38.334,0,0,1,9.3,1.58q5.887,1.581,5.887,4.06,0,2.6-3.718,3.966a49.653,49.653,0,0,0-9.6-2.417q.186,2.727.186,5.453l-.558,18.219q0,.124.372,1.982l4.524-.186q6.133,0,6.134,3.47a3.147,3.147,0,0,1-1.115,2.386,4.009,4.009,0,0,1-2.819,1.022,29.9,29.9,0,0,1-3.688-.247h-3.222q.372,4.833.372,9.605l-.558,22.99q0,7.127.248,7.126l9.358-.31q4.832,0,4.833,3.1a2.923,2.923,0,0,1-1.673,2.789,8.1,8.1,0,0,1-3.781.867h-10.72a4.6,4.6,0,0,1-3.036-1.146,3.677,3.677,0,0,1-1.425-2.757V129.2l-.806-21.44Z"/>
    <path d="M166.807,92.271l-.123,13.757q0,16.792,2.416,26.459l-1.425,3.409h-3.532l-1.673-1.859q.123-5.7.124-12.8t-1.085-30.333q-1.086-23.238-1.084-34.7,0-6.009,4.214-6.01a17.784,17.784,0,0,1,11.153,3.47q4.524,3.471,4.524,9.915V72.5a15.944,15.944,0,0,1-1.363,6.661q-1.363,3.007-3.161,6.322t-1.982,3.686q.681,3.1,2.417,12.146,3.717,19.767,8.241,28.443a9.235,9.235,0,0,1,1.3,3.873,3.625,3.625,0,0,1-.776,2.354,2.527,2.527,0,0,1-2.075.961q-2.666,0-5.112-6.1a76.824,76.824,0,0,1-3.936-13.54q-4.523-22.742-5.515-25.035Zm.5-37.367-.434,1.8q0,5.206.248,15.028t.248,14.283q2.975-1.548,4.8-8.087A40.5,40.5,0,0,0,174,67.917a50.347,50.347,0,0,0-.185-5.112A19.84,19.84,0,0,0,173,59.18,5.653,5.653,0,0,0,167.3,54.9Z"/>
    <path d="M222.082,61.1l-.248,16.359,1.115,29.188,1.054,22.8q0,6.2-3.656,6.2a3.262,3.262,0,0,1-3.1-1.983,9.7,9.7,0,0,1-.991-4.4L217.248,109q0-6.568-.867-19.767t-.867-19.768l.185-11.093q0-9.108-1.177-11.836l-6.878.682a4.645,4.645,0,0,1-2.882-.96,2.972,2.972,0,0,1-1.27-2.479q0-1.516,3.036-2.572a33.355,33.355,0,0,1,7.436-1.61,116.766,116.766,0,0,1,12.828-.868,4.389,4.389,0,0,1,2.819,1.022,3.174,3.174,0,0,1,1.271,2.572,2.975,2.975,0,0,1-1.116,2.448,4.208,4.208,0,0,1-2.727.9l-4.523-.248a10,10,0,0,0-1.3.063A132.84,132.84,0,0,1,222.082,61.1Z"/>
    <path d="M244.515,58.374l-.5,31.666a28.687,28.687,0,0,0,6.94.619h4.586a13.826,13.826,0,0,0,.31-4.089q0-3.532-.837-15.523t-.836-18.063A3.024,3.024,0,0,1,255.3,50.6a3.319,3.319,0,0,1,2.106-.961,5.752,5.752,0,0,1,1.612.186,13.747,13.747,0,0,1,1.363.5,11.134,11.134,0,0,0,1.178.433q0,16.485,1.208,48.18t1.209,32.75a2.769,2.769,0,0,1-1.333,2.076,4.766,4.766,0,0,1-2.974,1.022q-1.644,0-2.634-2.417a24.462,24.462,0,0,1-1.333-7.157q-.341-4.74-.464-8.211-.063-1.487,0-3.408,0-2.6.062-5.948.123-5.888.124-6.817v-.5l.185-3.656-.743-1.177v-.124a10.018,10.018,0,0,1-2.293.248l-8.179-1.177V109l.743,20.883a5.621,5.621,0,0,1-.929,3.191,3.013,3.013,0,0,1-2.665,1.4q-2.541,0-3.5-4.617a64.847,64.847,0,0,1-.961-12.611l.372-19.334a54.716,54.716,0,0,0-.185-6.63v-.62q.5-6.63.5-7.435L236.893,54.6a3.777,3.777,0,0,1,1.053-2.634,3.324,3.324,0,0,1,2.54-1.146Q244.515,50.815,244.515,58.374Z"/>
    <path d="M273.391,70.706l-.682-10.72q0-8.985,5.329-8.986a38.327,38.327,0,0,1,9.3,1.58q5.887,1.581,5.888,4.06,0,2.6-3.719,3.966a49.663,49.663,0,0,0-9.6-2.417q.186,2.727.185,5.453l-.558,18.219q0,.124.373,1.982l4.523-.186q6.135,0,6.135,3.47a3.145,3.145,0,0,1-1.116,2.386,4.009,4.009,0,0,1-2.819,1.022,29.874,29.874,0,0,1-3.687-.247h-3.223q.372,4.833.372,9.605l-.558,22.99q0,7.127.248,7.126l9.358-.31q4.833,0,4.833,3.1a2.923,2.923,0,0,1-1.673,2.789,8.094,8.094,0,0,1-3.78.867H277.79a4.6,4.6,0,0,1-3.036-1.146,3.68,3.68,0,0,1-1.425-2.757V129.2l-.806-21.44Z"/>
    <path d="M313.05,133.293q0-3.407,2.85-3.408a10.439,10.439,0,0,1,3.749.961,10.827,10.827,0,0,0,4.029.96q1.7,0,3.686-2.169a15.236,15.236,0,0,0,3.1-5.391,36.429,36.429,0,0,0,2.293-11.867,38.976,38.976,0,0,0-1.859-11.371,73.834,73.834,0,0,0-4.524-11.4q-2.664-5.329-5.392-10.66-6.444-12.7-6.381-23.175-.063-9.915,6.258-15.554a11.469,11.469,0,0,1,7.87-2.975,8.73,8.73,0,0,1,4.461,1.271,7,7,0,0,1,3.037,3.315l-2.169,2.727a8.619,8.619,0,0,1-4.957-1.239,6.183,6.183,0,0,0-4.09,2.23,13.306,13.306,0,0,0-3.16,9.017,40.108,40.108,0,0,0,1.363,10.441,46.942,46.942,0,0,0,3.408,9.109q2.044,4.029,4.4,8.738,2.416,4.708,4.461,9.047a49.871,49.871,0,0,1,4.772,21.688,31.4,31.4,0,0,1-4.152,15.74,16.808,16.808,0,0,1-5.454,5.918,13.613,13.613,0,0,1-7.745,2.324,15.877,15.877,0,0,1-7.219-1.364Q313.05,134.842,313.05,133.293Z"/>
    <path d="M359.03,132.736l-.248-9.729q0-.062.186-4.338-.5-1.611-2.014-28.629t-1.641-33.029h-.5q-10.287-.186-10.287-3.779a2.254,2.254,0,0,1,1.364-1.953,5.378,5.378,0,0,1,2.665-.774l17.226,1.177,2.045-.062q3.966,0,3.967,3.036a2.979,2.979,0,0,1-1.3,2.51,4.782,4.782,0,0,1-2.912.961l-5.825-.868-.248,1.3q0,12.021,2.107,36t2.107,36.065a3.378,3.378,0,0,1-1.364,2.633,4.516,4.516,0,0,1-2.974,1.146Z"/>
    <path d="M376.814,95.988l.125-4.833c0-.412-.062-.62-.186-.62V88.243q0-19.952,2.293-28.381,1.918-7.125,3.718-8.8a5.272,5.272,0,0,1,3.532-1.674q14.747,0,20.325,14.873,3.222,8.55,3.223,21.068v.93l.247,14.376q0,36.5-16.917,36.5-7,0-10.72-7.746a45.966,45.966,0,0,1-4.338-14.624A160.491,160.491,0,0,1,376.814,95.988Zm7.5-17.35-.62,11.712a152.765,152.765,0,0,0,2.974,32.1q3.161,7.993,6.012,9.419a5.749,5.749,0,0,0,4.151-1.859,12.879,12.879,0,0,0,2.943-4.988,55.893,55.893,0,0,0,1.829-6.6,72.434,72.434,0,0,0,1.053-7.312q.618-6.753.619-11.526t-.835-14.625q-.837-9.852-.837-14.685V68.041a13.447,13.447,0,0,0-3.037-8.272,9.125,9.125,0,0,0-7.436-3.625q-4.338,0-5.763,4.9a37.047,37.047,0,0,0-1.177,10.1Z"/>
    <path d="M424.281,92.271l-.123,13.757q0,16.792,2.416,26.459l-1.425,3.409h-3.532l-1.673-1.859q.123-5.7.124-12.8t-1.085-30.333q-1.084-23.238-1.084-34.7,0-6.009,4.214-6.01a17.786,17.786,0,0,1,11.154,3.47q4.522,3.471,4.524,9.915V72.5a15.944,15.944,0,0,1-1.363,6.661q-1.363,3.007-3.161,6.322t-1.983,3.686q.681,3.1,2.417,12.146,3.718,19.767,8.241,28.443a9.22,9.22,0,0,1,1.3,3.873,3.63,3.63,0,0,1-.775,2.354,2.528,2.528,0,0,1-2.075.961q-2.667,0-5.113-6.1a76.825,76.825,0,0,1-3.935-13.54q-4.524-22.742-5.515-25.035Zm.5-37.367-.433,1.8q0,5.206.248,15.028t.248,14.283q2.973-1.548,4.8-8.087a40.549,40.549,0,0,0,1.828-10.008,50.277,50.277,0,0,0-.186-5.112,19.831,19.831,0,0,0-.805-3.625A5.654,5.654,0,0,0,424.777,54.9Z"/>
    <path d="M496.288,133.479l.062-16.236q0-5.637-.93-16.545t-.929-14.686q0-3.78.247-9.017t.248-7.839q-.558,1.675-4.275,17.538-9.668,41.022-13.819,41.022a5.047,5.047,0,0,1-3.873-1.487,5.566,5.566,0,0,1-1.394-3.966q0-6.011-4.741-24.756t-8.025-28.722q-2.416,44.741-2.417,60.481l.187,3.779a4.917,4.917,0,0,1-.868,3.13,3.288,3.288,0,0,1-2.727,1.084,4.87,4.87,0,0,1-3.036-.9,2.636,2.636,0,0,1-1.178-2.138q0-12.951,1.953-38.792t1.952-38.791a4.829,4.829,0,0,1-.744-2.634,2.362,2.362,0,0,1,1.549-2.2,7.627,7.627,0,0,1,3.346-.743q2.726,0,10.783,25.5t9.914,35.291q.558-1.86,2.325-9.389t3.749-15.646q1.982-8.181,4.337-16.484,5.329-19.085,9.047-19.086a5.858,5.858,0,0,1,3.16.93,2.861,2.861,0,0,1,1.488,2.54q0,9.172.805,27.39t.806,26.461l-.309,13.384v.062q0,1.426.743,9.048l.248,2.478a7.528,7.528,0,0,1,.557,2.882,5.884,5.884,0,0,1-1.176,3.253,3.6,3.6,0,0,1-3.1,1.735Q496.286,141.411,496.288,133.479Z"/>
  </g>
  <path class="cls-2" d="M884.775,153.993c-28.592-2.4-58.979.141-50.157,4.26s46.92.783,42.82,4.9-29.563,2.124-21.978,4.837,7.095,5.684,7.095,5.684"/>
  <text class="cls-3" transform="translate(1080.464 129.265) rotate(-90)">383928AJSDK</text>
</svg>
