<svg id="Logos" xmlns="http://www.w3.org/2000/svg" viewBox="0 0 1100 200">
  <defs>
    <style>
      .cls-1, .cls-2, .cls-3 {
        fill: none;
        stroke: #000;
        stroke-linecap: round;
        stroke-linejoin: round;
      }

      .cls-1 {
        stroke-width: 4px;
      }

      .cls-2 {
        stroke-width: 2px;
      }

      .cls-3 {
        stroke-width: 3px;
      }

      .cls-4, .cls-5 {
        font-size: 9.128px;
      }

      .cls-4 {
        font-family: PoplarStd, Poplar Std;
      }

      .cls-5 {
        font-family: TYPOGRAPHPRO-ExtraBold, TYPOGRAPH PRO;
        font-weight: 700;
      }
    </style>
  </defs>
  <title>white</title>
  <g>
    <g>
      <polygon class="cls-1" points="51.166 53.01 30.821 80.891 94.117 161.518 155.906 80.891 128.779 50.75 51.166 53.01"/>
      <line class="cls-1" x1="30.821" y1="80.891" x2="155.906" y2="80.891"/>
      <polyline class="cls-1" points="128.779 50.75 106.927 80.891 82.369 52.101 64.729 80.891 51.166 53.01"/>
      <polyline class="cls-1" points="64.729 80.891 94.117 161.518 106.927 80.891"/>
    </g>
    <g>
      <polygon class="cls-1" points="204.281 100 191.92 111.166 213.876 155.499 251.017 123.498 241.172 106.584 204.281 100"/>
      <line class="cls-1" x1="191.92" y1="111.166" x2="251.017" y2="123.498"/>
      <polyline class="cls-1" points="241.172 106.584 227.877 118.669 219.113 102.647 207.941 114.509 204.281 100"/>
      <polyline class="cls-1" points="207.941 114.509 213.876 155.499 227.877 118.669"/>
    </g>
    <g>
      <polygon class="cls-2" points="239.225 43.333 235.563 54.985 265.919 74.844 277.499 40.812 264.989 33.781 239.225 43.333"/>
      <line class="cls-2" x1="235.563" y1="54.985" x2="277.499" y2="40.812"/>
      <polyline class="cls-2" points="264.989 33.781 261.078 46.362 249.583 39.492 246.931 51.143 239.225 43.333"/>
      <polyline class="cls-2" points="246.931 51.143 265.919 74.844 261.078 46.362"/>
    </g>
    <g>
      <polygon class="cls-3" points="304.647 71.382 294.479 87.342 331.905 129.271 362.926 83.014 347.039 67.459 304.647 71.382"/>
      <line class="cls-3" x1="294.479" y1="87.342" x2="362.926" y2="83.014"/>
      <polyline class="cls-3" points="347.039 67.459 336.124 84.709 321.69 69.805 313.034 86.169 304.647 71.382"/>
      <polyline class="cls-3" points="313.034 86.169 331.905 129.271 336.124 84.709"/>
    </g>
    <path class="cls-2" d="M150.139,47.9c35.154-2.424,64.541-1.537,64.541-1.537"/>
    <path class="cls-2" d="M155.906,60.6c22.6-.058,65.563-5.618,65.563-5.618"/>
    <path class="cls-2" d="M170.223,71.1c43.7-3.768,70.949-5.275,70.949-5.275"/>
    <line class="cls-2" x1="162.556" y1="91.44" x2="277.499" y2="87.342"/>
    <line class="cls-2" x1="205.697" y1="74.844" x2="241.172" y2="76.814"/>
    <line class="cls-2" x1="116.365" y1="149.884" x2="195.518" y2="161.113"/>
    <line class="cls-2" x1="128.779" y1="141.172" x2="195.914" y2="141.172"/>
    <line class="cls-2" x1="138.575" y1="123.498" x2="176.251" y2="114.509"/>
    <line class="cls-2" x1="150.139" y1="129.271" x2="176.251" y2="129.271"/>
    <line class="cls-2" x1="162.346" y1="106.134" x2="176.251" y2="103.496"/>
    <line class="cls-2" x1="290.782" y1="65.82" x2="361.136" y2="57.794"/>
    <line class="cls-2" x1="282.497" y1="57.794" x2="313.034" y2="47.899"/>
    <line class="cls-2" x1="256.531" y1="106.134" x2="286.265" y2="104.815"/>
    <line class="cls-2" x1="261.61" y1="121.204" x2="304.647" y2="117.332"/>
    <line class="cls-2" x1="246.931" y1="135.004" x2="372.92" y2="141.172"/>
    <line class="cls-2" x1="277.499" y1="127.749" x2="297.766" y2="127.749"/>
  </g>
  <path class="cls-3" d="M20.146,22.869c-6.166,15.388,1.513,150.705,0,157.487s10.519,5.274,18.82,4.521,1028.752-.882,1033.936.689,13.8-2.2,11.377-11.992-3.178-145.43-6.946-150.705S23.166,15.334,20.146,22.869Z"/>
  <g>
    <g>
      <path d="M435.47,70.968c0,.576.144,1.009.432,1.009s.576-.289.865-1.009l4.655-20.89h-2.987a1.836,1.836,0,0,0-1.585,1.3l-1.38,6.194Z"/>
      <path d="M463.609,152.5H443.248c-.576,0-1.008-.432-1.152-1.153l-5.474-28.664c-.144-.72-.432-1.009-.72-1.009s-.432.433-.432,1.153v27.8a1.482,1.482,0,0,1-.049.357l1.141,5.977c.144.72.577,1.152,1.153,1.152h26.5c.864,0,1.152-.576.864-1.441Z"/>
      <path d="M409.542,152.5a2.078,2.078,0,0,1-1.728-2.161V50.078h-4.237a1.421,1.421,0,0,0-1.3,1.44V155.95a2.078,2.078,0,0,0,1.729,2.16h24.055a2.012,2.012,0,0,0,1.872-1.873V152.5Z"/>
    </g>
    <g>
      <path d="M509.5,112.6l-1.872-13.828c-.288-2.016-.576-3.312-1.009-3.312s-.72,1.007-1.008,3.312l-1.872,13.685c-.144.719.144,1.44.864,1.44C509.215,113.893,509.647,113.893,509.5,112.6Z"/>
      <path d="M535.911,152.5h-19.35a1.866,1.866,0,0,1-1.872-1.441l-2.881-21.606a1.4,1.4,0,0,0-1.44-1.153h-7.779a1.541,1.541,0,0,0-1.3,1.441l-.539,4.173h4.08a1.4,1.4,0,0,1,1.44,1.152l2.881,21.606a1.865,1.865,0,0,0,1.873,1.441h23.335c1.584,0,2.3-1.584,2.016-3.169Z"/>
      <path d="M472.916,152.5c-1.3,0-2.016-1.008-1.728-2.45l18.58-99.969h-3.084c-.864,0-1.584,1.008-1.728,1.728l-19.3,103.855c-.288,1.441.432,2.449,1.729,2.449H491.15a1.964,1.964,0,0,0,1.872-1.584l.521-4.029Z"/>
    </g>
    <g>
      <path d="M581.519,78.6c.289,1.152.721,1.729,1.009,1.729.432,0,.864-.577.864-1.872V50.078h-3.805a1.786,1.786,0,0,0-1.729,1.872V64.873Z"/>
      <path d="M546.373,152.5c-.864,0-1.44-.865-1.44-2.017V50.078h-3.95A1.77,1.77,0,0,0,539.4,51.95V156.093c0,1.153.576,2.017,1.44,2.017h21.895a1.906,1.906,0,0,0,1.872-1.873V152.5Z"/>
      <path d="M580.079,152.5a1.807,1.807,0,0,1-1.584-1.441l-6.338-25.928c-.288-1.44-.865-2.016-1.3-2.016s-.72.576-.72,2.016v20l2.821,11.539a1.806,1.806,0,0,0,1.584,1.441h26.936a1.677,1.677,0,0,0,1.585-1.873V152.5Z"/>
    </g>
    <g>
      <path d="M647.055,75.721a1.518,1.518,0,0,0,.72,1.153c.288,0,.72-.432.72-1.153l5.782-25.643h-2.961c-.864,0-1.441.864-1.729,1.872l-3.966,17.589Z"/>
      <path d="M632.794,152.5c-.864,0-1.584-1.008-1.728-1.729V114.181a21.016,21.016,0,0,0-1.3-7.057L612.8,50.078h-6a.9.9,0,0,0-.865,1.152l18.294,61.507a21.036,21.036,0,0,1,1.3,7.057v36.587c.144.721.864,1.729,1.729,1.729h28.088a2.039,2.039,0,0,0,2.017-1.873V152.5Z"/>
    </g>
    <g>
      <path d="M721.6,116.337V112.02h-7.286a1.028,1.028,0,0,0-1.008,1.152v4.461h7.142A1.27,1.27,0,0,0,721.6,116.337Z"/>
      <path d="M734.856,77.59V73.417H714.75a.984.984,0,0,0-1.008,1.008V79.03h19.53A1.48,1.48,0,0,0,734.856,77.59Z"/>
      <path d="M687.526,152.5a1.771,1.771,0,0,1-1.584-1.873V50.078h-3.661a2.012,2.012,0,0,0-1.873,1.872V156.237a1.771,1.771,0,0,0,1.585,1.873H733.56a1.6,1.6,0,0,0,1.584-1.584V152.5Z"/>
    </g>
    <g>
      <path d="M787.775,80.475c.144,1.584.576,2.736,1.152,2.736s1.152-1.152,1.3-2.736l3.078-30.4h-3.427c-1.008,0-1.44.72-1.728,1.872l-1.576,15.56Z"/>
      <path d="M815.575,80.475c.144,1.584.576,2.736,1.152,2.736s1.153-1.152,1.3-2.736l2.554-30.4h-3.623c-.864,0-1.44.72-1.584,1.728L814.1,66.922Z"/>
      <path d="M773.8,152.5a2.151,2.151,0,0,1-2.017-1.873L758.454,50.078h-4.445a1.486,1.486,0,0,0-1.585,1.872l13.828,104.287a2.151,2.151,0,0,0,2.017,1.873h21.318c.865,0,1.3-.721,1.585-1.729l.566-3.884Z"/>
      <path d="M811.254,152.5a1.843,1.843,0,0,1-1.729-1.584l-5.473-34.86c-.144-1.3-.577-2.3-1.153-2.3s-1.008,1.152-1.152,2.449l-1.968,13.5,4.213,26.831a1.842,1.842,0,0,0,1.728,1.584h21.03c.865,0,1.729-.721,1.873-2.16l.445-3.453Z"/>
    </g>
    <g>
      <path d="M899.342,77.59V73.417H879.236a.984.984,0,0,0-1.008,1.008V79.03h19.53A1.48,1.48,0,0,0,899.342,77.59Z"/>
      <path d="M886.09,116.337V112.02H878.8a1.028,1.028,0,0,0-1.008,1.152v4.461h7.142A1.27,1.27,0,0,0,886.09,116.337Z"/>
      <path d="M852.012,152.5a1.771,1.771,0,0,1-1.584-1.873V50.078h-3.661a2.012,2.012,0,0,0-1.873,1.872V156.237a1.771,1.771,0,0,0,1.584,1.873h51.568a1.6,1.6,0,0,0,1.584-1.584V152.5Z"/>
    </g>
    <g>
      <path d="M947.077,77.739q-1.3-5.186-4.321-5.186c-1.441,0-2.161,1.153-2.161,2.592,0,2.948,2.778,6.134,7.036,9.592l17.679-.809a1.7,1.7,0,0,0,1.729-1.873c0-1.2-.065-2.384-.18-3.558l-18.053.826C947.941,79.323,947.365,78.891,947.077,77.739Z"/>
      <path d="M942.036,152.928c-20.612,0-30.752-14.043-31.871-34.917l-3.912.2a1.531,1.531,0,0,0-1.729,1.441c0,23.047,10.083,38.891,31.978,38.891a28.162,28.162,0,0,0,23.269-11.381A28.62,28.62,0,0,1,942.036,152.928Z"/>
      <path d="M919.937,108.847q2,1.614,3.892,3.139l7.835-.4c1.009,0,1.585.577,1.729,1.873.576,5.762,3.025,11.956,6.482,11.956,2.017,0,3.313-1.3,3.313-4.61,0-3.457-8.067-9.8-17.717-17.573s-14.4-18.581-14.4-28.376a32.02,32.02,0,0,1,6.421-19.043,31.579,31.579,0,0,0-11.954,24.656C905.533,90.266,910.286,101.069,919.937,108.847Z"/>
    </g>
    <g>
      <path d="M1025.143,73.561c-1.008,0-1.728.721-1.728,2.017v3.6h10.6a1.969,1.969,0,0,0,2.017-2.016v-3.6Z"/>
      <path d="M996.911,152.5a2.061,2.061,0,0,1-2.017-2.017V75.29a1.786,1.786,0,0,0-1.872-1.729h-14.4a2.3,2.3,0,0,1-1.873-2.017V50.078h-4.237c-.865,0-1.3.576-1.3,1.44v25.64a2.3,2.3,0,0,0,1.873,2.016h14.4a1.787,1.787,0,0,1,1.873,1.729v75.19a2.06,2.06,0,0,0,2.016,2.017h24.488a1.94,1.94,0,0,0,2.016-1.873V152.5Z"/>
    </g>
  </g>
  <text class="cls-4" transform="translate(1064.327 171.711) rotate(-90)">38742987983</text>
  <text class="cls-5" transform="translate(1073.052 171.711) rotate(-90)">38742987983</text>
</svg>
