<svg id="Logos" xmlns="http://www.w3.org/2000/svg" width="1100" height="200" viewBox="0 0 1100 200">
  <defs>
    <style>
      .cls-1, .cls-2, .cls-3 {
        fill: none;
        stroke: #000;
        stroke-linecap: round;
        stroke-linejoin: round;
      }

      .cls-1 {
        stroke-width: 4px;
      }

      .cls-2 {
        stroke-width: 2px;
      }

      .cls-3 {
        stroke-width: 3px;
      }
    </style>
  </defs>
  <title>white</title>
  <g>
    <g>
      <polygon class="cls-1" points="51.166 53.01 30.821 80.891 94.117 161.518 155.906 80.891 128.779 50.75 51.166 53.01"/>
      <line class="cls-1" x1="30.821" y1="80.891" x2="155.906" y2="80.891"/>
      <polyline class="cls-1" points="128.779 50.75 106.927 80.891 82.369 52.101 64.729 80.891 51.166 53.01"/>
      <polyline class="cls-1" points="64.729 80.891 94.117 161.518 106.927 80.891"/>
    </g>
    <g>
      <polygon class="cls-1" points="202.28 96.998 189.919 108.164 211.874 152.496 249.015 120.496 239.171 103.581 202.28 96.998"/>
      <line class="cls-1" x1="189.919" y1="108.164" x2="249.015" y2="120.496"/>
      <polyline class="cls-1" points="239.171 103.581 225.875 115.667 217.111 99.644 205.939 111.507 202.28 96.998"/>
      <polyline class="cls-1" points="205.939 111.507 211.874 152.496 225.875 115.667"/>
    </g>
    <g>
      <polygon class="cls-2" points="239.225 43.333 235.563 54.985 265.919 74.844 277.499 40.812 264.989 33.781 239.225 43.333"/>
      <line class="cls-2" x1="235.563" y1="54.985" x2="277.499" y2="40.812"/>
      <polyline class="cls-2" points="264.989 33.781 261.078 46.362 249.583 39.492 246.931 51.143 239.225 43.333"/>
      <polyline class="cls-2" points="246.931 51.143 265.919 74.844 261.078 46.362"/>
    </g>
    <g>
      <polygon class="cls-3" points="304.647 71.382 294.479 87.342 331.905 129.271 362.926 83.014 347.039 67.459 304.647 71.382"/>
      <line class="cls-3" x1="294.479" y1="87.342" x2="362.926" y2="83.014"/>
      <polyline class="cls-3" points="347.039 67.459 336.124 84.709 321.69 69.805 313.034 86.169 304.647 71.382"/>
      <polyline class="cls-3" points="313.034 86.169 331.905 129.271 336.124 84.709"/>
    </g>
    <path class="cls-2" d="M150.139,47.9c35.154-2.424,64.541-1.537,64.541-1.537"/>
    <path class="cls-2" d="M155.906,60.6c22.6-.058,65.563-5.618,65.563-5.618"/>
    <path class="cls-2" d="M170.223,71.1c43.7-3.768,70.949-5.275,70.949-5.275"/>
    <line class="cls-2" x1="162.556" y1="91.44" x2="277.499" y2="87.342"/>
    <line class="cls-2" x1="205.697" y1="74.844" x2="241.172" y2="76.814"/>
    <line class="cls-2" x1="116.365" y1="149.884" x2="195.518" y2="161.113"/>
    <line class="cls-2" x1="128.779" y1="141.172" x2="195.914" y2="141.172"/>
    <line class="cls-2" x1="138.575" y1="123.498" x2="176.251" y2="114.509"/>
    <line class="cls-2" x1="150.139" y1="129.271" x2="176.251" y2="129.271"/>
    <line class="cls-2" x1="162.346" y1="106.134" x2="176.251" y2="103.496"/>
    <line class="cls-2" x1="290.782" y1="65.82" x2="361.136" y2="57.794"/>
    <line class="cls-2" x1="282.497" y1="57.794" x2="313.034" y2="47.899"/>
    <line class="cls-2" x1="256.531" y1="106.134" x2="286.265" y2="104.815"/>
    <line class="cls-2" x1="261.61" y1="121.204" x2="304.647" y2="117.332"/>
    <line class="cls-2" x1="246.931" y1="135.004" x2="372.92" y2="141.172"/>
    <line class="cls-2" x1="277.499" y1="127.749" x2="297.766" y2="127.749"/>
  </g>
  <path class="cls-3" d="M20.146,22.869c-6.166,15.388,1.513,150.705,0,157.487s10.519,5.274,18.82,4.521,1028.752-.882,1033.936.689,13.8-2.2,11.377-11.992-3.178-145.43-6.946-150.705S23.166,15.334,20.146,22.869Z"/>
  <g>
    <g>
      <path d="M435.47,70.968c0,.576.144,1.009.432,1.009s.576-.289.865-1.009l4.655-20.89h-2.987a1.836,1.836,0,0,0-1.585,1.3l-1.38,6.194Z"/>
      <path d="M463.609,152.5H443.248c-.576,0-1.008-.432-1.152-1.153l-5.474-28.664c-.144-.72-.432-1.009-.72-1.009s-.432.433-.432,1.153v27.8a1.482,1.482,0,0,1-.049.357l1.141,5.977c.144.72.577,1.152,1.153,1.152h26.5c.864,0,1.152-.576.864-1.441Z"/>
      <path d="M409.542,152.5a2.078,2.078,0,0,1-1.728-2.161V50.078h-4.237a1.421,1.421,0,0,0-1.3,1.44V155.95a2.078,2.078,0,0,0,1.729,2.16h24.055a2.012,2.012,0,0,0,1.872-1.873V152.5Z"/>
    </g>
    <g>
      <path d="M509.5,112.6l-1.872-13.828c-.288-2.016-.576-3.312-1.009-3.312s-.72,1.007-1.008,3.312l-1.872,13.685c-.144.719.144,1.44.864,1.44C509.215,113.893,509.647,113.893,509.5,112.6Z"/>
      <path d="M535.911,152.5h-19.35a1.866,1.866,0,0,1-1.872-1.441l-2.881-21.606a1.4,1.4,0,0,0-1.44-1.153h-7.779a1.541,1.541,0,0,0-1.3,1.441l-.539,4.173h4.08a1.4,1.4,0,0,1,1.44,1.152l2.881,21.606a1.865,1.865,0,0,0,1.873,1.441h23.335c1.584,0,2.3-1.584,2.016-3.169Z"/>
      <path d="M472.916,152.5c-1.3,0-2.016-1.008-1.728-2.45l18.58-99.969h-3.084c-.864,0-1.584,1.008-1.728,1.728l-19.3,103.855c-.288,1.441.432,2.449,1.729,2.449H491.15a1.964,1.964,0,0,0,1.872-1.584l.521-4.029Z"/>
    </g>
    <g>
      <path d="M581.519,78.6c.289,1.152.721,1.729,1.009,1.729.432,0,.864-.577.864-1.872V50.078h-3.805a1.786,1.786,0,0,0-1.729,1.872V64.873Z"/>
      <path d="M546.373,152.5c-.864,0-1.44-.865-1.44-2.017V50.078h-3.95A1.77,1.77,0,0,0,539.4,51.95V156.093c0,1.153.576,2.017,1.44,2.017h21.895a1.906,1.906,0,0,0,1.872-1.873V152.5Z"/>
      <path d="M580.079,152.5a1.807,1.807,0,0,1-1.584-1.441l-6.338-25.928c-.288-1.44-.865-2.016-1.3-2.016s-.72.576-.72,2.016v20l2.821,11.539a1.806,1.806,0,0,0,1.584,1.441h26.936a1.677,1.677,0,0,0,1.585-1.873V152.5Z"/>
    </g>
    <g>
      <path d="M647.055,75.721a1.518,1.518,0,0,0,.72,1.153c.288,0,.72-.432.72-1.153l5.782-25.643h-2.961c-.864,0-1.441.864-1.729,1.872l-3.966,17.589Z"/>
      <path d="M632.794,152.5c-.864,0-1.584-1.008-1.728-1.729V114.181a21.016,21.016,0,0,0-1.3-7.057L612.8,50.078h-6a.9.9,0,0,0-.865,1.152l18.294,61.507a21.036,21.036,0,0,1,1.3,7.057v36.587c.144.721.864,1.729,1.729,1.729h28.088a2.039,2.039,0,0,0,2.017-1.873V152.5Z"/>
    </g>
    <g>
      <path d="M721.6,116.337V112.02h-7.286a1.028,1.028,0,0,0-1.008,1.152v4.461h7.142A1.27,1.27,0,0,0,721.6,116.337Z"/>
      <path d="M734.856,77.59V73.417H714.75a.984.984,0,0,0-1.008,1.008V79.03h19.53A1.48,1.48,0,0,0,734.856,77.59Z"/>
      <path d="M687.526,152.5a1.771,1.771,0,0,1-1.584-1.873V50.078h-3.661a2.012,2.012,0,0,0-1.873,1.872V156.237a1.771,1.771,0,0,0,1.585,1.873H733.56a1.6,1.6,0,0,0,1.584-1.584V152.5Z"/>
    </g>
    <g>
      <path d="M787.775,80.475c.144,1.584.576,2.736,1.152,2.736s1.152-1.152,1.3-2.736l3.078-30.4h-3.427c-1.008,0-1.44.72-1.728,1.872l-1.576,15.56Z"/>
      <path d="M815.575,80.475c.144,1.584.576,2.736,1.152,2.736s1.153-1.152,1.3-2.736l2.554-30.4h-3.623c-.864,0-1.44.72-1.584,1.728L814.1,66.922Z"/>
      <path d="M773.8,152.5a2.151,2.151,0,0,1-2.017-1.873L758.454,50.078h-4.445a1.486,1.486,0,0,0-1.585,1.872l13.828,104.287a2.151,2.151,0,0,0,2.017,1.873h21.318c.865,0,1.3-.721,1.585-1.729l.566-3.884Z"/>
      <path d="M811.254,152.5a1.843,1.843,0,0,1-1.729-1.584l-5.473-34.86c-.144-1.3-.577-2.3-1.153-2.3s-1.008,1.152-1.152,2.449l-1.968,13.5,4.213,26.831a1.842,1.842,0,0,0,1.728,1.584h21.03c.865,0,1.729-.721,1.873-2.16l.445-3.453Z"/>
    </g>
    <g>
      <path d="M899.342,77.59V73.417H879.236a.984.984,0,0,0-1.008,1.008V79.03h19.53A1.48,1.48,0,0,0,899.342,77.59Z"/>
      <path d="M886.09,116.337V112.02H878.8a1.028,1.028,0,0,0-1.008,1.152v4.461h7.142A1.27,1.27,0,0,0,886.09,116.337Z"/>
      <path d="M852.012,152.5a1.771,1.771,0,0,1-1.584-1.873V50.078h-3.661a2.012,2.012,0,0,0-1.873,1.872V156.237a1.771,1.771,0,0,0,1.584,1.873h51.568a1.6,1.6,0,0,0,1.584-1.584V152.5Z"/>
    </g>
    <g>
      <path d="M947.077,77.739q-1.3-5.186-4.321-5.186c-1.441,0-2.161,1.153-2.161,2.592,0,2.948,2.778,6.134,7.036,9.592l17.679-.809a1.7,1.7,0,0,0,1.729-1.873c0-1.2-.065-2.384-.18-3.558l-18.053.826C947.941,79.323,947.365,78.891,947.077,77.739Z"/>
      <path d="M942.036,152.928c-20.612,0-30.752-14.043-31.871-34.917l-3.912.2a1.531,1.531,0,0,0-1.729,1.441c0,23.047,10.083,38.891,31.978,38.891a28.162,28.162,0,0,0,23.269-11.381A28.62,28.62,0,0,1,942.036,152.928Z"/>
      <path d="M919.937,108.847q2,1.614,3.892,3.139l7.835-.4c1.009,0,1.585.577,1.729,1.873.576,5.762,3.025,11.956,6.482,11.956,2.017,0,3.313-1.3,3.313-4.61,0-3.457-8.067-9.8-17.717-17.573s-14.4-18.581-14.4-28.376a32.02,32.02,0,0,1,6.421-19.043,31.579,31.579,0,0,0-11.954,24.656C905.533,90.266,910.286,101.069,919.937,108.847Z"/>
    </g>
    <g>
      <path d="M1025.143,73.561c-1.008,0-1.728.721-1.728,2.017v3.6h10.6a1.969,1.969,0,0,0,2.017-2.016v-3.6Z"/>
      <path d="M996.911,152.5a2.061,2.061,0,0,1-2.017-2.017V75.29a1.786,1.786,0,0,0-1.872-1.729h-14.4a2.3,2.3,0,0,1-1.873-2.017V50.078h-4.237c-.865,0-1.3.576-1.3,1.44v25.64a2.3,2.3,0,0,0,1.873,2.016h14.4a1.787,1.787,0,0,1,1.873,1.729v75.19a2.06,2.06,0,0,0,2.016,2.017h24.488a1.94,1.94,0,0,0,2.016-1.873V152.5Z"/>
    </g>
  </g>
  <g>
    <path d="M1060.284,170.342c-.137,0-.137-.045-.137-.446,0-.22-.118-.366-.264-.366-.529,0-.584,0-.584.146s.046.146.457.146a.094.094,0,0,1,.091.1l-.064,1.515c0,.054-.027.072-.073.072-.676,0-2.136,0-2.136-1.834a1.7,1.7,0,0,1,1.771-1.843,1.585,1.585,0,0,1,1.424.767c.036.054.054.1.072.1s.037-.046.064-.119a1.459,1.459,0,0,1,1.387-.821,1.915,1.915,0,1,1,.019,3.823c-.393,0-.448,0-.448-.055l-.063-1.642c0-.045.027-.064.072-.064.529,0,.584,0,.584-.146,0-.072-.063-.146-.183-.146-.666,0-.811,0-.811.366,0,.4,0,.446-.1.446Z"/>
    <path d="M1059.354,163.743a1.55,1.55,0,0,1,1.423.767c.028.063.055.1.074.1s.045-.046.073-.119a1.515,1.515,0,0,1,1.423-.83,1.917,1.917,0,1,1,0,3.832,1.485,1.485,0,0,1-1.423-.739c-.056-.1-.083-.127-.092-.127s-.036.027-.082.118a1.484,1.484,0,0,1-1.451.675,1.678,1.678,0,0,1-1.725-1.834A1.708,1.708,0,0,1,1059.354,163.743Zm.127,1.689a.169.169,0,0,0-.172.154.157.157,0,0,0,.172.146h.567c.072,0,.109-.054.109-.146s-.037-.154-.109-.154Zm2.164,0a.171.171,0,0,0-.174.154.158.158,0,0,0,.174.146h.611a.153.153,0,1,0,0-.3Z"/>
    <path d="M1057.629,163.441c-.036,0-.055-.027-.055-.064V160.5c0-.082.028-.137.065-.137h1.742a.356.356,0,0,1,.174.045,10.028,10.028,0,0,0,4.7.859.078.078,0,0,1,.073.072v1.907c0,.055-.037.092-.109.092-.447,0-3.514-.411-4.7-1.241a.28.28,0,0,0-.1-.046c-.027,0-.027.046-.027.082v1.251c0,.027-.019.054-.065.054Z"/>
    <path d="M1063.059,158.467a.043.043,0,0,0-.046.046v1.642a.069.069,0,0,1-.064.064h-1.46a.348.348,0,0,1-.109-.028l-3.733-2.034a.136.136,0,0,1-.073-.1v-1.351a.079.079,0,0,1,.073-.073h3.641c.073,0,.147-.036.147-.164,0-.147.017-.265.1-.265h1.4c.065,0,.074.118.074.219s.054.21.119.21h1.131a.065.065,0,0,1,.064.073v1.7a.068.068,0,0,1-.064.064Zm-1.67.411c.046.018.046-.019.046-.357a.051.051,0,0,0-.046-.054h-.63c-.036,0-.055.018-.055.037s.019.036.055.055Z"/>
    <path d="M1062.438,152.452a.075.075,0,0,1,.083-.072h1.733c.046,0,.073.027.073.091v3.467c0,.037-.027.083-.064.083h-1.825a.54.54,0,0,1-.274-.092c-1.04-.675-1.7-1.9-2.464-1.9-.127,0-.209.036-.209.128,0,.128.265.237.538.237a.073.073,0,0,1,.074.073l-.065,1.415c-.009.109-.046.109-.41.109a1.848,1.848,0,0,1-2.054-1.8,1.9,1.9,0,0,1,2.027-1.88c1.368,0,1.979.758,2.737,1.844a.114.114,0,0,0,.063.036c.028,0,.037-.018.037-.054Z"/>
    <path d="M1062.019,148.217a2.06,2.06,0,0,1,2.308,1.907,1.907,1.907,0,0,1-2.1,1.98.075.075,0,0,1-.083-.064l-.064-1.579a.08.08,0,0,1,.082-.072l.447-.028a.12.12,0,0,0,.119-.119c0-.091-.054-.145-.173-.145h-1.524c-.073,0-.119.027-.119.054s.019.055.073.11a.866.866,0,0,1,.284.675c0,.675-.612,1.2-1.708,1.2a1.921,1.921,0,0,1-1.989-1.908c0-1.4,1.187-2.016,2.619-2.016Zm-2.145,2.162c.118,0,.183-.055.183-.146s-.065-.136-.183-.136h-.319a.141.141,0,0,0-.009.282Z"/>
    <path d="M1059.354,144.21a1.55,1.55,0,0,1,1.423.767c.028.063.055.1.074.1s.045-.046.073-.119a1.515,1.515,0,0,1,1.423-.83,1.917,1.917,0,1,1,0,3.832,1.485,1.485,0,0,1-1.423-.739c-.056-.1-.083-.127-.092-.127s-.036.027-.082.118a1.484,1.484,0,0,1-1.451.675,1.678,1.678,0,0,1-1.725-1.834A1.708,1.708,0,0,1,1059.354,144.21Zm.127,1.688a.169.169,0,0,0-.172.155.157.157,0,0,0,.172.146h.567c.072,0,.109-.054.109-.146s-.037-.155-.109-.155Zm2.164,0a.171.171,0,0,0-.174.155.158.158,0,0,0,.174.146h.611a.153.153,0,1,0,0-.3Z"/>
    <path d="M1057.629,143.907c-.036,0-.055-.027-.055-.064v-2.874c0-.082.028-.137.065-.137h1.742a.356.356,0,0,1,.174.045,10.044,10.044,0,0,0,4.7.858.079.079,0,0,1,.073.074v1.906c0,.055-.037.092-.109.092-.447,0-3.514-.411-4.7-1.242a.291.291,0,0,0-.1-.045c-.027,0-.027.045-.027.082v1.25c0,.028-.019.055-.065.055Z"/>
    <path d="M1062.019,136.716a2.06,2.06,0,0,1,2.308,1.907,1.907,1.907,0,0,1-2.1,1.98.075.075,0,0,1-.083-.064l-.064-1.579a.08.08,0,0,1,.082-.072l.447-.028a.12.12,0,0,0,.119-.119c0-.091-.054-.145-.173-.145h-1.524c-.073,0-.119.027-.119.054s.019.055.073.11a.866.866,0,0,1,.284.675c0,.675-.612,1.2-1.708,1.2a1.921,1.921,0,0,1-1.989-1.908c0-1.4,1.187-2.016,2.619-2.016Zm-2.145,2.162c.118,0,.183-.055.183-.146s-.065-.136-.183-.136h-.319a.141.141,0,0,0-.009.282Z"/>
    <path d="M1059.354,132.709a1.55,1.55,0,0,1,1.423.767c.028.063.055.1.074.1s.045-.046.073-.119a1.515,1.515,0,0,1,1.423-.83,1.917,1.917,0,1,1,0,3.832,1.485,1.485,0,0,1-1.423-.739c-.056-.1-.083-.127-.092-.127s-.036.027-.082.118a1.484,1.484,0,0,1-1.451.675,1.678,1.678,0,0,1-1.725-1.834A1.708,1.708,0,0,1,1059.354,132.709Zm.127,1.687a.17.17,0,0,0-.172.156.157.157,0,0,0,.172.146h.567c.072,0,.109-.054.109-.146s-.037-.156-.109-.156Zm2.164,0a.172.172,0,0,0-.174.156.158.158,0,0,0,.174.146h.611a.154.154,0,1,0,0-.3Z"/>
    <path d="M1060.284,131.128c-.137,0-.137-.045-.137-.446,0-.22-.118-.366-.264-.366-.529,0-.584,0-.584.146s.046.146.457.146a.1.1,0,0,1,.091.1l-.064,1.515c0,.054-.027.072-.073.072-.676,0-2.136,0-2.136-1.834a1.7,1.7,0,0,1,1.771-1.843,1.585,1.585,0,0,1,1.424.767c.036.054.054.1.072.1s.037-.046.064-.119a1.459,1.459,0,0,1,1.387-.821,1.915,1.915,0,1,1,.019,3.823c-.393,0-.448,0-.448-.055l-.063-1.642c0-.045.027-.064.072-.064.529,0,.584,0,.584-.146,0-.072-.063-.146-.183-.146-.666,0-.811,0-.811.366,0,.4,0,.446-.1.446Z"/>
  </g>
  <g>
    <path d="M1073.252,168.416a3.168,3.168,0,0,1-.5,1.779,2.5,2.5,0,0,1-1.351,1.033l-.493-1.47a1.041,1.041,0,0,0,.589-.48,1.679,1.679,0,0,0,.205-.862,1.169,1.169,0,0,0-.342-.826,1.149,1.149,0,0,0-.37-.251,1.109,1.109,0,0,0-.456-.092,1.128,1.128,0,0,0-.452.092,1.156,1.156,0,0,0-.374.251,1.177,1.177,0,0,0-.251.374,1.156,1.156,0,0,0-.092.452,1.128,1.128,0,0,0,.019.2c.013.068.03.144.055.229l.392,1.615-2.282-1.277v1.606h-1.552v-4.564l1.954,1.351.082-.22a2.744,2.744,0,0,1,.584-.867,2.691,2.691,0,0,1,.859-.574,2.657,2.657,0,0,1,1.058-.22,2.62,2.62,0,0,1,1.059.22,2.89,2.89,0,0,1,.867.574,2.694,2.694,0,0,1,.794,1.927Z"/>
    <path d="M1069.665,159.652a2.568,2.568,0,0,1,2.82.548,2.546,2.546,0,0,1,.758,1.825,2.576,2.576,0,0,1-.2,1,2.672,2.672,0,0,1-.557.821,2.538,2.538,0,0,1-2.82.548,2.49,2.49,0,0,1-.821-.548.832.832,0,0,1-.078-.086.967.967,0,0,0-.078-.087,1.784,1.784,0,0,1-.959.265,1.876,1.876,0,0,1-.743-.151,1.919,1.919,0,0,1-1.022-1.018,1.828,1.828,0,0,1-.152-.74,1.857,1.857,0,0,1,.152-.743,1.9,1.9,0,0,1,1.022-1.022,1.86,1.86,0,0,1,.743-.152,1.837,1.837,0,0,1,.507.07,1.786,1.786,0,0,1,.452.195.964.964,0,0,0,.078-.086.834.834,0,0,1,.078-.087A2.49,2.49,0,0,1,1069.665,159.652Zm-2.446,2.373a.48.48,0,0,0,.15.357.5.5,0,0,0,.36.145.5.5,0,0,0,.5-.5.5.5,0,0,0-.145-.36.476.476,0,0,0-.357-.15.512.512,0,0,0-.51.51Zm4.472,0a.972.972,0,0,0-.082-.4,1.021,1.021,0,0,0-.543-.543.991.991,0,0,0-.794,0,1.035,1.035,0,0,0-.324.219,1.018,1.018,0,0,0-.219.324.991.991,0,0,0,0,.794,1.03,1.03,0,0,0,.219.324,1.052,1.052,0,0,0,.324.219,1,1,0,0,0,.794,0,1.021,1.021,0,0,0,.543-.543A.975.975,0,0,0,1071.691,162.025Z"/>
    <path d="M1073.052,156.531v1.789l-5.5-3.176v3.368h-1.552V152.46Z"/>
    <path d="M1065.986,147.924v-1.653h4.628v-.949h1.552v.949h.886v1.552h-.886v3.98h-1.506Zm4.628-.1H1068.3l2.318,1.926Z"/>
    <path d="M1073.052,139.571v5.4l-1.306-1.233q-1.178-1.1-1.821-1.711t-.762-.716a.2.2,0,0,0-.027-.024.12.12,0,0,1-.028-.022,1.568,1.568,0,0,0-.123-.11,1.471,1.471,0,0,0-.173-.123,1.07,1.07,0,0,0-.21-.1.73.73,0,0,0-.251-.041.9.9,0,0,0-.374.077.986.986,0,0,0-.3.206.956.956,0,0,0-.2.306.931.931,0,0,0-.077.379.956.956,0,0,0,.195.588.923.923,0,0,0,.516.342,1.127,1.127,0,0,0,.247.028v1.551a2.546,2.546,0,0,1-.639-.082,2.492,2.492,0,0,1-1.734-1.606,2.457,2.457,0,0,1-.138-.821,2.452,2.452,0,0,1,.73-1.781,2.5,2.5,0,0,1,.8-.539,2.4,2.4,0,0,1,.977-.2h.008a2.122,2.122,0,0,1,.654.1,2.857,2.857,0,0,1,.524.223,2.58,2.58,0,0,1,.384.256c.1.085.183.153.237.2l.028.028.027.018.009.019a1.744,1.744,0,0,1,.141.128l.287.273.393.37c.146.137.3.279.457.424v-1.8Z"/>
    <path d="M1069.51,133.282a.761.761,0,0,1,.164.082l3.378,1.744v1.752L1071,135.793a2.651,2.651,0,0,1-.2.867,2.585,2.585,0,0,1-1.388,1.387,2.616,2.616,0,0,1-1.022.2,2.728,2.728,0,0,1-.52-.05,2.513,2.513,0,0,1-.493-.151,2.714,2.714,0,0,1-.443-.237,2.526,2.526,0,0,1-.388-.32,2.571,2.571,0,0,1-.319-.387,2.8,2.8,0,0,1-.238-.443,2.648,2.648,0,0,1-.21-1.022,2.583,2.583,0,0,1,.21-1.014,2.592,2.592,0,0,1,1.388-1.388,2.593,2.593,0,0,1,2.127.037Zm-.064,2.356a1.043,1.043,0,0,0-.5-.905l-.119-.063a1.176,1.176,0,0,0-.438-.092,1.022,1.022,0,0,0-.41.083,1.072,1.072,0,0,0-.338.228,1.059,1.059,0,0,0-.229.338,1.069,1.069,0,0,0,0,.821,1.075,1.075,0,0,0,.567.566,1.069,1.069,0,0,0,.821,0,1.067,1.067,0,0,0,.338-.228,1.053,1.053,0,0,0,.227-.338A1.009,1.009,0,0,0,1069.446,135.638Z"/>
    <path d="M1069.665,127.13a2.568,2.568,0,0,1,2.82.548,2.546,2.546,0,0,1,.758,1.825,2.567,2.567,0,0,1-.2,1,2.66,2.66,0,0,1-.557.821,2.538,2.538,0,0,1-2.82.548,2.475,2.475,0,0,1-.821-.548.74.74,0,0,1-.078-.086,1.126,1.126,0,0,0-.078-.087,1.784,1.784,0,0,1-.959.265,1.893,1.893,0,0,1-.743-.15,1.961,1.961,0,0,1-.612-.411,1.929,1.929,0,0,1-.41-.608,1.82,1.82,0,0,1-.152-.739,1.85,1.85,0,0,1,.152-.743,1.918,1.918,0,0,1,.41-.613,1.958,1.958,0,0,1,.612-.41,1.876,1.876,0,0,1,.743-.151,1.837,1.837,0,0,1,.507.069,1.789,1.789,0,0,1,.452.2,1.126,1.126,0,0,0,.078-.086.744.744,0,0,1,.078-.087A2.475,2.475,0,0,1,1069.665,127.13Zm-2.446,2.373a.476.476,0,0,0,.15.356.5.5,0,0,0,.36.146.5.5,0,0,0,.5-.5.494.494,0,0,0-.145-.36.477.477,0,0,0-.357-.151.514.514,0,0,0-.51.511Zm4.472,0a.973.973,0,0,0-.082-.4,1.021,1.021,0,0,0-.543-.543.991.991,0,0,0-.794,0,1.035,1.035,0,0,0-.324.219,1.018,1.018,0,0,0-.219.324.991.991,0,0,0,0,.794,1.034,1.034,0,0,0,.219.325,1.05,1.05,0,0,0,.324.218,1,1,0,0,0,.794,0,1.012,1.012,0,0,0,.543-.543A.97.97,0,0,0,1071.691,129.5Z"/>
    <path d="M1073.052,124.009V125.8l-5.5-3.177v3.368h-1.552v-6.051Z"/>
    <path d="M1069.51,114.332a.761.761,0,0,1,.164.082l3.378,1.744v1.752L1071,116.843a2.657,2.657,0,0,1-.2.867,2.585,2.585,0,0,1-1.388,1.387,2.635,2.635,0,0,1-1.022.2,2.728,2.728,0,0,1-.52-.05,2.513,2.513,0,0,1-.493-.151,2.643,2.643,0,0,1-.443-.238,2.462,2.462,0,0,1-.388-.319,2.529,2.529,0,0,1-.319-.388,2.743,2.743,0,0,1-.238-.442,2.648,2.648,0,0,1-.21-1.022,2.583,2.583,0,0,1,.21-1.014,2.592,2.592,0,0,1,1.388-1.388,2.593,2.593,0,0,1,2.127.037Zm-.064,2.356a1.043,1.043,0,0,0-.5-.905l-.119-.063a1.176,1.176,0,0,0-.438-.092,1.022,1.022,0,0,0-.41.083,1.086,1.086,0,0,0-.338.227,1.07,1.07,0,0,0-.229.338,1.071,1.071,0,0,0,0,.822,1.059,1.059,0,0,0,.229.338,1.072,1.072,0,0,0,.338.228,1.069,1.069,0,0,0,.821,0,1.084,1.084,0,0,0,.338-.228,1.053,1.053,0,0,0,.227-.338A1.009,1.009,0,0,0,1069.446,116.688Z"/>
    <path d="M1069.665,108.181a2.568,2.568,0,0,1,2.82.548,2.66,2.66,0,0,1,.557.821,2.687,2.687,0,0,1,.2,1,2.567,2.567,0,0,1-.2,1,2.66,2.66,0,0,1-.557.821,2.538,2.538,0,0,1-2.82.548,2.49,2.49,0,0,1-.821-.548.74.74,0,0,1-.078-.086,1.126,1.126,0,0,0-.078-.087,1.784,1.784,0,0,1-.959.265,1.893,1.893,0,0,1-.743-.15,1.946,1.946,0,0,1-.612-.412,1.924,1.924,0,0,1-.41-.607,1.827,1.827,0,0,1-.152-.739,1.85,1.85,0,0,1,.152-.743,1.918,1.918,0,0,1,.41-.613,1.941,1.941,0,0,1,.612-.41,1.876,1.876,0,0,1,.743-.151,1.837,1.837,0,0,1,.507.069,1.786,1.786,0,0,1,.452.195.843.843,0,0,0,.078-.086.832.832,0,0,1,.078-.086A2.475,2.475,0,0,1,1069.665,108.181Zm-2.446,2.373a.479.479,0,0,0,.15.356.5.5,0,0,0,.36.146.5.5,0,0,0,.5-.5.5.5,0,0,0-.145-.361.48.48,0,0,0-.357-.15.512.512,0,0,0-.51.511Zm4.472,0a.973.973,0,0,0-.082-.4,1.021,1.021,0,0,0-.543-.543.991.991,0,0,0-.794,0,1.035,1.035,0,0,0-.324.219,1.018,1.018,0,0,0-.219.324.991.991,0,0,0,0,.794,1.018,1.018,0,0,0,.219.324,1.052,1.052,0,0,0,.324.219,1,1,0,0,0,.794,0,1.069,1.069,0,0,0,.325-.219,1.05,1.05,0,0,0,.218-.324A.973.973,0,0,0,1071.691,110.554Z"/>
    <path d="M1073.252,104.164a3.168,3.168,0,0,1-.5,1.779,2.5,2.5,0,0,1-1.351,1.033l-.493-1.47a1.041,1.041,0,0,0,.589-.48,1.679,1.679,0,0,0,.205-.862,1.169,1.169,0,0,0-.342-.826,1.149,1.149,0,0,0-.37-.251,1.109,1.109,0,0,0-.456-.092,1.128,1.128,0,0,0-.452.092,1.156,1.156,0,0,0-.374.251,1.177,1.177,0,0,0-.251.374,1.156,1.156,0,0,0-.092.452,1.128,1.128,0,0,0,.019.2c.013.068.03.144.055.229l.392,1.615-2.282-1.277v1.606h-1.552v-4.564l1.954,1.351.082-.22a2.744,2.744,0,0,1,.584-.867,2.691,2.691,0,0,1,.859-.574,2.657,2.657,0,0,1,1.058-.22,2.62,2.62,0,0,1,1.059.22,2.89,2.89,0,0,1,.867.574,2.694,2.694,0,0,1,.794,1.927Z"/>
  </g>
  <g>
    <path d="M251.276,147.3l-4.565,13.318h-2.86l-3.033-8.356-3.032,8.356h-2.86L230.343,147.3h3.1l2.946,8.563,3.119-8.563h2.619l3.118,8.563,2.946-8.563Z"/>
    <path d="M265.232,147.3v13.318H262.3v-5.858h-6.289v5.858h-2.929V147.3h2.929v4.531H262.3V147.3Z"/>
    <path d="M268.23,160.615V147.3h2.929v13.318Z"/>
    <path d="M284.167,150.226h-3.962v10.389h-2.93V150.226H273.33V147.3h10.837Z"/>
    <path d="M289.319,150.226v1.981h5.392v2.93h-5.392v2.55H294.9v2.928H286.39V147.3H294.9v2.929Z"/>
    <path d="M309.7,160.615h-4.962V147.3H309.7a7.218,7.218,0,0,1,2.662.491,6.412,6.412,0,0,1,3.626,3.558,6.643,6.643,0,0,1,.5,2.567,6.951,6.951,0,0,1-.474,2.567,6.315,6.315,0,0,1-1.387,2.136,5.351,5.351,0,0,1-1,.845,7.026,7.026,0,0,1-3.928,1.154Zm-2.034-2.928H309.7a4.276,4.276,0,0,0,1.559-.277,3.451,3.451,0,0,0,2.016-1.972,4.015,4.015,0,0,0,.284-1.525,3.8,3.8,0,0,0-.284-1.474,3.417,3.417,0,0,0-.8-1.17,3.7,3.7,0,0,0-1.224-.767,4.226,4.226,0,0,0-1.55-.276h-2.034Z"/>
    <path d="M329.394,160.615H325.81l-2.447-3.5h-1.516v3.5h-2.929V147.3h4.911a7.162,7.162,0,0,1,2.076.284,4.531,4.531,0,0,1,2.378,1.551,3.886,3.886,0,0,1,.525.836,4.745,4.745,0,0,1,.448,2.05,5.347,5.347,0,0,1-.379,2,4.631,4.631,0,0,1-1.085,1.619,4.531,4.531,0,0,1-1.258.9Zm-7.547-6.427h2a2.453,2.453,0,0,0,1.895-.637,2.075,2.075,0,0,0,.586-1.533q0-1.792-2.5-1.792h-1.982Z"/>
    <path d="M334.322,150.226v1.981h5.392v2.93h-5.392v2.55H339.9v2.928h-8.511V147.3H339.9v2.929Z"/>
    <path d="M347.674,160.787h-.241a8.522,8.522,0,0,1-3.119-.688,6.383,6.383,0,0,1-1.361-.845,3.857,3.857,0,0,1-.913-1.051l2.5-1.447a1.429,1.429,0,0,0,.4.413,3.657,3.657,0,0,0,.672.38,4.586,4.586,0,0,0,.853.275,4.35,4.35,0,0,0,.948.1h.086a3.641,3.641,0,0,0,.956-.07,4.532,4.532,0,0,0,1.111-.361,1.523,1.523,0,0,0,1.034-1.154.657.657,0,0,0-.034-.32.719.719,0,0,0-.138-.2,1.922,1.922,0,0,0-.948-.516,6.483,6.483,0,0,0-1.86-.242c-.2,0-.474-.011-.836-.034a7.893,7.893,0,0,1-1.181-.173,5.128,5.128,0,0,1-2.515-1.292,3.192,3.192,0,0,1-.9-2.549V151a4.021,4.021,0,0,1,.336-1.361,3.317,3.317,0,0,1,.819-1.119,4.911,4.911,0,0,1,2.256-1.19,7.692,7.692,0,0,1,3.757.018,6.081,6.081,0,0,1,1.852.757,4.211,4.211,0,0,1,1.232,1.155L350,150.812a1.464,1.464,0,0,0-.431-.362,3.03,3.03,0,0,0-.913-.345,5.412,5.412,0,0,0-1.189-.146,3.982,3.982,0,0,0-1.119.129,2.322,2.322,0,0,0-.7.259,1.459,1.459,0,0,0-.379.318.818.818,0,0,0-.164.311,1.039,1.039,0,0,0-.034.214.715.715,0,0,0,.043.285.484.484,0,0,0,.094.146,2.006,2.006,0,0,0,.931.423,6.27,6.27,0,0,0,1.482.163,8.921,8.921,0,0,1,2.92.439,4.959,4.959,0,0,1,2.041,1.267,3.623,3.623,0,0,1,.742,1.232,3.239,3.239,0,0,1,.154,1.456,3.834,3.834,0,0,1-.775,2.007,4.972,4.972,0,0,1-1.843,1.455,7.669,7.669,0,0,1-3.188.724Z"/>
    <path d="M360.527,160.787h-.241a8.522,8.522,0,0,1-3.119-.688,6.383,6.383,0,0,1-1.361-.845,3.874,3.874,0,0,1-.913-1.051l2.5-1.447a1.429,1.429,0,0,0,.4.413,3.657,3.657,0,0,0,.672.38,4.586,4.586,0,0,0,.853.275,4.35,4.35,0,0,0,.948.1h.086a3.641,3.641,0,0,0,.956-.07,4.532,4.532,0,0,0,1.111-.361,1.523,1.523,0,0,0,1.034-1.154.657.657,0,0,0-.034-.32.719.719,0,0,0-.138-.2,1.922,1.922,0,0,0-.948-.516,6.483,6.483,0,0,0-1.86-.242c-.2,0-.474-.011-.836-.034a7.893,7.893,0,0,1-1.181-.173,5.128,5.128,0,0,1-2.515-1.292,3.192,3.192,0,0,1-.9-2.549V151a4.045,4.045,0,0,1,.336-1.361,3.317,3.317,0,0,1,.819-1.119,4.911,4.911,0,0,1,2.256-1.19,7.692,7.692,0,0,1,3.757.018,6.081,6.081,0,0,1,1.852.757,4.211,4.211,0,0,1,1.232,1.155l-2.447,1.551a1.464,1.464,0,0,0-.431-.362,3.03,3.03,0,0,0-.913-.345,5.412,5.412,0,0,0-1.189-.146,3.982,3.982,0,0,0-1.119.129,2.322,2.322,0,0,0-.7.259,1.459,1.459,0,0,0-.379.318.818.818,0,0,0-.164.311,1.039,1.039,0,0,0-.034.214.715.715,0,0,0,.043.285.484.484,0,0,0,.094.146,2.006,2.006,0,0,0,.931.423,6.27,6.27,0,0,0,1.482.163,8.921,8.921,0,0,1,2.92.439,4.969,4.969,0,0,1,2.042,1.267,3.62,3.62,0,0,1,.741,1.232,3.239,3.239,0,0,1,.154,1.456,3.834,3.834,0,0,1-.775,2.007,4.972,4.972,0,0,1-1.843,1.455,7.669,7.669,0,0,1-3.188.724Z"/>
  </g>
</svg>
